<svg xmlns="http://www.w3.org/2000/svg" xmlns:xlink="http://www.w3.org/1999/xlink" width="79" zoomAndPan="magnify" viewBox="0 0 59.25 30.000001" height="40" preserveAspectRatio="xMidYMid meet" version="1.0"><defs><clipPath id="7f5dbe2d3c"><path d="M 13.863281 0 L 30.101562 0 L 30.101562 13.628906 L 13.863281 13.628906 Z M 13.863281 0 " clip-rule="nonzero"/></clipPath><clipPath id="6a352663b3"><path d="M 29.898438 2.878906 C 29.382812 1.269531 27.722656 0 25.761719 0 C 24.113281 0 22.683594 0.859375 21.960938 2.117188 C 21.234375 0.859375 19.804688 0 18.15625 0 C 16.105469 0 14.3125 1.269531 13.957031 3.113281 C 13.125 7.785156 18.730469 11.441406 21.972656 13.628906 C 24.972656 11.609375 31.269531 7.484375 29.898438 2.878906 Z M 29.898438 2.878906 " clip-rule="nonzero"/></clipPath><clipPath id="82037c987e"><path d="M 0.863281 0 L 17.101562 0 L 17.101562 13.628906 L 0.863281 13.628906 Z M 0.863281 0 " clip-rule="nonzero"/></clipPath><clipPath id="a182265632"><path d="M 16.898438 2.878906 C 16.382812 1.269531 14.722656 0 12.761719 0 C 11.113281 0 9.683594 0.859375 8.960938 2.117188 C 8.234375 0.859375 6.804688 0 5.15625 0 C 3.105469 0 1.3125 1.269531 0.957031 3.113281 C 0.125 7.785156 5.730469 11.441406 8.972656 13.628906 C 11.972656 11.609375 18.269531 7.484375 16.898438 2.878906 Z M 16.898438 2.878906 " clip-rule="nonzero"/></clipPath><clipPath id="d6a4011009"><rect x="0" width="18" y="0" height="14"/></clipPath><clipPath id="b53ca526fe"><path d="M 0.59375 21 L 57.929688 21 L 57.929688 25 L 0.59375 25 Z M 0.59375 21 " clip-rule="nonzero"/></clipPath><clipPath id="921fdd4784"><path d="M 49 17 L 57.929688 17 L 57.929688 29 L 49 29 Z M 49 17 " clip-rule="nonzero"/></clipPath></defs><g clip-path="url(#7f5dbe2d3c)"><g clip-path="url(#6a352663b3)"><g transform="matrix(1, 0, 0, 1, 13, 0.000000000000005692)"><g clip-path="url(#d6a4011009)"><g clip-path="url(#82037c987e)"><g clip-path="url(#a182265632)"><path fill="#ff3131" d="M 0.863281 0 L 17.101562 0 L 17.101562 13.628906 L 0.863281 13.628906 Z M 0.863281 0 " fill-opacity="1" fill-rule="nonzero"/></g></g></g></g></g></g><g clip-path="url(#b53ca526fe)"><path stroke-linecap="butt" transform="matrix(0.725806, 0.000000000000000131, -0.000000000000000131, 0.725806, 0.592741, 21.724551)" fill="none" stroke-linejoin="miter" d="M 0.00139022 1.999472 L 76.704863 1.999472 " stroke="#ffffff" stroke-width="4" stroke-opacity="1" stroke-miterlimit="4"/></g><g clip-path="url(#921fdd4784)"><path stroke-linecap="round" transform="matrix(0.725806, 0.000000000000000131, -0.000000000000000131, 0.725806, 0.592741, 21.724551)" fill="none" stroke-linejoin="round" d="M 68.707294 -4.001396 L 76.704863 1.999472 L 68.707294 8.00034 " stroke="#ffffff" stroke-width="4" stroke-opacity="1" stroke-miterlimit="4"/></g></svg>