<svg xmlns="http://www.w3.org/2000/svg" xmlns:xlink="http://www.w3.org/1999/xlink" width="84" zoomAndPan="magnify" viewBox="0 0 63 55.5" height="74" preserveAspectRatio="xMidYMid meet" version="1.0"><defs><clipPath id="7449c193d5"><path d="M 6 12 L 35 12 L 35 47.570312 L 6 47.570312 Z M 6 12 " clip-rule="nonzero"/></clipPath><clipPath id="b9332d477c"><path d="M 0.28125 0 L 35.214844 0 L 35.214844 47.570312 L 0.28125 47.570312 Z M 0.28125 0 " clip-rule="nonzero"/></clipPath><clipPath id="7af9e4766b"><path d="M 24 47 L 62.71875 47 L 62.71875 51 L 24 51 Z M 24 47 " clip-rule="nonzero"/></clipPath><clipPath id="7e8d82147d"><path d="M 53 43 L 62.71875 43 L 62.71875 55 L 53 55 Z M 53 43 " clip-rule="nonzero"/></clipPath></defs><g clip-path="url(#7449c193d5)"><path fill="#ffd6bd" d="M 34.6875 32.613281 C 34.15625 29.527344 31.644531 28.710938 31.644531 26.519531 C 32.300781 18.710938 28.335938 12.773438 19.21875 12.773438 C 5.664062 12.773438 2.515625 29.582031 11.976562 36.25 C 12.316406 41.589844 10.050781 45.367188 9.796875 47.15625 L 25.25 47.128906 C 25.25 43.96875 22.667969 41.621094 24.78125 40.710938 C 26.054688 40.160156 30.203125 42.28125 31.222656 41.03125 C 31.964844 37.890625 32.675781 38.421875 32.675781 37.285156 C 31.085938 36.089844 31.175781 35.929688 32.777344 35.417969 L 32.792969 32.96875 Z M 34.6875 32.613281 " fill-opacity="1" fill-rule="evenodd"/></g><path fill="#96a4af" d="M 16.832031 25.53125 L 16.832031 28.691406 C 16.832031 29.671875 16.019531 30.472656 15.023438 30.472656 L 13.742188 30.472656 C 12.75 30.472656 11.9375 29.671875 11.9375 28.691406 L 11.9375 26.238281 Z M 16.832031 25.53125 " fill-opacity="1" fill-rule="evenodd"/><path fill="#ffda2d" d="M 14.382812 6.625 C 19.300781 6.625 23.289062 10.550781 23.289062 15.398438 C 23.289062 18.605469 21.542969 21.414062 18.9375 22.945312 C 18.375 23.273438 18.054688 23.828125 18.054688 24.472656 L 18.054688 26.613281 C 18.054688 27.277344 17.503906 27.820312 16.832031 27.820312 L 11.9375 27.820312 C 11.261719 27.820312 10.714844 27.277344 10.714844 26.613281 L 10.714844 24.472656 C 10.714844 23.828125 10.394531 23.273438 9.832031 22.945312 C 7.226562 21.414062 5.480469 18.605469 5.480469 15.398438 C 5.480469 10.550781 9.464844 6.625 14.382812 6.625 Z M 14.382812 6.625 " fill-opacity="1" fill-rule="evenodd"/><g clip-path="url(#b9332d477c)"><path fill="#000000" d="M 7.398438 21.9375 C 6.167969 26.816406 7.804688 32.285156 12.132812 35.328125 C 12.324219 35.460938 12.433594 35.667969 12.445312 35.886719 L 12.449219 35.886719 C 12.699219 39.808594 11.605469 42.890625 10.851562 45.011719 C 10.710938 45.410156 10.582031 45.773438 10.480469 46.09375 L 24.15625 46.066406 C 23.773438 43.238281 21.421875 40.90625 24.195312 39.710938 C 24.976562 39.375 26.175781 39.660156 27.4375 39.960938 C 28.605469 40.242188 29.84375 40.535156 30.257812 40.320312 C 30.699219 38.546875 31.144531 37.917969 31.441406 37.496094 C 31.496094 37.417969 31.542969 37.351562 31.574219 37.28125 C 30.804688 36.664062 30.445312 36.226562 30.496094 35.707031 C 30.550781 35.140625 30.964844 34.851562 31.742188 34.566406 L 31.753906 32.644531 C 31.757812 32.28125 32.023438 31.980469 32.371094 31.917969 L 33.484375 31.710938 C 32.734375 29.390625 30.605469 28.546875 30.605469 26.199219 C 30.605469 26.171875 30.605469 26.144531 30.609375 26.117188 C 30.878906 22.867188 30.320312 19.972656 28.886719 17.761719 C 27.738281 15.988281 26.011719 14.636719 23.6875 13.882812 C 24.171875 17.671875 22.328125 21.332031 19.042969 23.265625 C 18.707031 23.460938 18.53125 23.769531 18.53125 24.15625 L 18.53125 26.292969 C 18.53125 27.097656 18.035156 27.800781 17.304688 28.097656 L 17.304688 28.371094 C 17.304688 29.765625 16.15625 30.898438 14.742188 30.898438 L 13.460938 30.898438 C 12.050781 30.898438 10.898438 29.765625 10.898438 28.371094 L 10.898438 28.097656 C 10.171875 27.800781 9.675781 27.097656 9.675781 26.292969 L 9.675781 24.15625 C 9.675781 23.769531 9.496094 23.460938 9.160156 23.265625 C 8.523438 22.890625 7.933594 22.445312 7.398438 21.9375 Z M 12.316406 24.199219 L 11.1875 24.199219 C 11.1875 23.265625 10.753906 22.46875 9.9375 21.988281 C 5.378906 19.308594 4.578125 13.109375 8.339844 9.402344 C 11.523438 6.265625 16.679688 6.265625 19.863281 9.402344 C 23.625 13.109375 22.828125 19.308594 18.265625 21.988281 C 17.449219 22.46875 17.015625 23.265625 17.015625 24.199219 L 15.886719 24.199219 L 15.886719 18.496094 C 17.441406 18.132812 19.152344 17.136719 19.152344 15.519531 C 19.152344 14.871094 18.882812 14.28125 18.449219 13.855469 C 16.941406 12.367188 14.371094 13.441406 14.371094 15.519531 L 14.371094 17.199219 L 13.832031 17.199219 L 13.832031 15.519531 C 13.832031 14.871094 13.5625 14.28125 13.128906 13.855469 C 11.621094 12.367188 9.050781 13.441406 9.050781 15.519531 C 9.050781 17.136719 10.761719 18.132812 12.316406 18.496094 Z M 14.371094 24.199219 L 13.832031 24.199219 L 13.832031 18.691406 L 14.371094 18.691406 Z M 12.316406 16.957031 C 11.597656 16.742188 10.566406 16.214844 10.566406 15.519531 C 10.566406 15.285156 10.664062 15.066406 10.824219 14.910156 C 11.382812 14.359375 12.316406 14.765625 12.316406 15.519531 Z M 15.886719 16.957031 L 15.886719 15.519531 C 15.886719 15.285156 15.984375 15.066406 16.144531 14.910156 C 16.703125 14.359375 17.636719 14.765625 17.636719 15.519531 C 17.636719 16.214844 16.605469 16.742188 15.886719 16.957031 Z M 17.015625 25.691406 L 17.015625 26.292969 C 17.015625 26.546875 16.804688 26.753906 16.546875 26.753906 L 11.65625 26.753906 C 11.398438 26.753906 11.1875 26.546875 11.1875 26.292969 L 11.1875 25.691406 Z M 23.324219 12.226562 C 26.417969 13.019531 28.6875 14.6875 30.160156 16.964844 C 31.773438 19.457031 32.414062 22.660156 32.121094 26.222656 C 32.128906 27.023438 32.644531 27.664062 33.222656 28.382812 C 33.988281 29.335938 34.847656 30.402344 35.152344 32.171875 C 35.21875 32.574219 34.949219 32.953125 34.542969 33.027344 L 33.261719 33.265625 L 33.25 35.070312 C 33.261719 35.394531 33.054688 35.703125 32.726562 35.808594 C 32.234375 35.964844 32.015625 35.664062 32 35.84375 C 31.992188 35.925781 32.265625 35.945312 32.808594 36.339844 C 33.015625 36.472656 33.152344 36.703125 33.152344 36.964844 C 33.152344 37.683594 32.972656 37.9375 32.683594 38.347656 C 32.4375 38.695312 32.070312 39.214844 31.675781 40.882812 L 31.675781 40.878906 C 31.652344 40.988281 31.601562 41.089844 31.527344 41.179688 C 30.648438 42.257812 28.808594 41.820312 27.082031 41.40625 C 26.074219 41.167969 25.117188 40.9375 24.800781 41.074219 C 24.207031 41.328125 24.492188 42.089844 24.878906 43.121094 C 25.265625 44.15625 25.726562 45.382812 25.726562 46.808594 L 25.722656 46.808594 C 25.722656 47.21875 25.382812 47.550781 24.96875 47.550781 L 9.414062 47.578125 C 9 47.519531 8.710938 47.144531 8.769531 46.738281 C 8.851562 46.140625 9.109375 45.414062 9.425781 44.523438 C 10.113281 42.582031 11.105469 39.789062 10.957031 36.320312 C 6.046875 32.660156 4.375 26.171875 6.222656 20.59375 C 3.492188 16.808594 3.9375 11.632812 7.269531 8.347656 C 11.042969 4.628906 17.160156 4.628906 20.933594 8.347656 C 22.023438 9.417969 22.851562 10.746094 23.324219 12.226562 Z M 15.789062 28.246094 L 15.789062 28.371094 C 15.789062 28.941406 15.316406 29.40625 14.742188 29.40625 L 13.460938 29.40625 C 13.171875 29.40625 12.910156 29.289062 12.722656 29.101562 C 12.460938 28.84375 12.414062 28.589844 12.414062 28.246094 Z M 27.113281 8.730469 L 25.023438 9.917969 C 24.660156 10.125 24.539062 10.582031 24.746094 10.9375 C 24.957031 11.292969 25.417969 11.414062 25.78125 11.207031 L 27.871094 10.019531 C 28.230469 9.8125 28.355469 9.359375 28.144531 9 C 27.9375 8.644531 27.472656 8.523438 27.113281 8.730469 Z M 21.644531 2.542969 L 20.4375 4.601562 C 20.226562 4.957031 20.351562 5.410156 20.710938 5.617188 C 21.074219 5.824219 21.535156 5.703125 21.746094 5.347656 L 22.949219 3.289062 C 23.160156 2.933594 23.035156 2.476562 22.675781 2.269531 C 22.3125 2.0625 21.851562 2.1875 21.644531 2.542969 Z M 0.769531 10.074219 L 2.859375 11.265625 C 3.222656 11.46875 3.683594 11.347656 3.890625 10.992188 C 4.101562 10.636719 3.976562 10.183594 3.617188 9.976562 L 1.527344 8.789062 C 1.167969 8.582031 0.703125 8.703125 0.496094 9.058594 C 0.285156 9.414062 0.410156 9.871094 0.769531 10.074219 Z M 5.253906 3.289062 L 6.460938 5.347656 C 6.667969 5.703125 7.132812 5.824219 7.492188 5.617188 C 7.851562 5.410156 7.976562 4.957031 7.765625 4.601562 L 6.5625 2.542969 C 6.351562 2.1875 5.890625 2.0625 5.527344 2.269531 C 5.167969 2.476562 5.042969 2.933594 5.253906 3.289062 Z M 13.34375 0.75 C 13.34375 0.339844 13.683594 0.00390625 14.101562 0.00390625 C 14.519531 0.00390625 14.859375 0.339844 14.859375 0.75 L 14.859375 3.128906 C 14.859375 3.539062 14.519531 3.875 14.101562 3.875 C 13.683594 3.875 13.34375 3.539062 13.34375 3.128906 Z M 13.34375 0.75 " fill-opacity="1" fill-rule="evenodd"/></g><g clip-path="url(#7af9e4766b)"><path stroke-linecap="butt" transform="matrix(0.743304, 0, 0, 0.743304, 26.236648, 47.501942)" fill="none" stroke-linejoin="miter" d="M 0.00219786 1.99964 L 46.243191 1.99964 " stroke="#1c1f23" stroke-width="4" stroke-opacity="1" stroke-miterlimit="4"/></g><g clip-path="url(#7e8d82147d)"><path stroke-linecap="round" transform="matrix(0.743304, 0, 0, 0.743304, 26.236648, 47.501942)" fill="none" stroke-linejoin="round" d="M 38.244692 -4.001862 L 46.243191 1.99964 L 38.244692 8.001141 " stroke="#1c1f23" stroke-width="4" stroke-opacity="1" stroke-miterlimit="4"/></g></svg>