<svg xmlns="http://www.w3.org/2000/svg" xmlns:xlink="http://www.w3.org/1999/xlink" width="85" zoomAndPan="magnify" viewBox="0 0 63.75 53.25" height="71" preserveAspectRatio="xMidYMid meet" version="1.0"><defs><clipPath id="9e357d7e28"><path d="M 0.320312 3 L 40.996094 3 L 40.996094 37 L 0.320312 37 Z M 0.320312 3 " clip-rule="nonzero"/></clipPath><clipPath id="d699c56517"><path d="M 13.679688 26.839844 C 9.828125 26.363281 6.855469 23.0625 6.855469 19.136719 C 6.855469 14.859375 10.328125 11.363281 14.609375 11.363281 C 18.101562 11.363281 21.121094 13.644531 22.074219 16.972656 C 22.832031 17 23.617188 17.164062 24.355469 17.425781 C 24.308594 17.117188 24.234375 16.832031 24.164062 16.546875 C 24.09375 16.332031 24.1875 16.117188 24.378906 16.023438 L 27.707031 14.097656 C 27.921875 13.980469 27.992188 13.695312 27.875 13.480469 L 26.542969 11.199219 C 26.46875 11.078125 26.375 11.007812 26.28125 10.984375 C 26.160156 10.960938 26.042969 10.960938 25.925781 11.03125 L 22.761719 12.863281 C 22.546875 12.980469 22.308594 12.933594 22.144531 12.765625 C 20.835938 11.199219 19.101562 10.105469 17.152344 9.605469 C 16.9375 9.535156 16.792969 9.34375 16.792969 9.128906 L 16.792969 5.277344 C 16.792969 5.039062 16.605469 4.824219 16.34375 4.824219 L 13.703125 4.824219 C 13.464844 4.824219 13.253906 5.039062 13.253906 5.277344 L 13.253906 8.960938 C 13.253906 9.175781 13.085938 9.390625 12.871094 9.414062 C 10.875 9.769531 9.066406 10.722656 7.617188 12.171875 C 7.476562 12.339844 7.238281 12.363281 7.046875 12.242188 L 3.71875 10.316406 C 3.503906 10.199219 3.242188 10.269531 3.101562 10.484375 L 1.792969 12.789062 C 1.652344 13.003906 1.722656 13.265625 1.9375 13.382812 L 5.121094 15.214844 C 5.3125 15.335938 5.40625 15.570312 5.335938 15.808594 C 4.957031 16.855469 4.765625 17.972656 4.765625 19.136719 C 4.765625 20.019531 4.859375 20.875 5.097656 21.707031 C 5.144531 21.917969 5.050781 22.132812 4.882812 22.253906 L 1.53125 24.179688 C 1.4375 24.226562 1.367188 24.320312 1.339844 24.441406 C 1.292969 24.558594 1.316406 24.675781 1.367188 24.773438 L 2.695312 27.078125 C 2.769531 27.171875 2.863281 27.246094 2.980469 27.292969 C 3.101562 27.316406 3.21875 27.292969 3.316406 27.246094 L 6.5 25.414062 C 6.691406 25.296875 6.953125 25.34375 7.09375 25.507812 C 8.402344 27.054688 10.136719 28.148438 12.085938 28.671875 C 12.300781 28.742188 12.445312 28.910156 12.445312 29.121094 L 12.445312 32.972656 C 12.445312 33.234375 12.65625 33.425781 12.894531 33.425781 L 15.535156 33.425781 C 15.796875 33.425781 15.988281 33.234375 15.988281 32.972656 L 15.988281 30.976562 C 14.796875 29.835938 14.011719 28.386719 13.679688 26.839844 Z M 20.335938 22.585938 L 20.195312 22.441406 L 19.863281 22.773438 C 19.671875 22.964844 19.363281 22.964844 19.171875 22.773438 C 18.980469 22.585938 19.003906 22.300781 19.171875 22.109375 L 19.835938 21.421875 C 20.027344 21.253906 20.335938 21.253906 20.527344 21.421875 L 21.144531 22.039062 C 21.289062 21.992188 21.453125 21.96875 21.621094 21.96875 C 21.789062 21.96875 21.953125 21.992188 22.097656 22.039062 L 22.714844 21.421875 C 22.90625 21.253906 23.214844 21.253906 23.402344 21.421875 L 24.070312 22.109375 C 24.257812 22.277344 24.257812 22.585938 24.070312 22.773438 C 23.878906 22.964844 23.570312 22.964844 23.378906 22.773438 L 23.046875 22.441406 L 22.90625 22.585938 C 23.140625 22.871094 23.261719 23.226562 23.261719 23.609375 C 23.261719 23.820312 23.238281 24.011719 23.167969 24.179688 C 23.425781 24.488281 23.617188 24.84375 23.714844 25.273438 L 23.925781 25.273438 L 24.117188 24.34375 C 24.164062 24.105469 24.402344 23.917969 24.664062 23.988281 C 24.925781 24.035156 25.09375 24.273438 25.042969 24.535156 L 24.78125 25.820312 C 24.757812 26.054688 24.546875 26.222656 24.332031 26.222656 L 23.808594 26.222656 C 23.808594 26.363281 23.785156 26.507812 23.761719 26.652344 L 24.308594 26.652344 C 24.546875 26.652344 24.734375 26.792969 24.78125 27.03125 L 25.042969 28.316406 C 25.09375 28.578125 24.925781 28.835938 24.664062 28.886719 C 24.640625 28.886719 24.617188 28.886719 24.570312 28.886719 C 24.355469 28.886719 24.140625 28.71875 24.117188 28.503906 L 23.925781 27.601562 L 23.378906 27.601562 C 22.976562 28.21875 22.335938 28.601562 21.621094 28.601562 C 20.90625 28.601562 20.265625 28.21875 19.863281 27.578125 L 19.316406 27.578125 L 19.125 28.503906 C 19.101562 28.71875 18.886719 28.886719 18.671875 28.886719 C 18.648438 28.886719 18.601562 28.886719 18.578125 28.886719 C 18.316406 28.835938 18.148438 28.578125 18.199219 28.316406 L 18.457031 27.03125 C 18.507812 26.792969 18.695312 26.625 18.910156 26.625 L 19.480469 26.625 C 19.457031 26.507812 19.433594 26.363281 19.433594 26.222656 L 18.933594 26.222656 C 18.695312 26.222656 18.507812 26.054688 18.457031 25.820312 L 18.199219 24.535156 C 18.148438 24.273438 18.316406 24.011719 18.578125 23.964844 C 18.839844 23.917969 19.101562 24.082031 19.148438 24.34375 L 19.316406 25.246094 L 19.527344 25.246094 C 19.625 24.84375 19.8125 24.488281 20.074219 24.179688 C 20.027344 24.011719 19.980469 23.820312 19.980469 23.609375 C 19.980469 23.226562 20.125 22.871094 20.335938 22.585938 Z M 22.667969 26.9375 C 22.667969 26.910156 22.667969 26.886719 22.691406 26.886719 C 22.808594 26.625 22.878906 26.339844 22.878906 26.03125 C 22.878906 25.628906 22.761719 25.246094 22.570312 24.960938 C 22.285156 25.152344 21.976562 25.246094 21.621094 25.246094 C 21.265625 25.246094 20.957031 25.152344 20.695312 24.960938 C 20.527344 25.175781 20.433594 25.4375 20.382812 25.722656 C 20.382812 25.769531 20.382812 25.820312 20.382812 25.84375 C 20.382812 25.914062 20.382812 25.960938 20.382812 26.03125 C 20.382812 26.339844 20.433594 26.652344 20.574219 26.886719 L 20.574219 26.910156 C 20.789062 27.363281 21.191406 27.648438 21.621094 27.648438 C 22.046875 27.648438 22.429688 27.363281 22.667969 26.9375 Z M 21.621094 22.917969 C 21.242188 22.917969 20.929688 23.226562 20.929688 23.609375 C 20.929688 23.75 20.980469 23.894531 21.050781 24.011719 C 21.191406 24.179688 21.382812 24.296875 21.621094 24.296875 C 22 24.296875 22.308594 23.988281 22.308594 23.609375 C 22.308594 23.226562 22 22.917969 21.621094 22.917969 Z M 21.097656 16.972656 C 20.171875 14.191406 17.578125 12.316406 14.632812 12.316406 C 10.875 12.316406 7.808594 15.382812 7.808594 19.136719 C 7.808594 22.488281 10.28125 25.34375 13.515625 25.867188 C 13.371094 24.226562 13.679688 22.539062 14.558594 21.015625 C 15.988281 18.589844 18.457031 17.140625 21.097656 16.972656 Z M 39.664062 36.777344 C 39.453125 36.777344 39.238281 36.730469 39.023438 36.613281 L 27.945312 30.214844 C 25.449219 33.332031 21.050781 34.164062 17.554688 32.140625 C 17.339844 32.023438 17.128906 31.878906 16.9375 31.761719 L 16.9375 32.972656 C 16.9375 33.757812 16.320312 34.378906 15.535156 34.378906 L 12.894531 34.378906 C 12.136719 34.378906 11.492188 33.757812 11.492188 32.972656 L 11.492188 29.503906 C 9.613281 28.933594 7.949219 27.886719 6.621094 26.4375 L 3.789062 28.078125 C 3.457031 28.242188 3.101562 28.289062 2.71875 28.195312 C 2.363281 28.101562 2.078125 27.886719 1.886719 27.554688 L 0.558594 25.246094 C 0.367188 24.9375 0.320312 24.558594 0.414062 24.203125 C 0.507812 23.84375 0.746094 23.535156 1.054688 23.347656 L 4.097656 21.609375 C 3.910156 20.800781 3.8125 19.96875 3.8125 19.136719 C 3.8125 18.019531 3.980469 16.902344 4.3125 15.855469 L 1.460938 14.214844 C 0.796875 13.835938 0.582031 12.980469 0.960938 12.316406 L 2.292969 10.007812 C 2.671875 9.34375 3.527344 9.128906 4.195312 9.507812 L 7.214844 11.246094 C 8.640625 9.890625 10.398438 8.988281 12.300781 8.558594 L 12.300781 5.277344 C 12.300781 4.515625 12.917969 3.898438 13.703125 3.898438 L 16.34375 3.898438 C 17.128906 3.898438 17.746094 4.515625 17.746094 5.277344 L 17.746094 8.773438 C 19.625 9.34375 21.289062 10.390625 22.621094 11.839844 L 25.472656 10.199219 C 25.78125 10.007812 26.160156 9.960938 26.519531 10.054688 C 26.875 10.152344 27.183594 10.390625 27.375 10.722656 L 28.707031 13.003906 C 29.085938 13.671875 28.847656 14.527344 28.183594 14.90625 L 25.164062 16.664062 C 25.257812 17.046875 25.328125 17.449219 25.378906 17.878906 C 25.472656 17.925781 25.589844 17.972656 25.6875 18.042969 C 29.179688 20.066406 30.65625 24.273438 29.226562 28.003906 L 40.308594 34.402344 C 40.59375 34.566406 40.804688 34.851562 40.902344 35.183594 C 40.996094 35.519531 40.949219 35.851562 40.78125 36.136719 C 40.542969 36.5625 40.09375 36.777344 39.664062 36.777344 Z M 27.824219 29.121094 C 27.898438 29.121094 27.992188 29.148438 28.0625 29.195312 L 39.5 35.78125 C 39.664062 35.875 39.855469 35.828125 39.949219 35.660156 C 39.996094 35.589844 39.996094 35.519531 39.972656 35.421875 C 39.949219 35.328125 39.902344 35.257812 39.832031 35.234375 L 28.394531 28.625 C 28.183594 28.503906 28.085938 28.242188 28.207031 28.003906 C 29.703125 24.652344 28.421875 20.707031 25.210938 18.875 C 21.789062 16.878906 17.390625 18.066406 15.390625 21.492188 C 13.679688 24.464844 14.320312 28.148438 16.746094 30.382812 C 16.769531 30.40625 16.792969 30.429688 16.820312 30.429688 C 17.175781 30.761719 17.578125 31.074219 18.03125 31.308594 C 21.214844 33.164062 25.28125 32.308594 27.445312 29.3125 C 27.539062 29.195312 27.683594 29.121094 27.824219 29.121094 Z M 21.621094 31.429688 C 20.503906 31.429688 19.433594 31.144531 18.457031 30.574219 C 15.441406 28.8125 14.394531 24.9375 16.128906 21.917969 C 17.886719 18.898438 21.761719 17.855469 24.78125 19.613281 C 26.257812 20.445312 27.304688 21.824219 27.730469 23.441406 C 28.183594 25.082031 27.945312 26.792969 27.089844 28.242188 C 26.257812 29.71875 24.878906 30.761719 23.261719 31.191406 C 22.714844 31.359375 22.167969 31.429688 21.621094 31.429688 Z M 16.960938 22.394531 C 15.488281 24.960938 16.367188 28.265625 18.933594 29.742188 C 20.171875 30.476562 21.621094 30.644531 23 30.289062 C 24.402344 29.90625 25.566406 29.027344 26.28125 27.792969 C 26.992188 26.53125 27.183594 25.082031 26.804688 23.703125 C 26.445312 22.300781 25.542969 21.160156 24.308594 20.421875 C 21.738281 18.949219 18.433594 19.828125 16.960938 22.394531 Z M 16.960938 22.394531 " clip-rule="evenodd"/></clipPath><linearGradient x1="853.33099" gradientTransform="matrix(0.0237739, 0, 0, 0.0237739, 0.366992, 0.0475493)" y1="161.999972" x2="853.33099" gradientUnits="userSpaceOnUse" y2="1544.999942" id="09d0411bb6"><stop stop-opacity="1" stop-color="rgb(89.790344%, 78.820801%, 21.186829%)" offset="0"/><stop stop-opacity="1" stop-color="rgb(89.68811%, 78.833008%, 21.279907%)" offset="0.0078125"/><stop stop-opacity="1" stop-color="rgb(89.485168%, 78.857422%, 21.466064%)" offset="0.015625"/><stop stop-opacity="1" stop-color="rgb(89.280701%, 78.883362%, 21.653748%)" offset="0.0234375"/><stop stop-opacity="1" stop-color="rgb(89.077759%, 78.909302%, 21.839905%)" offset="0.03125"/><stop stop-opacity="1" stop-color="rgb(88.873291%, 78.935242%, 22.026062%)" offset="0.0390625"/><stop stop-opacity="1" stop-color="rgb(88.670349%, 78.959656%, 22.212219%)" offset="0.046875"/><stop stop-opacity="1" stop-color="rgb(88.467407%, 78.985596%, 22.399902%)" offset="0.0546875"/><stop stop-opacity="1" stop-color="rgb(88.262939%, 79.011536%, 22.58606%)" offset="0.0625"/><stop stop-opacity="1" stop-color="rgb(88.059998%, 79.037476%, 22.772217%)" offset="0.0703125"/><stop stop-opacity="1" stop-color="rgb(87.85553%, 79.06189%, 22.958374%)" offset="0.078125"/><stop stop-opacity="1" stop-color="rgb(87.652588%, 79.08783%, 23.144531%)" offset="0.0859375"/><stop stop-opacity="1" stop-color="rgb(87.449646%, 79.11377%, 23.332214%)" offset="0.09375"/><stop stop-opacity="1" stop-color="rgb(87.245178%, 79.138184%, 23.518372%)" offset="0.101563"/><stop stop-opacity="1" stop-color="rgb(87.042236%, 79.164124%, 23.704529%)" offset="0.109375"/><stop stop-opacity="1" stop-color="rgb(86.837769%, 79.190063%, 23.890686%)" offset="0.117188"/><stop stop-opacity="1" stop-color="rgb(86.634827%, 79.216003%, 24.076843%)" offset="0.125"/><stop stop-opacity="1" stop-color="rgb(86.431885%, 79.240417%, 24.264526%)" offset="0.132812"/><stop stop-opacity="1" stop-color="rgb(86.227417%, 79.266357%, 24.450684%)" offset="0.140625"/><stop stop-opacity="1" stop-color="rgb(86.024475%, 79.292297%, 24.636841%)" offset="0.148438"/><stop stop-opacity="1" stop-color="rgb(85.820007%, 79.318237%, 24.822998%)" offset="0.15625"/><stop stop-opacity="1" stop-color="rgb(85.617065%, 79.342651%, 25.009155%)" offset="0.164063"/><stop stop-opacity="1" stop-color="rgb(85.414124%, 79.368591%, 25.196838%)" offset="0.171875"/><stop stop-opacity="1" stop-color="rgb(85.209656%, 79.394531%, 25.382996%)" offset="0.179687"/><stop stop-opacity="1" stop-color="rgb(85.006714%, 79.418945%, 25.569153%)" offset="0.1875"/><stop stop-opacity="1" stop-color="rgb(84.802246%, 79.444885%, 25.75531%)" offset="0.195312"/><stop stop-opacity="1" stop-color="rgb(84.599304%, 79.470825%, 25.941467%)" offset="0.203125"/><stop stop-opacity="1" stop-color="rgb(84.396362%, 79.496765%, 26.12915%)" offset="0.210938"/><stop stop-opacity="1" stop-color="rgb(84.191895%, 79.521179%, 26.315308%)" offset="0.21875"/><stop stop-opacity="1" stop-color="rgb(83.988953%, 79.547119%, 26.501465%)" offset="0.226562"/><stop stop-opacity="1" stop-color="rgb(83.784485%, 79.573059%, 26.687622%)" offset="0.234375"/><stop stop-opacity="1" stop-color="rgb(83.581543%, 79.598999%, 26.873779%)" offset="0.242188"/><stop stop-opacity="1" stop-color="rgb(83.378601%, 79.623413%, 27.061462%)" offset="0.25"/><stop stop-opacity="1" stop-color="rgb(83.174133%, 79.649353%, 27.24762%)" offset="0.257812"/><stop stop-opacity="1" stop-color="rgb(82.971191%, 79.675293%, 27.433777%)" offset="0.265625"/><stop stop-opacity="1" stop-color="rgb(82.766724%, 79.699707%, 27.619934%)" offset="0.273437"/><stop stop-opacity="1" stop-color="rgb(82.563782%, 79.725647%, 27.806091%)" offset="0.28125"/><stop stop-opacity="1" stop-color="rgb(82.36084%, 79.751587%, 27.993774%)" offset="0.289062"/><stop stop-opacity="1" stop-color="rgb(82.156372%, 79.777527%, 28.179932%)" offset="0.296875"/><stop stop-opacity="1" stop-color="rgb(81.95343%, 79.801941%, 28.366089%)" offset="0.304688"/><stop stop-opacity="1" stop-color="rgb(81.748962%, 79.827881%, 28.552246%)" offset="0.3125"/><stop stop-opacity="1" stop-color="rgb(81.546021%, 79.853821%, 28.738403%)" offset="0.320312"/><stop stop-opacity="1" stop-color="rgb(81.343079%, 79.879761%, 28.926086%)" offset="0.328125"/><stop stop-opacity="1" stop-color="rgb(81.138611%, 79.904175%, 29.112244%)" offset="0.335938"/><stop stop-opacity="1" stop-color="rgb(80.935669%, 79.930115%, 29.298401%)" offset="0.34375"/><stop stop-opacity="1" stop-color="rgb(80.731201%, 79.956055%, 29.484558%)" offset="0.351562"/><stop stop-opacity="1" stop-color="rgb(80.528259%, 79.980469%, 29.670715%)" offset="0.359375"/><stop stop-opacity="1" stop-color="rgb(80.308533%, 80.006409%, 29.872131%)" offset="0.367187"/><stop stop-opacity="1" stop-color="rgb(80.067444%, 80.030823%, 30.088806%)" offset="0.375"/><stop stop-opacity="1" stop-color="rgb(79.823303%, 80.053711%, 30.308533%)" offset="0.382812"/><stop stop-opacity="1" stop-color="rgb(79.579163%, 80.078125%, 30.529785%)" offset="0.390625"/><stop stop-opacity="1" stop-color="rgb(79.335022%, 80.102539%, 30.749512%)" offset="0.398438"/><stop stop-opacity="1" stop-color="rgb(79.089355%, 80.126953%, 30.970764%)" offset="0.40625"/><stop stop-opacity="1" stop-color="rgb(78.845215%, 80.149841%, 31.190491%)" offset="0.414062"/><stop stop-opacity="1" stop-color="rgb(78.601074%, 80.174255%, 31.411743%)" offset="0.421875"/><stop stop-opacity="1" stop-color="rgb(78.356934%, 80.198669%, 31.63147%)" offset="0.429688"/><stop stop-opacity="1" stop-color="rgb(78.112793%, 80.221558%, 31.852722%)" offset="0.4375"/><stop stop-opacity="1" stop-color="rgb(77.868652%, 80.245972%, 32.072449%)" offset="0.445312"/><stop stop-opacity="1" stop-color="rgb(77.622986%, 80.270386%, 32.293701%)" offset="0.453125"/><stop stop-opacity="1" stop-color="rgb(77.378845%, 80.293274%, 32.513428%)" offset="0.460937"/><stop stop-opacity="1" stop-color="rgb(77.134705%, 80.317688%, 32.73468%)" offset="0.46875"/><stop stop-opacity="1" stop-color="rgb(76.890564%, 80.342102%, 32.954407%)" offset="0.476562"/><stop stop-opacity="1" stop-color="rgb(76.646423%, 80.366516%, 33.175659%)" offset="0.484375"/><stop stop-opacity="1" stop-color="rgb(76.400757%, 80.389404%, 33.395386%)" offset="0.492188"/><stop stop-opacity="1" stop-color="rgb(76.156616%, 80.413818%, 33.616638%)" offset="0.5"/><stop stop-opacity="1" stop-color="rgb(75.912476%, 80.438232%, 33.836365%)" offset="0.507812"/><stop stop-opacity="1" stop-color="rgb(75.668335%, 80.461121%, 34.057617%)" offset="0.515625"/><stop stop-opacity="1" stop-color="rgb(75.424194%, 80.485535%, 34.277344%)" offset="0.523437"/><stop stop-opacity="1" stop-color="rgb(75.180054%, 80.509949%, 34.498596%)" offset="0.53125"/><stop stop-opacity="1" stop-color="rgb(74.934387%, 80.532837%, 34.718323%)" offset="0.539062"/><stop stop-opacity="1" stop-color="rgb(74.690247%, 80.557251%, 34.939575%)" offset="0.546875"/><stop stop-opacity="1" stop-color="rgb(74.446106%, 80.581665%, 35.159302%)" offset="0.554688"/><stop stop-opacity="1" stop-color="rgb(74.201965%, 80.606079%, 35.380554%)" offset="0.5625"/><stop stop-opacity="1" stop-color="rgb(73.957825%, 80.628967%, 35.600281%)" offset="0.570312"/><stop stop-opacity="1" stop-color="rgb(73.712158%, 80.653381%, 35.821533%)" offset="0.578125"/><stop stop-opacity="1" stop-color="rgb(73.468018%, 80.677795%, 36.04126%)" offset="0.585938"/><stop stop-opacity="1" stop-color="rgb(73.223877%, 80.700684%, 36.262512%)" offset="0.59375"/><stop stop-opacity="1" stop-color="rgb(72.979736%, 80.725098%, 36.482239%)" offset="0.601562"/><stop stop-opacity="1" stop-color="rgb(72.735596%, 80.749512%, 36.703491%)" offset="0.609375"/><stop stop-opacity="1" stop-color="rgb(72.491455%, 80.7724%, 36.923218%)" offset="0.617188"/><stop stop-opacity="1" stop-color="rgb(72.245789%, 80.796814%, 37.142944%)" offset="0.625"/><stop stop-opacity="1" stop-color="rgb(72.001648%, 80.821228%, 37.364197%)" offset="0.632812"/><stop stop-opacity="1" stop-color="rgb(71.757507%, 80.845642%, 37.583923%)" offset="0.640625"/><stop stop-opacity="1" stop-color="rgb(71.513367%, 80.86853%, 37.805176%)" offset="0.648438"/><stop stop-opacity="1" stop-color="rgb(71.269226%, 80.892944%, 38.024902%)" offset="0.65625"/><stop stop-opacity="1" stop-color="rgb(71.02356%, 80.917358%, 38.246155%)" offset="0.664063"/><stop stop-opacity="1" stop-color="rgb(70.779419%, 80.940247%, 38.465881%)" offset="0.671875"/><stop stop-opacity="1" stop-color="rgb(70.535278%, 80.964661%, 38.687134%)" offset="0.679688"/><stop stop-opacity="1" stop-color="rgb(70.291138%, 80.989075%, 38.90686%)" offset="0.6875"/><stop stop-opacity="1" stop-color="rgb(70.046997%, 81.011963%, 39.128113%)" offset="0.695312"/><stop stop-opacity="1" stop-color="rgb(69.802856%, 81.036377%, 39.347839%)" offset="0.703125"/><stop stop-opacity="1" stop-color="rgb(69.55719%, 81.060791%, 39.569092%)" offset="0.710937"/><stop stop-opacity="1" stop-color="rgb(69.313049%, 81.083679%, 39.788818%)" offset="0.71875"/><stop stop-opacity="1" stop-color="rgb(69.068909%, 81.108093%, 40.010071%)" offset="0.726562"/><stop stop-opacity="1" stop-color="rgb(68.824768%, 81.132507%, 40.229797%)" offset="0.734375"/><stop stop-opacity="1" stop-color="rgb(68.580627%, 81.156921%, 40.45105%)" offset="0.742187"/><stop stop-opacity="1" stop-color="rgb(68.334961%, 81.17981%, 40.670776%)" offset="0.75"/><stop stop-opacity="1" stop-color="rgb(68.09082%, 81.204224%, 40.892029%)" offset="0.757812"/><stop stop-opacity="1" stop-color="rgb(67.84668%, 81.228638%, 41.111755%)" offset="0.765625"/><stop stop-opacity="1" stop-color="rgb(67.602539%, 81.251526%, 41.333008%)" offset="0.773438"/><stop stop-opacity="1" stop-color="rgb(67.358398%, 81.27594%, 41.552734%)" offset="0.78125"/><stop stop-opacity="1" stop-color="rgb(67.114258%, 81.300354%, 41.773987%)" offset="0.789062"/><stop stop-opacity="1" stop-color="rgb(66.868591%, 81.323242%, 41.993713%)" offset="0.796875"/><stop stop-opacity="1" stop-color="rgb(66.624451%, 81.347656%, 42.214966%)" offset="0.804688"/><stop stop-opacity="1" stop-color="rgb(66.38031%, 81.37207%, 42.434692%)" offset="0.8125"/><stop stop-opacity="1" stop-color="rgb(66.136169%, 81.396484%, 42.655945%)" offset="0.820312"/><stop stop-opacity="1" stop-color="rgb(65.892029%, 81.419373%, 42.875671%)" offset="0.828125"/><stop stop-opacity="1" stop-color="rgb(65.646362%, 81.443787%, 43.096924%)" offset="0.835938"/><stop stop-opacity="1" stop-color="rgb(65.402222%, 81.468201%, 43.31665%)" offset="0.84375"/><stop stop-opacity="1" stop-color="rgb(65.158081%, 81.491089%, 43.537903%)" offset="0.851563"/><stop stop-opacity="1" stop-color="rgb(64.91394%, 81.515503%, 43.757629%)" offset="0.859375"/><stop stop-opacity="1" stop-color="rgb(64.6698%, 81.539917%, 43.977356%)" offset="0.867188"/><stop stop-opacity="1" stop-color="rgb(64.425659%, 81.562805%, 44.198608%)" offset="0.875"/><stop stop-opacity="1" stop-color="rgb(64.179993%, 81.587219%, 44.418335%)" offset="0.882812"/><stop stop-opacity="1" stop-color="rgb(63.935852%, 81.611633%, 44.639587%)" offset="0.890625"/><stop stop-opacity="1" stop-color="rgb(63.691711%, 81.636047%, 44.859314%)" offset="0.898437"/><stop stop-opacity="1" stop-color="rgb(63.447571%, 81.658936%, 45.080566%)" offset="0.90625"/><stop stop-opacity="1" stop-color="rgb(63.20343%, 81.68335%, 45.300293%)" offset="0.914062"/><stop stop-opacity="1" stop-color="rgb(62.957764%, 81.707764%, 45.521545%)" offset="0.921875"/><stop stop-opacity="1" stop-color="rgb(62.713623%, 81.730652%, 45.741272%)" offset="0.929687"/><stop stop-opacity="1" stop-color="rgb(62.469482%, 81.755066%, 45.962524%)" offset="0.9375"/><stop stop-opacity="1" stop-color="rgb(62.225342%, 81.77948%, 46.182251%)" offset="0.945312"/><stop stop-opacity="1" stop-color="rgb(61.981201%, 81.802368%, 46.403503%)" offset="0.953125"/><stop stop-opacity="1" stop-color="rgb(61.737061%, 81.826782%, 46.62323%)" offset="0.960938"/><stop stop-opacity="1" stop-color="rgb(61.491394%, 81.851196%, 46.844482%)" offset="0.96875"/><stop stop-opacity="1" stop-color="rgb(61.247253%, 81.87561%, 47.064209%)" offset="0.976562"/><stop stop-opacity="1" stop-color="rgb(61.003113%, 81.898499%, 47.285461%)" offset="0.984375"/><stop stop-opacity="1" stop-color="rgb(60.758972%, 81.922913%, 47.505188%)" offset="0.992188"/><stop stop-opacity="1" stop-color="rgb(60.514832%, 81.947327%, 47.72644%)" offset="1"/></linearGradient></defs><g clip-path="url(#9e357d7e28)"><g clip-path="url(#d699c56517)"><path fill="url(#09d0411bb6)" d="M 0.320312 3.898438 L 0.320312 36.777344 L 40.996094 36.777344 L 40.996094 3.898438 Z M 0.320312 3.898438 " fill-rule="nonzero"/></g></g><path stroke-linecap="butt" transform="matrix(0.739583, 0, 0, 0.739583, 26.95174, 44.479435)" fill="none" stroke-linejoin="miter" d="M 0.00187293 1.997877 L 46.243072 1.997877 " stroke="#1c1f23" stroke-width="4" stroke-opacity="1" stroke-miterlimit="4"/><path stroke-linecap="round" transform="matrix(0.739583, 0, 0, 0.739583, 26.95174, 44.479435)" fill="none" stroke-linejoin="round" d="M 38.241311 -4.002124 L 46.243072 1.997877 L 38.241311 7.997877 " stroke="#1c1f23" stroke-width="4" stroke-opacity="1" stroke-miterlimit="4"/></svg>