<svg xmlns="http://www.w3.org/2000/svg" xmlns:xlink="http://www.w3.org/1999/xlink" width="35" zoomAndPan="magnify" viewBox="0 0 26.25 26.249998" height="35" preserveAspectRatio="xMidYMid meet" version="1.0"><defs><clipPath id="c83821cfb5"><path d="M 0 0 L 24.792969 0 L 24.792969 24.792969 L 0 24.792969 Z M 0 0 " clip-rule="nonzero"/></clipPath><clipPath id="bbd89e0b0e"><path d="M 12.492188 0 C 5.59375 0 0 5.59375 0 12.492188 C 0 19.390625 5.59375 24.984375 12.492188 24.984375 C 19.390625 24.984375 24.984375 19.390625 24.984375 12.492188 C 24.984375 5.59375 19.390625 0 12.492188 0 Z M 12.492188 0 " clip-rule="nonzero"/></clipPath><clipPath id="54eded05a6"><path d="M 4.796875 4.796875 L 20.109375 4.796875 L 20.109375 20.109375 L 4.796875 20.109375 Z M 4.796875 4.796875 " clip-rule="nonzero"/></clipPath><clipPath id="91c783e980"><path d="M 12.492188 4.796875 C 8.242188 4.796875 4.796875 8.242188 4.796875 12.492188 C 4.796875 16.742188 8.242188 20.1875 12.492188 20.1875 C 16.742188 20.1875 20.1875 16.742188 20.1875 12.492188 C 20.1875 8.242188 16.742188 4.796875 12.492188 4.796875 Z M 12.492188 4.796875 " clip-rule="nonzero"/></clipPath></defs><g clip-path="url(#c83821cfb5)"><g clip-path="url(#bbd89e0b0e)"><path stroke-linecap="butt" transform="matrix(0.729167, 0, 0, 0.729167, 0.000001, -0.000000972222)" fill="none" stroke-linejoin="miter" d="M 17.132144 0.00000133333 C 7.671428 0.00000133333 -0.00000137143 7.671431 -0.00000137143 17.132146 C -0.00000137143 26.592862 7.671428 34.264291 17.132144 34.264291 C 26.592859 34.264291 34.264288 26.592862 34.264288 17.132146 C 34.264288 7.671431 26.592859 0.00000133333 17.132144 0.00000133333 Z M 17.132144 0.00000133333 " stroke="#e4e4e0" stroke-width="10" stroke-opacity="1" stroke-miterlimit="4"/></g></g><g clip-path="url(#54eded05a6)"><g clip-path="url(#91c783e980)"><path stroke-linecap="butt" transform="matrix(0.729167, 0, 0, 0.729167, 4.795858, 4.795856)" fill="none" stroke-linejoin="miter" d="M 10.554968 0.00139754 C 4.726395 0.00139754 0.00139483 4.726398 0.00139483 10.55497 C 0.00139483 16.383542 4.726395 21.108543 10.554968 21.108543 C 16.38354 21.108543 21.10854 16.383542 21.10854 10.55497 C 21.10854 4.726398 16.38354 0.00139754 10.554968 0.00139754 Z M 10.554968 0.00139754 " stroke="#00bf63" stroke-width="10" stroke-opacity="1" stroke-miterlimit="4"/></g></g></svg>