<svg xmlns="http://www.w3.org/2000/svg" xmlns:xlink="http://www.w3.org/1999/xlink" width="109" zoomAndPan="magnify" viewBox="0 0 81.75 56.999997" height="76" preserveAspectRatio="xMidYMid meet" version="1.0"><defs><clipPath id="d1e2e55251"><path d="M 24 31 L 51 31 L 51 49.4375 L 24 49.4375 Z M 24 31 " clip-rule="nonzero"/></clipPath><clipPath id="16887e957b"><path d="M 10 0.0859375 L 26 0.0859375 L 26 16 L 10 16 Z M 10 0.0859375 " clip-rule="nonzero"/></clipPath><clipPath id="cd6fa45500"><path d="M 20 0.0859375 L 45 0.0859375 L 45 20 L 20 20 Z M 20 0.0859375 " clip-rule="nonzero"/></clipPath><clipPath id="f7f7d168ce"><path d="M 71 44 L 81 44 L 81 56.914062 L 71 56.914062 Z M 71 44 " clip-rule="nonzero"/></clipPath></defs><path fill="#1a5e37" d="M 19.953125 34.957031 L 9.9375 34.984375 C 7.863281 37.722656 6.484375 40.574219 7.824219 43.058594 C 9.308594 45.816406 11.082031 46.453125 13.75 46.441406 L 19.953125 46.414062 Z M 19.953125 34.957031 " fill-opacity="1" fill-rule="evenodd"/><path fill="#6eb030" d="M 6.839844 42.335938 C 4.953125 39.074219 3.0625 35.816406 1.175781 32.558594 C 0.335938 31.109375 0.015625 29.976562 0.316406 28.339844 C 0.898438 25.121094 3.300781 21.546875 4.898438 18.824219 L 2.546875 17.390625 L 13.859375 16.230469 L 17.953125 26.773438 L 14.59375 24.726562 L 7.863281 35.558594 C 6.703125 37.425781 5.929688 40.121094 6.839844 42.335938 Z M 6.839844 42.335938 " fill-opacity="1" fill-rule="evenodd"/><path fill="#1a5e37" d="M 37.570312 25.628906 L 42.601562 34.257812 C 46.015625 34.683594 49.179688 34.445312 50.671875 32.046875 C 52.324219 29.386719 51.996094 27.539062 50.648438 25.242188 L 47.523438 19.902344 Z M 37.570312 25.628906 " fill-opacity="1" fill-rule="evenodd"/><g clip-path="url(#d1e2e55251)"><path fill="#6eb030" d="M 50.535156 33.257812 C 48.648438 36.519531 46.757812 39.777344 44.871094 43.039062 C 44.03125 44.484375 43.207031 45.324219 41.636719 45.886719 C 38.546875 46.992188 34.238281 46.707031 31.070312 46.691406 L 31.003906 49.433594 L 24.339844 40.253906 L 31.453125 31.449219 L 31.355469 35.371094 L 44.132812 35.761719 C 46.335938 35.832031 49.066406 35.152344 50.535156 33.257812 Z M 50.535156 33.257812 " fill-opacity="1" fill-rule="evenodd"/></g><g clip-path="url(#16887e957b)"><path fill="#1a5e37" d="M 20.652344 15.089844 L 25.636719 6.4375 C 24.296875 3.277344 22.507812 0.664062 19.675781 0.574219 C 16.539062 0.476562 15.101562 1.6875 13.773438 4 L 10.699219 9.363281 Z M 20.652344 15.089844 " fill-opacity="1" fill-rule="evenodd"/></g><g clip-path="url(#cd6fa45500)"><path fill="#6eb030" d="M 20.800781 0.0859375 C 24.574219 0.0859375 28.351562 0.0859375 32.128906 0.0859375 C 33.808594 0.0859375 34.949219 0.378906 36.226562 1.453125 C 38.730469 3.566406 40.636719 7.429688 42.203125 10.167969 L 44.625 8.855469 L 39.976562 19.195312 L 28.769531 17.457031 L 32.226562 15.582031 L 26.179688 4.359375 C 25.132812 2.425781 23.179688 0.40625 20.800781 0.0859375 Z M 20.800781 0.0859375 " fill-opacity="1" fill-rule="evenodd"/></g><path stroke-linecap="butt" transform="matrix(0.747713, 0, 0, 0.747713, 44.837005, 48.944402)" fill="none" stroke-linejoin="miter" d="M -0.00142782 2.00211 L 46.243732 2.00211 " stroke="#1c1f23" stroke-width="4" stroke-opacity="1" stroke-miterlimit="4"/><g clip-path="url(#f7f7d168ce)"><path stroke-linecap="round" transform="matrix(0.747713, 0, 0, 0.747713, 44.837005, 48.944402)" fill="none" stroke-linejoin="round" d="M 38.245388 -4.000566 L 46.243732 2.00211 L 38.245388 7.999562 " stroke="#1c1f23" stroke-width="4" stroke-opacity="1" stroke-miterlimit="4"/></g></svg>