<svg xmlns="http://www.w3.org/2000/svg" xmlns:xlink="http://www.w3.org/1999/xlink" width="81" zoomAndPan="magnify" viewBox="0 0 60.75 53.25" height="71" preserveAspectRatio="xMidYMid meet" version="1.0"><defs><clipPath id="7d3eb84f1a"><path d="M 0.296875 0 L 31 0 L 31 40.675781 L 0.296875 40.675781 Z M 0.296875 0 " clip-rule="nonzero"/></clipPath></defs><g clip-path="url(#7d3eb84f1a)"><path fill="#f1473a" d="M 15.496094 40.109375 C 11.378906 40.109375 1.199219 39.464844 0.296875 27.703125 C 0.296875 27.703125 2.933594 32.390625 2.9375 31.839844 C 2.949219 30.046875 0.296875 23.5 6.929688 19.039062 C 15.046875 13.585938 12.597656 6.890625 10.667969 6.761719 C 10.667969 6.761719 15.859375 6.234375 16.335938 13.148438 C 16.589844 16.910156 19.746094 6.050781 17.878906 0.0390625 C 17.878906 0.0390625 27.363281 5.082031 26.1875 17.488281 C 26.1875 17.488281 27.652344 14.679688 30.117188 16.179688 C 30.117188 16.179688 28.570312 16.714844 29.085938 20.851562 C 29.601562 24.988281 31.855469 40.109375 15.496094 40.109375 " fill-opacity="1" fill-rule="nonzero"/></g><path fill="#f79326" d="M 14.273438 39.679688 C 11.609375 39.558594 6.542969 38.96875 6.542969 32.3125 C 6.542969 25.65625 13.179688 24.75 13.179688 18.613281 C 13.179688 18.613281 16.332031 19.710938 16.011719 22.75 C 16.011719 22.75 22.195312 18.871094 21.679688 14.28125 C 21.679688 14.28125 35.054688 40.636719 14.273438 39.679688 " fill-opacity="1" fill-rule="nonzero"/><path fill="#f79326" d="M 14.273438 39.679688 C 11.609375 39.558594 6.542969 38.96875 6.542969 32.3125 C 6.542969 25.65625 13.179688 24.75 13.179688 18.613281 C 13.179688 18.613281 16.332031 19.710938 16.011719 22.75 C 16.011719 22.75 22.195312 18.871094 21.679688 14.28125 C 21.679688 14.28125 35.054688 40.636719 14.273438 39.679688 " fill-opacity="1" fill-rule="nonzero"/><path fill="#fff533" d="M 15.5625 28.214844 C 15.5625 28.214844 17.171875 32.953125 14.53125 32.953125 C 12.695312 32.953125 12.921875 30.949219 12.921875 30.949219 C 12.921875 30.949219 7.800781 39.285156 15.5625 39.285156 C 17.132812 39.285156 19.875 38.964844 19.875 34.699219 C 19.875 30.433594 17.492188 28.710938 15.5625 28.214844 " fill-opacity="1" fill-rule="nonzero"/><path stroke-linecap="butt" transform="matrix(0.739583, 0, 0, 0.739583, 24.028875, 44.479435)" fill="none" stroke-linejoin="miter" d="M -0.00206992 1.997877 L 46.244411 1.997877 " stroke="#1c1f23" stroke-width="4" stroke-opacity="1" stroke-miterlimit="4"/><path stroke-linecap="round" transform="matrix(0.739583, 0, 0, 0.739583, 24.028875, 44.479435)" fill="none" stroke-linejoin="round" d="M 38.24265 -4.002124 L 46.244411 1.997877 L 38.24265 7.997877 " stroke="#1c1f23" stroke-width="4" stroke-opacity="1" stroke-miterlimit="4"/></svg>