<svg xmlns="http://www.w3.org/2000/svg" xmlns:xlink="http://www.w3.org/1999/xlink" width="89" zoomAndPan="magnify" viewBox="0 0 66.75 50.999998" height="68" preserveAspectRatio="xMidYMid meet" version="1.0"><defs><clipPath id="eb772b425e"><path d="M 4 0.09375 L 39 0.09375 L 39 39.695312 L 4 39.695312 Z M 4 0.09375 " clip-rule="nonzero"/></clipPath><clipPath id="fcaf746f42"><path d="M 56 38 L 66 38 L 66 50.902344 L 56 50.902344 Z M 56 38 " clip-rule="nonzero"/></clipPath></defs><g clip-path="url(#eb772b425e)"><path fill="#e7bb52" d="M 37.980469 5.199219 C 37.960938 5.195312 37.941406 5.195312 37.921875 5.191406 C 37.574219 5.125 33.726562 4.359375 29.75 3.300781 C 25.210938 1.84375 21.214844 0.09375 21.214844 0.09375 C 21.214844 0.09375 17.390625 1.792969 12.984375 3.238281 C 8.964844 4.328125 5.023438 5.121094 4.675781 5.191406 C 4.65625 5.195312 4.636719 5.195312 4.617188 5.199219 C 4.617188 5.199219 0.00390625 29.167969 21.28125 39.695312 L 21.300781 39.664062 L 21.316406 39.695312 C 42.59375 29.167969 37.980469 5.199219 37.980469 5.199219 " fill-opacity="1" fill-rule="nonzero"/></g><path fill="#bd9748" d="M 36.109375 6.847656 C 36.089844 6.847656 36.074219 6.84375 36.054688 6.84375 C 35.746094 6.78125 32.332031 6.101562 28.800781 5.164062 C 24.773438 3.871094 21.222656 2.316406 21.222656 2.316406 C 21.222656 2.316406 17.832031 3.824219 13.917969 5.109375 C 10.351562 6.078125 6.851562 6.78125 6.542969 6.84375 C 6.523438 6.84375 6.507812 6.847656 6.492188 6.847656 C 6.492188 6.847656 2.394531 28.128906 21.285156 37.472656 L 21.300781 37.441406 L 21.3125 37.472656 C 40.203125 28.128906 36.109375 6.847656 36.109375 6.847656 " fill-opacity="1" fill-rule="nonzero"/><path fill="#fbcf57" d="M 35.136719 7.703125 C 35.121094 7.703125 35.105469 7.699219 35.089844 7.699219 C 34.800781 7.640625 31.609375 7.007812 28.308594 6.128906 C 24.542969 4.917969 21.230469 3.46875 21.230469 3.46875 C 21.230469 3.46875 18.058594 4.878906 14.398438 6.078125 C 11.066406 6.980469 7.796875 7.640625 7.507812 7.699219 C 7.492188 7.699219 7.476562 7.703125 7.460938 7.703125 C 7.460938 7.703125 3.636719 27.589844 21.285156 36.320312 L 21.300781 36.292969 L 21.3125 36.320312 C 38.960938 27.589844 35.136719 7.703125 35.136719 7.703125 " fill-opacity="1" fill-rule="nonzero"/><path fill="#ecbf54" d="M 35.089844 7.699219 C 34.800781 7.640625 31.609375 7.007812 28.308594 6.128906 C 24.542969 4.917969 21.230469 3.46875 21.230469 3.46875 C 21.230469 3.46875 18.058594 4.878906 14.398438 6.078125 C 11.066406 6.980469 7.796875 7.640625 7.507812 7.699219 C 7.492188 7.699219 7.476562 7.703125 7.460938 7.703125 L 21.273438 18.152344 L 35.089844 7.699219 " fill-opacity="1" fill-rule="nonzero"/><path fill="#f6d88f" d="M 7.460938 7.703125 C 7.460938 7.703125 3.636719 27.589844 21.285156 36.320312 L 21.273438 18.152344 L 7.460938 7.703125 " fill-opacity="1" fill-rule="nonzero"/><path stroke-linecap="butt" transform="matrix(0.747201, 0, 0, 0.747201, 29.910883, 43.390244)" fill="none" stroke-linejoin="miter" d="M -0.000972803 1.997545 L 46.244504 1.997545 " stroke="#1c1f23" stroke-width="4" stroke-opacity="1" stroke-miterlimit="4"/><g clip-path="url(#fcaf746f42)"><path stroke-linecap="round" transform="matrix(0.747201, 0, 0, 0.747201, 29.910883, 43.390244)" fill="none" stroke-linejoin="round" d="M 38.245908 -3.998788 L 46.244504 1.997545 L 38.245908 7.999106 " stroke="#1c1f23" stroke-width="4" stroke-opacity="1" stroke-miterlimit="4"/></g></svg>