<svg xmlns="http://www.w3.org/2000/svg" xmlns:xlink="http://www.w3.org/1999/xlink" width="98" zoomAndPan="magnify" viewBox="0 0 73.5 57.749998" height="77" preserveAspectRatio="xMidYMid meet" version="1.0"><defs><clipPath id="f21fa765c5"><path d="M 1 1 L 35 1 L 35 47.746094 L 1 47.746094 Z M 1 1 " clip-rule="nonzero"/></clipPath><clipPath id="fdc2cc1823"><path d="M 4 0.0703125 L 23 0.0703125 L 23 21 L 4 21 Z M 4 0.0703125 " clip-rule="nonzero"/></clipPath><clipPath id="7dcb5e9320"><path d="M 1 41 L 35 41 L 35 47.746094 L 1 47.746094 Z M 1 41 " clip-rule="nonzero"/></clipPath><clipPath id="f3a61709de"><path d="M 1 0.0703125 L 35.757812 0.0703125 L 35.757812 47.746094 L 1 47.746094 Z M 1 0.0703125 " clip-rule="nonzero"/></clipPath></defs><g clip-path="url(#f21fa765c5)"><path fill="#ffce31" d="M 31.65625 20.074219 L 30.742188 20.074219 L 30.742188 13.5625 C 30.742188 12.742188 30.660156 11.933594 30.5 11.128906 C 30.335938 10.324219 30.097656 9.542969 29.78125 8.789062 C 29.464844 8.03125 29.078125 7.3125 28.617188 6.628906 C 28.15625 5.949219 27.632812 5.320312 27.050781 4.738281 C 26.464844 4.160156 25.828125 3.640625 25.136719 3.1875 C 24.449219 2.730469 23.722656 2.347656 22.957031 2.035156 C 22.195312 1.71875 21.40625 1.484375 20.59375 1.324219 C 19.78125 1.164062 18.960938 1.082031 18.132812 1.082031 C 17.304688 1.082031 16.488281 1.164062 15.675781 1.324219 C 14.863281 1.484375 14.074219 1.71875 13.308594 2.035156 C 12.542969 2.347656 11.816406 2.730469 11.128906 3.1875 C 10.441406 3.640625 9.804688 4.160156 9.21875 4.738281 C 8.632812 5.320312 8.113281 5.949219 7.652344 6.628906 C 7.191406 7.3125 6.804688 8.03125 6.488281 8.789062 C 6.167969 9.542969 5.929688 10.324219 5.769531 11.128906 C 5.609375 11.933594 5.527344 12.742188 5.527344 13.5625 L 5.527344 20.074219 L 4.613281 20.074219 C 4.226562 20.074219 3.851562 20.148438 3.496094 20.292969 C 3.136719 20.441406 2.820312 20.652344 2.546875 20.921875 C 2.273438 21.195312 2.0625 21.507812 1.914062 21.859375 C 1.765625 22.214844 1.691406 22.585938 1.691406 22.96875 L 1.691406 44.308594 C 1.691406 44.695312 1.765625 45.0625 1.914062 45.417969 C 2.0625 45.773438 2.273438 46.085938 2.546875 46.355469 C 2.820312 46.628906 3.136719 46.835938 3.496094 46.984375 C 3.851562 47.128906 4.226562 47.203125 4.613281 47.203125 L 31.65625 47.203125 C 32.042969 47.203125 32.414062 47.128906 32.773438 46.984375 C 33.132812 46.835938 33.449219 46.628906 33.722656 46.355469 C 33.996094 46.085938 34.207031 45.773438 34.355469 45.417969 C 34.503906 45.0625 34.578125 44.695312 34.578125 44.308594 L 34.578125 22.96875 C 34.578125 22.585938 34.503906 22.214844 34.355469 21.859375 C 34.207031 21.507812 33.996094 21.195312 33.722656 20.921875 C 33.449219 20.652344 33.132812 20.441406 32.773438 20.292969 C 32.414062 20.148438 32.042969 20.074219 31.65625 20.074219 Z M 9.546875 13.5625 C 9.546875 13.003906 9.601562 12.453125 9.710938 11.90625 C 9.820312 11.359375 9.984375 10.824219 10.199219 10.308594 C 10.417969 9.792969 10.679688 9.304688 10.992188 8.839844 C 11.308594 8.375 11.664062 7.945312 12.0625 7.550781 C 12.460938 7.15625 12.894531 6.804688 13.363281 6.496094 C 13.832031 6.183594 14.328125 5.921875 14.847656 5.710938 C 15.367188 5.496094 15.90625 5.335938 16.457031 5.226562 C 17.011719 5.117188 17.570312 5.0625 18.132812 5.0625 C 18.699219 5.0625 19.257812 5.117188 19.808594 5.226562 C 20.363281 5.335938 20.898438 5.496094 21.421875 5.710938 C 21.941406 5.921875 22.4375 6.183594 22.90625 6.496094 C 23.375 6.804688 23.808594 7.15625 24.207031 7.550781 C 24.605469 7.945312 24.960938 8.375 25.273438 8.839844 C 25.585938 9.304688 25.851562 9.792969 26.066406 10.308594 C 26.285156 10.824219 26.445312 11.359375 26.558594 11.90625 C 26.667969 12.453125 26.722656 13.003906 26.722656 13.5625 L 26.722656 20.074219 L 9.546875 20.074219 Z M 9.546875 13.5625 " fill-opacity="1" fill-rule="nonzero"/></g><g clip-path="url(#fdc2cc1823)"><path fill="#ffffff" d="M 6.988281 19.894531 C 6.988281 19.894531 6.625 11.574219 7.71875 9.402344 C 8.816406 7.234375 9.910156 5.425781 12.835938 3.976562 C 14.902344 2.929688 17.09375 2.445312 19.414062 2.53125 C 20.875 2.53125 22.335938 2.167969 22.703125 1.445312 C 20.179688 0.5625 17.621094 0.441406 15.027344 1.082031 C 11.007812 2.167969 10.277344 2.890625 8.085938 5.425781 C 5.890625 7.957031 5.527344 8.679688 5.160156 11.574219 C 4.796875 14.46875 5.023438 20.085938 5.023438 20.085938 Z M 6.988281 19.894531 " fill-opacity="1" fill-rule="nonzero"/></g><g clip-path="url(#7dcb5e9320)"><path fill="#1a1a1a" d="M 1.871094 43.40625 C 4.066406 45.578125 9.179688 44.851562 11.007812 44.851562 C 12.871094 44.851562 19.960938 45.035156 23.980469 45.035156 C 28 45.035156 33.847656 45.757812 34.578125 41.777344 C 34.578125 41.777344 35.71875 46.566406 32.589844 47.066406 C 29.460938 47.566406 3.882812 47.203125 3.882812 47.203125 C 3.882812 47.203125 1.140625 45.9375 1.871094 43.40625 Z M 1.871094 43.40625 " fill-opacity="1" fill-rule="nonzero"/></g><path fill="#ffffff" d="M 1.871094 26.40625 C 1.871094 26.40625 3.53125 23.527344 5.527344 22.789062 C 8.449219 21.703125 12.835938 22.789062 17.953125 22.789062 C 23.066406 22.789062 28.183594 22.789062 30.742188 22.425781 C 33.300781 22.0625 33.320312 21.734375 33.300781 20.617188 C 33.300781 20.617188 31.835938 20.253906 28.550781 20.253906 C 25.261719 20.253906 4.429688 19.894531 4.429688 19.894531 C 4.429688 19.894531 0.046875 21.339844 1.871094 26.40625 Z M 1.871094 26.40625 " fill-opacity="1" fill-rule="nonzero"/><path fill="#1a1a1a" d="M 18.132812 40.511719 C 17.820312 40.511719 17.515625 40.453125 17.226562 40.332031 C 16.933594 40.210938 16.679688 40.042969 16.457031 39.824219 C 16.234375 39.601562 16.0625 39.347656 15.941406 39.058594 C 15.820312 38.773438 15.757812 38.472656 15.757812 38.160156 L 15.757812 34.71875 C 15.390625 34.46875 15.066406 34.167969 14.796875 33.8125 C 14.523438 33.460938 14.3125 33.074219 14.164062 32.65625 C 14.019531 32.234375 13.941406 31.804688 13.933594 31.359375 C 13.925781 30.914062 13.988281 30.480469 14.121094 30.058594 C 14.253906 29.632812 14.449219 29.238281 14.707031 28.878906 C 14.96875 28.515625 15.28125 28.203125 15.640625 27.941406 C 16 27.675781 16.394531 27.476562 16.820312 27.335938 C 17.246094 27.199219 17.683594 27.128906 18.132812 27.128906 C 18.289062 27.128906 18.441406 27.136719 18.597656 27.152344 C 19.023438 27.199219 19.433594 27.308594 19.824219 27.476562 C 20.21875 27.648438 20.574219 27.875 20.898438 28.152344 C 21.222656 28.433594 21.496094 28.753906 21.71875 29.117188 C 21.945312 29.476562 22.109375 29.863281 22.210938 30.277344 C 22.316406 30.6875 22.355469 31.105469 22.332031 31.53125 C 22.304688 31.957031 22.21875 32.367188 22.066406 32.761719 C 21.914062 33.160156 21.703125 33.523438 21.4375 33.859375 C 21.171875 34.191406 20.863281 34.480469 20.507812 34.71875 L 20.507812 38.160156 C 20.507812 38.472656 20.449219 38.773438 20.328125 39.058594 C 20.207031 39.347656 20.035156 39.601562 19.8125 39.824219 C 19.589844 40.042969 19.332031 40.210938 19.042969 40.332031 C 18.75 40.453125 18.449219 40.511719 18.132812 40.511719 Z M 18.132812 40.511719 " fill-opacity="1" fill-rule="nonzero"/><g clip-path="url(#f3a61709de)"><path fill="#1a1a1a" d="M 31.835938 19.539062 L 31.835938 13.5625 C 31.835938 12.671875 31.75 11.789062 31.574219 10.917969 C 31.398438 10.042969 31.140625 9.195312 30.792969 8.371094 C 30.449219 7.550781 30.027344 6.769531 29.527344 6.027344 C 29.027344 5.285156 28.460938 4.601562 27.824219 3.972656 C 27.1875 3.34375 26.496094 2.78125 25.746094 2.285156 C 25 1.789062 24.210938 1.371094 23.378906 1.03125 C 22.546875 0.691406 21.691406 0.433594 20.808594 0.257812 C 19.925781 0.0859375 19.035156 0 18.132812 0 C 17.234375 0 16.34375 0.0859375 15.460938 0.257812 C 14.578125 0.433594 13.722656 0.691406 12.890625 1.03125 C 12.058594 1.371094 11.269531 1.789062 10.519531 2.285156 C 9.773438 2.78125 9.082031 3.34375 8.445312 3.972656 C 7.808594 4.601562 7.238281 5.285156 6.738281 6.027344 C 6.238281 6.769531 5.816406 7.550781 5.472656 8.371094 C 5.128906 9.195312 4.871094 10.042969 4.695312 10.917969 C 4.519531 11.789062 4.429688 12.671875 4.429688 13.5625 L 4.429688 19.539062 C 3.988281 19.5625 3.5625 19.667969 3.160156 19.851562 C 2.757812 20.035156 2.402344 20.289062 2.097656 20.605469 C 1.789062 20.925781 1.554688 21.289062 1.390625 21.695312 C 1.226562 22.105469 1.140625 22.527344 1.140625 22.96875 L 1.140625 44.308594 C 1.140625 44.765625 1.230469 45.203125 1.40625 45.625 C 1.582031 46.046875 1.835938 46.417969 2.160156 46.738281 C 2.484375 47.0625 2.859375 47.308594 3.285156 47.484375 C 3.710938 47.660156 4.152344 47.746094 4.613281 47.746094 L 31.65625 47.746094 C 32.117188 47.746094 32.558594 47.660156 32.984375 47.484375 C 33.40625 47.308594 33.785156 47.0625 34.109375 46.738281 C 34.433594 46.417969 34.683594 46.046875 34.863281 45.625 C 35.039062 45.203125 35.125 44.765625 35.125 44.308594 L 35.125 22.96875 C 35.125 22.527344 35.042969 22.105469 34.878906 21.695312 C 34.714844 21.289062 34.476562 20.925781 34.171875 20.605469 C 33.867188 20.289062 33.511719 20.035156 33.109375 19.851562 C 32.703125 19.667969 32.28125 19.5625 31.835938 19.539062 Z M 18.132812 1.082031 C 18.960938 1.085938 19.78125 1.164062 20.59375 1.324219 C 21.402344 1.488281 22.191406 1.722656 22.957031 2.039062 C 23.722656 2.351562 24.445312 2.738281 25.132812 3.191406 C 25.824219 3.648438 26.460938 4.164062 27.042969 4.742188 C 27.628906 5.324219 28.152344 5.953125 28.613281 6.632812 C 29.070312 7.316406 29.460938 8.035156 29.777344 8.789062 C 30.09375 9.546875 30.335938 10.328125 30.496094 11.128906 C 30.660156 11.933594 30.742188 12.746094 30.742188 13.5625 L 30.742188 19.53125 L 26.722656 19.53125 L 26.722656 13.5625 C 26.722656 13.003906 26.667969 12.453125 26.558594 11.90625 C 26.445312 11.359375 26.285156 10.824219 26.066406 10.308594 C 25.851562 9.792969 25.585938 9.304688 25.273438 8.839844 C 24.960938 8.375 24.605469 7.945312 24.207031 7.550781 C 23.808594 7.15625 23.375 6.804688 22.90625 6.496094 C 22.4375 6.183594 21.941406 5.921875 21.421875 5.710938 C 20.898438 5.496094 20.363281 5.335938 19.808594 5.226562 C 19.257812 5.117188 18.699219 5.0625 18.132812 5.0625 C 17.570312 5.0625 17.011719 5.117188 16.457031 5.226562 C 15.90625 5.335938 15.367188 5.496094 14.847656 5.710938 C 14.328125 5.921875 13.832031 6.183594 13.363281 6.496094 C 12.894531 6.804688 12.460938 7.15625 12.0625 7.550781 C 11.664062 7.945312 11.308594 8.375 10.992188 8.839844 C 10.679688 9.304688 10.417969 9.792969 10.199219 10.308594 C 9.984375 10.824219 9.820312 11.359375 9.710938 11.90625 C 9.601562 12.453125 9.546875 13.003906 9.546875 13.5625 L 9.546875 19.53125 L 5.527344 19.53125 L 5.527344 13.5625 C 5.527344 12.746094 5.609375 11.933594 5.773438 11.128906 C 5.933594 10.328125 6.171875 9.546875 6.492188 8.789062 C 6.808594 8.035156 7.195312 7.316406 7.65625 6.632812 C 8.117188 5.953125 8.640625 5.324219 9.222656 4.742188 C 9.808594 4.164062 10.445312 3.648438 11.132812 3.191406 C 11.820312 2.738281 12.546875 2.351562 13.3125 2.039062 C 14.078125 1.722656 14.863281 1.488281 15.675781 1.324219 C 16.488281 1.164062 17.308594 1.085938 18.132812 1.082031 Z M 25.625 19.53125 L 10.644531 19.53125 L 10.644531 13.5625 C 10.644531 13.078125 10.691406 12.59375 10.785156 12.117188 C 10.882812 11.640625 11.023438 11.175781 11.214844 10.726562 C 11.402344 10.277344 11.632812 9.847656 11.90625 9.445312 C 12.179688 9.039062 12.488281 8.664062 12.835938 8.320312 C 13.183594 7.976562 13.5625 7.667969 13.972656 7.398438 C 14.382812 7.128906 14.8125 6.898438 15.265625 6.710938 C 15.722656 6.527344 16.191406 6.386719 16.671875 6.289062 C 17.15625 6.195312 17.640625 6.148438 18.132812 6.148438 C 18.625 6.148438 19.113281 6.195312 19.59375 6.289062 C 20.078125 6.386719 20.546875 6.527344 21 6.710938 C 21.457031 6.898438 21.886719 7.128906 22.296875 7.398438 C 22.707031 7.667969 23.082031 7.976562 23.429688 8.320312 C 23.777344 8.664062 24.089844 9.039062 24.363281 9.445312 C 24.636719 9.847656 24.867188 10.277344 25.054688 10.726562 C 25.242188 11.175781 25.386719 11.640625 25.480469 12.117188 C 25.578125 12.59375 25.625 13.078125 25.625 13.5625 Z M 34.03125 44.308594 C 34.03125 44.621094 33.96875 44.921875 33.847656 45.210938 C 33.726562 45.496094 33.554688 45.75 33.332031 45.972656 C 33.109375 46.191406 32.855469 46.363281 32.5625 46.480469 C 32.273438 46.601562 31.96875 46.660156 31.65625 46.660156 L 4.613281 46.660156 C 4.296875 46.660156 3.996094 46.601562 3.703125 46.480469 C 3.414062 46.363281 3.15625 46.191406 2.933594 45.972656 C 2.710938 45.75 2.539062 45.496094 2.417969 45.210938 C 2.300781 44.921875 2.238281 44.621094 2.238281 44.308594 L 2.238281 22.96875 C 2.238281 22.65625 2.300781 22.355469 2.417969 22.070312 C 2.539062 21.78125 2.710938 21.527344 2.933594 21.304688 C 3.15625 21.085938 3.414062 20.917969 3.703125 20.796875 C 3.996094 20.675781 4.296875 20.617188 4.613281 20.617188 L 31.65625 20.617188 C 31.96875 20.617188 32.273438 20.675781 32.5625 20.796875 C 32.855469 20.917969 33.109375 21.085938 33.332031 21.304688 C 33.554688 21.527344 33.726562 21.78125 33.847656 22.070312 C 33.96875 22.355469 34.03125 22.65625 34.03125 22.96875 Z M 34.03125 44.308594 " fill-opacity="1" fill-rule="nonzero"/></g><path stroke-linecap="butt" transform="matrix(0.744932, 0, 0, 0.744932, 36.391894, 49.378869)" fill="none" stroke-linejoin="miter" d="M -0.0017031 1.997924 L 46.243055 1.997924 " stroke="#1c1f23" stroke-width="4" stroke-opacity="1" stroke-miterlimit="4"/><path stroke-linecap="round" transform="matrix(0.744932, 0, 0, 0.744932, 36.391894, 49.378869)" fill="none" stroke-linejoin="round" d="M 38.246314 -4.000943 L 46.243055 1.997924 L 38.246314 8.002034 " stroke="#1c1f23" stroke-width="4" stroke-opacity="1" stroke-miterlimit="4"/></svg>