<svg xmlns="http://www.w3.org/2000/svg" xmlns:xlink="http://www.w3.org/1999/xlink" width="30" zoomAndPan="magnify" viewBox="0 0 22.5 8.25" height="11" preserveAspectRatio="xMidYMid meet" version="1.0"><defs><clipPath id="f3b36ed8bf"><path d="M 14.105469 0 L 20.980469 0 L 20.980469 6.875 L 14.105469 6.875 Z M 14.105469 0 " clip-rule="nonzero"/></clipPath><clipPath id="4775bed762"><path d="M 0.707031 4 L 9 4 L 9 6 L 0.707031 6 Z M 0.707031 4 " clip-rule="nonzero"/></clipPath></defs><g clip-path="url(#f3b36ed8bf)"><path fill="#100f0d" d="M 21.238281 3.566406 C 21.238281 4.039062 21.144531 4.496094 20.964844 4.929688 C 20.785156 5.367188 20.527344 5.753906 20.191406 6.089844 C 19.859375 6.421875 19.472656 6.679688 19.035156 6.863281 C 18.597656 7.042969 18.144531 7.132812 17.671875 7.132812 C 17.199219 7.132812 16.742188 7.042969 16.304688 6.863281 C 15.867188 6.679688 15.484375 6.421875 15.148438 6.089844 C 14.8125 5.753906 14.554688 5.367188 14.375 4.929688 C 14.195312 4.496094 14.105469 4.039062 14.105469 3.566406 C 14.105469 3.09375 14.195312 2.636719 14.375 2.203125 C 14.554688 1.765625 14.8125 1.378906 15.148438 1.042969 C 15.484375 0.710938 15.867188 0.453125 16.304688 0.269531 C 16.742188 0.0898438 17.199219 0 17.671875 0 C 18.144531 0 18.597656 0.0898438 19.035156 0.269531 C 19.472656 0.453125 19.859375 0.710938 20.191406 1.042969 C 20.527344 1.378906 20.785156 1.765625 20.964844 2.203125 C 21.144531 2.636719 21.238281 3.09375 21.238281 3.566406 Z M 21.238281 3.566406 " fill-opacity="1" fill-rule="nonzero"/></g><path fill="#ffffff" d="M 18.203125 1.355469 L 16.433594 1.355469 C 16.273438 1.355469 16.140625 1.484375 16.140625 1.644531 L 16.140625 5.394531 C 16.140625 5.554688 16.273438 5.6875 16.433594 5.6875 L 19 5.6875 C 19.160156 5.6875 19.289062 5.554688 19.289062 5.394531 L 19.289062 2.441406 Z M 18.203125 1.355469 " fill-opacity="1" fill-rule="nonzero"/><path stroke-linecap="butt" transform="matrix(0.0485225, 0, 0, 0.0485225, 14.103892, 0.0000000916667)" fill="none" stroke-linejoin="miter" d="M 84.481017 27.934831 L 84.481017 50.314899 L 106.861085 50.314899 " stroke="#3086f6" stroke-width="1" stroke-opacity="1" stroke-miterlimit="10"/><path fill="#100f0d" d="M 16.832031 3.023438 L 18.601562 3.023438 L 18.601562 3.28125 L 16.832031 3.28125 Z M 16.832031 3.023438 " fill-opacity="1" fill-rule="nonzero"/><path fill="#100f0d" d="M 16.832031 3.609375 L 18.601562 3.609375 L 18.601562 3.867188 L 16.832031 3.867188 Z M 16.832031 3.609375 " fill-opacity="1" fill-rule="nonzero"/><path fill="#100f0d" d="M 16.832031 4.195312 L 18.101562 4.195312 L 18.101562 4.453125 L 16.832031 4.453125 Z M 16.832031 4.195312 " fill-opacity="1" fill-rule="nonzero"/><g clip-path="url(#4775bed762)"><path stroke-linecap="butt" transform="matrix(0.6875, 0, 0, 0.6875, 0.708334, 4.329059)" fill="none" stroke-linejoin="miter" d="M -0.00189468 0.998641 L 10.611743 0.998641 " stroke="#ffffff" stroke-width="2" stroke-opacity="1" stroke-miterlimit="4"/></g></svg>