<svg xmlns="http://www.w3.org/2000/svg" xmlns:xlink="http://www.w3.org/1999/xlink" width="90" zoomAndPan="magnify" viewBox="0 0 67.5 54.749999" height="73" preserveAspectRatio="xMidYMid meet" version="1.0"><defs><clipPath id="970197b153"><path d="M 15 9 L 43.925781 9 L 43.925781 43 L 15 43 Z M 15 9 " clip-rule="nonzero"/></clipPath><clipPath id="46988ae443"><path d="M 15 8 L 43.925781 8 L 43.925781 44 L 15 44 Z M 15 8 " clip-rule="nonzero"/></clipPath></defs><g clip-path="url(#970197b153)"><path fill="#0066ff" d="M 17.929688 9.625 C 19.769531 7.839844 29.792969 12.179688 33.964844 12.078125 C 35.066406 12.050781 43.890625 11.308594 43.890625 12.613281 C 43.890625 18.300781 41.574219 29.960938 37.769531 34.65625 C 33.714844 39.660156 26.761719 45.480469 23.394531 41.867188 C 13.578125 31.34375 15.105469 22.957031 17.929688 9.625 Z M 25.835938 19.789062 C 23.871094 22 21.308594 20.414062 20.417969 19.160156 C 21.078125 23.296875 25.5625 22.480469 25.835938 19.789062 Z M 33.21875 36.539062 C 30.660156 33.378906 23.851562 32.6875 20.816406 34.929688 C 21.5 32.695312 24.179688 29.949219 27.625 30.429688 C 31.246094 30.9375 33.476562 34.109375 33.21875 36.539062 Z M 37.011719 21.519531 C 35.050781 23.730469 32.488281 22.148438 31.597656 20.890625 C 32.253906 25.027344 36.742188 24.210938 37.011719 21.519531 Z M 37.011719 21.519531 " fill-opacity="1" fill-rule="evenodd"/></g><g clip-path="url(#46988ae443)"><path fill="#0066ff" d="M 26.027344 43.210938 C 24.914062 43.210938 23.972656 42.808594 23.234375 42.019531 C 18.558594 37.003906 16.238281 32.316406 15.703125 26.820312 C 15.226562 21.875 16.191406 16.78125 17.714844 9.578125 C 17.726562 9.535156 17.746094 9.5 17.777344 9.46875 C 18.121094 9.136719 18.691406 8.976562 19.519531 8.976562 C 21.269531 8.976562 24.011719 9.707031 26.664062 10.414062 C 29.398438 11.144531 32.230469 11.898438 33.960938 11.859375 C 34.117188 11.855469 34.429688 11.835938 34.871094 11.808594 C 36.046875 11.738281 38.023438 11.625 39.835938 11.625 C 43.601562 11.625 44.109375 12.125 44.109375 12.613281 C 44.109375 18.554688 41.703125 30.144531 37.9375 34.792969 C 34.789062 38.675781 29.78125 43.210938 26.027344 43.210938 Z M 18.128906 9.742188 C 15.410156 22.578125 13.628906 31.074219 23.554688 41.71875 C 24.207031 42.417969 25.039062 42.773438 26.027344 42.773438 C 29.398438 42.773438 34.265625 38.625 37.597656 34.519531 C 41.304688 29.945312 43.671875 18.488281 43.671875 12.613281 C 43.671875 12.59375 43.628906 12.0625 39.835938 12.0625 C 38.035156 12.0625 36.070312 12.175781 34.894531 12.246094 C 34.453125 12.273438 34.132812 12.292969 33.96875 12.296875 C 32.179688 12.339844 29.316406 11.574219 26.550781 10.835938 C 23.925781 10.136719 21.210938 9.414062 19.519531 9.414062 C 18.859375 9.414062 18.394531 9.523438 18.128906 9.742188 Z M 33.21875 36.757812 C 33.152344 36.757812 33.089844 36.730469 33.046875 36.675781 C 31.652344 34.953125 28.761719 33.835938 25.679688 33.835938 C 23.734375 33.835938 22.054688 34.289062 20.949219 35.105469 C 20.871094 35.164062 20.769531 35.164062 20.691406 35.109375 C 20.613281 35.054688 20.582031 34.957031 20.609375 34.867188 C 21.316406 32.550781 23.839844 30.15625 26.832031 30.15625 C 27.105469 30.15625 27.378906 30.175781 27.652344 30.214844 C 31.40625 30.738281 33.710938 33.980469 33.433594 36.5625 C 33.425781 36.652344 33.363281 36.726562 33.28125 36.75 C 33.257812 36.757812 33.238281 36.757812 33.21875 36.757812 Z M 25.679688 33.398438 C 28.636719 33.398438 31.441406 34.402344 33.015625 35.988281 C 32.921875 33.710938 30.75 31.089844 27.59375 30.648438 C 27.339844 30.613281 27.085938 30.59375 26.832031 30.59375 C 24.085938 30.59375 22.0625 32.644531 21.261719 34.386719 C 22.410156 33.746094 23.949219 33.398438 25.679688 33.398438 Z M 34.398438 23.984375 C 33.175781 23.984375 31.738281 23.179688 31.382812 20.925781 C 31.367188 20.828125 31.421875 20.726562 31.515625 20.691406 C 31.609375 20.652344 31.71875 20.683594 31.777344 20.765625 C 32.355469 21.582031 33.5625 22.40625 34.75 22.40625 C 35.535156 22.40625 36.242188 22.058594 36.847656 21.375 C 36.914062 21.304688 37.011719 21.28125 37.101562 21.320312 C 37.1875 21.359375 37.238281 21.449219 37.230469 21.542969 C 37.089844 22.933594 35.871094 23.984375 34.398438 23.984375 Z M 32.023438 21.691406 C 32.503906 23.042969 33.519531 23.546875 34.398438 23.546875 C 35.253906 23.546875 36.203125 23.078125 36.605469 22.199219 C 36.046875 22.628906 35.425781 22.84375 34.75 22.84375 C 33.707031 22.84375 32.71875 22.320312 32.023438 21.691406 Z M 23.222656 22.253906 C 21.996094 22.253906 20.5625 21.449219 20.203125 19.195312 C 20.1875 19.097656 20.242188 18.996094 20.335938 18.960938 C 20.429688 18.921875 20.539062 18.953125 20.597656 19.035156 C 21.175781 19.851562 22.382812 20.675781 23.570312 20.675781 C 24.355469 20.675781 25.0625 20.328125 25.671875 19.644531 C 25.734375 19.574219 25.835938 19.550781 25.921875 19.589844 C 26.007812 19.628906 26.0625 19.71875 26.050781 19.8125 C 25.910156 21.203125 24.695312 22.253906 23.222656 22.253906 Z M 20.84375 19.960938 C 21.328125 21.3125 22.339844 21.816406 23.222656 21.816406 C 24.078125 21.816406 25.023438 21.347656 25.429688 20.46875 C 24.871094 20.898438 24.246094 21.113281 23.570312 21.113281 C 22.53125 21.113281 21.539062 20.589844 20.84375 19.960938 Z M 20.84375 19.960938 " fill-opacity="1" fill-rule="nonzero"/></g><path fill="#ffffff" d="M 27.5 28.542969 C 27.257812 28.542969 27.003906 28.5 26.792969 28.394531 C 26.554688 28.273438 26.269531 28.023438 26.269531 27.503906 C 26.269531 27.382812 26.367188 27.28125 26.488281 27.28125 C 26.609375 27.28125 26.707031 27.382812 26.707031 27.503906 C 26.707031 27.742188 26.789062 27.898438 26.972656 27.996094 C 27.355469 28.203125 28.007812 28.0625 28.113281 27.996094 C 28.210938 27.929688 28.347656 27.949219 28.417969 28.046875 C 28.484375 28.144531 28.46875 28.273438 28.371094 28.347656 C 28.25 28.4375 27.886719 28.542969 27.5 28.542969 Z M 39.328125 19.78125 C 39.277344 19.78125 39.230469 19.765625 39.1875 19.730469 C 38.5 19.164062 37.226562 18.78125 36.378906 18.714844 C 34.582031 18.566406 32.480469 17.578125 32.480469 15.273438 C 32.480469 15.152344 32.578125 15.054688 32.699219 15.054688 C 32.820312 15.054688 32.917969 15.152344 32.917969 15.273438 C 32.917969 17.28125 34.800781 18.144531 36.414062 18.277344 C 37.355469 18.355469 38.703125 18.761719 39.46875 19.394531 C 39.5625 19.472656 39.574219 19.609375 39.496094 19.703125 C 39.453125 19.753906 39.390625 19.78125 39.328125 19.78125 Z M 19.21875 17.667969 C 19.203125 17.667969 19.1875 17.664062 19.175781 17.660156 C 19.054688 17.640625 18.980469 17.523438 19 17.40625 C 19.125 16.773438 20.054688 16.433594 20.613281 16.226562 C 20.6875 16.199219 20.75 16.175781 20.800781 16.15625 C 21.648438 15.820312 22.480469 15.800781 23.285156 15.785156 C 24.65625 15.753906 25.734375 15.726562 26.425781 14.183594 C 26.476562 14.070312 26.605469 14.023438 26.714844 14.070312 C 26.824219 14.121094 26.875 14.25 26.828125 14.359375 C 26.023438 16.160156 24.699219 16.1875 23.296875 16.222656 C 22.53125 16.238281 21.738281 16.257812 20.964844 16.5625 C 20.910156 16.585938 20.839844 16.609375 20.765625 16.636719 C 20.355469 16.789062 19.507812 17.101562 19.433594 17.488281 C 19.410156 17.59375 19.320312 17.667969 19.21875 17.667969 Z M 19.21875 17.667969 " fill-opacity="1" fill-rule="nonzero"/><path fill="#fcc252" d="M 4.394531 1.855469 C 6.234375 0.0703125 16.257812 4.40625 20.425781 4.304688 C 21.53125 4.277344 30.351562 3.539062 30.351562 4.84375 C 30.351562 10.53125 28.035156 22.1875 24.230469 26.886719 C 20.175781 31.886719 13.226562 37.707031 9.859375 34.097656 C 0.0429688 23.570312 1.566406 15.1875 4.394531 1.855469 Z M 11.957031 14.164062 C 10.773438 11.457031 7.847656 12.171875 6.613281 13.089844 C 8.515625 9.359375 12.527344 11.519531 11.957031 14.164062 Z M 19.972656 24.160156 C 16.507812 26.5 8.773438 23.59375 7.644531 22.070312 C 7.644531 24.40625 9.390625 28.335938 12.949219 28.660156 C 16.59375 28.992188 19.511719 26.5625 19.972656 24.160156 Z M 23.125 15.964844 C 21.9375 13.257812 19.015625 13.972656 17.78125 14.894531 C 19.679688 11.164062 23.695312 13.324219 23.125 15.964844 Z M 23.125 15.964844 " fill-opacity="1" fill-rule="evenodd"/><path fill="#0066ff" d="M 12.488281 35.441406 C 11.375 35.441406 10.4375 35.039062 9.699219 34.246094 C 5.023438 29.234375 2.699219 24.546875 2.167969 19.050781 C 1.6875 14.105469 2.652344 9.011719 4.179688 1.808594 C 4.1875 1.765625 4.210938 1.726562 4.242188 1.699219 C 4.582031 1.367188 5.152344 1.203125 5.984375 1.203125 C 7.730469 1.203125 10.472656 1.9375 13.125 2.644531 C 15.863281 3.375 18.691406 4.132812 20.421875 4.085938 C 20.578125 4.082031 20.894531 4.0625 21.332031 4.039062 C 22.511719 3.96875 24.484375 3.855469 26.296875 3.855469 C 30.0625 3.855469 30.570312 4.355469 30.570312 4.84375 C 30.570312 10.78125 28.167969 22.375 24.398438 27.023438 C 21.253906 30.90625 16.246094 35.441406 12.488281 35.441406 Z M 4.59375 1.96875 C 1.871094 14.808594 0.09375 23.304688 10.019531 33.949219 C 10.671875 34.648438 11.503906 35.003906 12.488281 35.003906 C 15.859375 35.003906 20.730469 30.855469 24.058594 26.746094 C 27.769531 22.171875 30.132812 10.71875 30.132812 4.84375 C 30.132812 4.820312 30.089844 4.292969 26.296875 4.292969 C 24.5 4.292969 22.53125 4.40625 21.359375 4.476562 C 20.914062 4.5 20.597656 4.519531 20.433594 4.523438 C 18.636719 4.566406 15.78125 3.804688 13.011719 3.066406 C 10.390625 2.367188 7.675781 1.640625 5.984375 1.640625 C 5.324219 1.640625 4.855469 1.753906 4.59375 1.96875 Z M 13.621094 28.910156 C 13.390625 28.910156 13.160156 28.898438 12.929688 28.878906 C 9.339844 28.550781 7.425781 24.714844 7.425781 22.070312 C 7.425781 21.972656 7.488281 21.890625 7.578125 21.859375 C 7.667969 21.832031 7.765625 21.863281 7.820312 21.9375 C 8.625 23.023438 12.996094 24.820312 16.464844 24.820312 C 16.464844 24.820312 16.464844 24.820312 16.46875 24.820312 C 17.886719 24.820312 19.023438 24.535156 19.851562 23.976562 C 19.925781 23.929688 20.019531 23.929688 20.09375 23.976562 C 20.167969 24.027344 20.207031 24.113281 20.1875 24.199219 C 19.75 26.464844 17.117188 28.910156 13.621094 28.910156 Z M 7.894531 22.621094 C 8.140625 25.003906 9.921875 28.164062 12.96875 28.441406 C 13.183594 28.460938 13.402344 28.472656 13.621094 28.472656 C 16.632812 28.472656 18.960938 26.554688 19.625 24.617188 C 18.785156 25.042969 17.726562 25.257812 16.46875 25.257812 C 16.464844 25.257812 16.464844 25.257812 16.464844 25.257812 C 13.222656 25.257812 9.335938 23.777344 7.894531 22.621094 Z M 23.125 16.183594 C 23.039062 16.183594 22.960938 16.132812 22.921875 16.054688 C 22.285156 14.59375 21.152344 14.285156 20.3125 14.285156 C 19.316406 14.285156 18.394531 14.707031 17.910156 15.070312 C 17.828125 15.128906 17.714844 15.125 17.640625 15.058594 C 17.5625 14.996094 17.539062 14.882812 17.585938 14.792969 C 18.523438 12.953125 19.832031 12.675781 20.53125 12.675781 C 21.390625 12.675781 22.238281 13.085938 22.789062 13.773438 C 23.316406 14.421875 23.507812 15.21875 23.339844 16.011719 C 23.316406 16.105469 23.242188 16.171875 23.144531 16.183594 C 23.140625 16.183594 23.132812 16.183594 23.125 16.183594 Z M 20.3125 13.847656 C 21.421875 13.847656 22.335938 14.320312 22.945312 15.195312 C 22.894531 14.785156 22.726562 14.394531 22.449219 14.046875 C 21.976562 13.464844 21.261719 13.113281 20.53125 13.113281 C 19.726562 13.113281 19 13.519531 18.425781 14.265625 C 18.957031 14.027344 19.613281 13.847656 20.3125 13.847656 Z M 11.957031 14.382812 C 11.871094 14.382812 11.792969 14.332031 11.757812 14.25 C 11.117188 12.789062 9.984375 12.484375 9.148438 12.484375 C 8.152344 12.484375 7.230469 12.90625 6.746094 13.265625 C 6.664062 13.328125 6.550781 13.324219 6.472656 13.257812 C 6.394531 13.191406 6.371094 13.082031 6.417969 12.992188 C 7.355469 11.148438 8.667969 10.875 9.363281 10.875 C 10.226562 10.875 11.070312 11.285156 11.625 11.972656 C 12.148438 12.621094 12.34375 13.417969 12.171875 14.210938 C 12.152344 14.300781 12.074219 14.371094 11.980469 14.378906 C 11.972656 14.382812 11.964844 14.382812 11.957031 14.382812 Z M 9.148438 12.046875 C 10.257812 12.046875 11.167969 12.519531 11.777344 13.394531 C 11.730469 12.984375 11.5625 12.589844 11.285156 12.246094 C 10.8125 11.660156 10.09375 11.3125 9.363281 11.3125 C 8.5625 11.3125 7.835938 11.714844 7.261719 12.464844 C 7.792969 12.226562 8.449219 12.046875 9.148438 12.046875 Z M 9.148438 12.046875 " fill-opacity="1" fill-rule="nonzero"/><path fill="#0066ff" d="M 13.78125 22.230469 C 13.539062 22.230469 13.289062 22.191406 13.078125 22.082031 C 12.835938 21.964844 12.550781 21.710938 12.550781 21.191406 C 12.550781 21.070312 12.648438 20.972656 12.769531 20.972656 C 12.890625 20.972656 12.988281 21.070312 12.988281 21.191406 C 12.988281 21.429688 13.074219 21.585938 13.257812 21.683594 C 13.640625 21.890625 14.292969 21.75 14.398438 21.683594 C 14.496094 21.617188 14.632812 21.640625 14.699219 21.738281 C 14.769531 21.832031 14.75 21.964844 14.65625 22.035156 C 14.53125 22.128906 14.171875 22.230469 13.78125 22.230469 Z M 23.992188 10.902344 C 23.9375 10.902344 23.886719 10.882812 23.84375 10.847656 C 23.410156 10.453125 23.054688 10.160156 22.410156 10 C 21.34375 9.734375 20.824219 9.847656 19.890625 10.167969 C 19.777344 10.207031 19.652344 10.144531 19.613281 10.03125 C 19.574219 9.914062 19.636719 9.792969 19.75 9.753906 C 20.78125 9.398438 21.394531 9.296875 22.515625 9.574219 C 23.261719 9.761719 23.675781 10.097656 24.140625 10.523438 C 24.226562 10.605469 24.234375 10.742188 24.152344 10.832031 C 24.109375 10.878906 24.050781 10.902344 23.992188 10.902344 Z M 11.949219 9.117188 C 11.863281 9.117188 11.785156 9.070312 11.75 8.988281 C 11.425781 8.292969 9.109375 8.105469 8.285156 8.449219 C 8.203125 8.480469 8.140625 8.488281 8.085938 8.496094 C 8.03125 8.503906 8 8.507812 7.941406 8.542969 C 7.835938 8.601562 7.703125 8.570312 7.640625 8.464844 C 7.578125 8.359375 7.613281 8.226562 7.71875 8.164062 C 7.851562 8.085938 7.953125 8.070312 8.027344 8.0625 C 8.070312 8.058594 8.089844 8.054688 8.117188 8.042969 C 9.058594 7.648438 11.683594 7.808594 12.144531 8.804688 C 12.195312 8.914062 12.148438 9.046875 12.039062 9.097656 C 12.007812 9.109375 11.976562 9.117188 11.949219 9.117188 Z M 11.949219 9.117188 " fill-opacity="1" fill-rule="nonzero"/><path stroke-linecap="butt" transform="matrix(0.744485, 0, 0, 0.744485, 30.736183, 46.291457)" fill="none" stroke-linejoin="miter" d="M -0.00242879 2.001105 L 46.243869 2.001105 " stroke="#1c1f23" stroke-width="4" stroke-opacity="1" stroke-miterlimit="4"/><path stroke-linecap="round" transform="matrix(0.744485, 0, 0, 0.744485, 30.736183, 46.291457)" fill="none" stroke-linejoin="round" d="M 38.242326 -4.001364 L 46.243869 2.001105 L 38.242326 7.998328 " stroke="#1c1f23" stroke-width="4" stroke-opacity="1" stroke-miterlimit="4"/></svg>