<svg xmlns="http://www.w3.org/2000/svg" xmlns:xlink="http://www.w3.org/1999/xlink" width="22" zoomAndPan="magnify" viewBox="0 0 16.5 23.25" height="31" preserveAspectRatio="xMidYMid meet" version="1.0"><defs><clipPath id="5876c1791e"><path d="M 0.015625 0 L 16 0 L 16 18.890625 L 0.015625 18.890625 Z M 0.015625 0 " clip-rule="nonzero"/></clipPath><clipPath id="b2d5191326"><path d="M 2 5 L 13 5 L 13 18.890625 L 2 18.890625 Z M 2 5 " clip-rule="nonzero"/></clipPath><clipPath id="015e54a045"><path d="M 1 21 L 15 21 L 15 22.523438 L 1 22.523438 Z M 1 21 " clip-rule="nonzero"/></clipPath></defs><g clip-path="url(#5876c1791e)"><path fill="#545454" d="M 8.121094 18.933594 C 8.121094 18.933594 4.875 18.601562 2.515625 15.316406 C 2.515625 15.316406 1.214844 13.414062 0.015625 12.546875 C 0.015625 12.546875 1.335938 12.5625 2.199219 13.214844 C 2.199219 13.214844 1.214844 12.171875 2.308594 9.03125 C 2.308594 9.03125 2.289062 10.4375 2.828125 11.285156 C 2.828125 11.285156 2.433594 9.320312 5.101562 6.878906 C 5.101562 6.878906 4.480469 8.699219 5.472656 9.960938 C 5.472656 9.960938 4.707031 3.984375 10.292969 0.015625 C 10.292969 0.015625 8.097656 2.539062 9.730469 4.359375 C 9.730469 4.359375 11.613281 6.902344 11.863281 9.195312 C 11.863281 9.195312 11.921875 10.269531 12.460938 10.519531 C 13 10.765625 13.949219 7.894531 12.875 5.246094 C 12.875 5.246094 14.609375 6.425781 14.777344 9.878906 C 14.941406 13.332031 14.714844 14.011719 14.714844 14.011719 C 14.714844 14.011719 15.292969 13.621094 15.375 12.070312 C 15.375 12.070312 15.933594 13.394531 15.6875 14.386719 C 15.4375 15.378906 13.0625 19.140625 8.121094 18.933594 Z M 8.121094 18.933594 " fill-opacity="1" fill-rule="evenodd"/></g><g clip-path="url(#b2d5191326)"><path fill="#e4e4e0" d="M 8.160156 18.601562 C 8.160156 18.601562 5.824219 18.582031 4.089844 16.203125 C 4.089844 16.203125 3.179688 14.757812 2.433594 14.34375 C 2.433594 14.34375 3.074219 14.179688 3.859375 14.714844 C 3.859375 14.714844 3.324219 13.804688 3.945312 11.964844 C 3.945312 11.964844 4.089844 13.105469 4.296875 13.433594 C 4.296875 13.433594 4.316406 11.59375 5.824219 10.519531 C 5.824219 10.519531 5.535156 11.964844 6.03125 12.460938 C 6.03125 12.460938 6.074219 7.542969 9.257812 5.867188 C 9.257812 5.867188 8.222656 7.109375 8.59375 8.140625 C 8.96875 9.175781 10.105469 9.941406 10.207031 11.304688 C 10.3125 12.667969 10.785156 12.917969 10.785156 12.917969 C 10.785156 12.917969 12.027344 12.109375 11.035156 9.382812 C 11.035156 9.382812 12.335938 10.269531 12.316406 12.109375 C 12.316406 12.109375 12.585938 14.242188 11.921875 14.984375 C 11.921875 14.984375 12.667969 15.234375 12.832031 14.035156 C 12.832031 14.035156 13.371094 15.296875 12.480469 16.554688 C 11.59375 17.816406 9.816406 18.539062 8.160156 18.601562 Z M 8.160156 18.601562 " fill-opacity="1" fill-rule="evenodd"/></g><path fill="#ffffff" d="M 6.175781 14.054688 C 6.175781 14.054688 5.617188 15.707031 6.507812 15.398438 C 7.394531 15.089844 8.347656 11.71875 7.808594 11.097656 C 7.808594 11.097656 9.296875 12.421875 8.78125 14.28125 C 7.964844 17.226562 11.761719 14.492188 10.1875 13.703125 C 11.367188 13.933594 11.792969 16.382812 10.953125 16.929688 C 8.4375 18.5625 2.632812 17.457031 6.175781 14.054688 Z M 6.175781 14.054688 " fill-opacity="1" fill-rule="evenodd"/><g clip-path="url(#015e54a045)"><path stroke-linecap="butt" transform="matrix(0.726562, 0, 0, 0.726562, 1.564097, 21.303994)" fill="none" stroke-linejoin="miter" d="M -0.00219812 0.500954 L 17.659093 0.500954 " stroke="#ffffff" stroke-width="1" stroke-opacity="1" stroke-miterlimit="4"/></g></svg>