<svg xmlns="http://www.w3.org/2000/svg" xmlns:xlink="http://www.w3.org/1999/xlink" width="89" zoomAndPan="magnify" viewBox="0 0 66.75 55.5" height="74" preserveAspectRatio="xMidYMid meet" version="1.0"><defs><clipPath id="ad891d4f2b"><path d="M 0.175781 0 L 41.800781 0 L 41.800781 47.570312 L 0.175781 47.570312 Z M 0.175781 0 " clip-rule="nonzero"/></clipPath></defs><g clip-path="url(#ad891d4f2b)"><path fill="#08a4c5" d="M 40.234375 7.808594 C 35.5 7.386719 26.601562 4.644531 22.886719 0.792969 C 22.402344 0.289062 21.710938 0 20.988281 0 C 20.269531 0 19.578125 0.289062 19.089844 0.792969 C 15.375 4.644531 6.476562 7.386719 1.742188 7.808594 C 0.886719 7.882812 0.214844 8.628906 0.214844 9.507812 L 0.214844 20.121094 C 0.214844 29.871094 5.445312 38.957031 13.867188 43.832031 L 19.75 47.238281 C 20.132812 47.460938 20.558594 47.570312 20.988281 47.570312 C 21.417969 47.570312 21.84375 47.460938 22.226562 47.238281 L 28.109375 43.832031 C 36.53125 38.957031 41.761719 29.871094 41.761719 20.121094 L 41.761719 9.507812 C 41.761719 8.628906 41.089844 7.882812 40.234375 7.808594 " fill-opacity="1" fill-rule="nonzero"/></g><path fill="#a9fafa" d="M 39.800781 10.183594 C 39.800781 9.910156 39.59375 9.675781 39.320312 9.640625 C 34.34375 9.03125 25.523438 6.292969 21.511719 2.132812 C 21.257812 1.867188 20.742188 1.855469 20.46875 2.128906 C 16.460938 6.285156 7.613281 9.03125 2.613281 9.65625 C 2.335938 9.691406 2.132812 9.925781 2.132812 10.203125 L 2.132812 20.121094 C 2.132812 29.1875 6.996094 37.636719 14.824219 42.167969 C 20.839844 45.652344 20.839844 45.652344 20.988281 45.652344 C 21.085938 45.652344 21.179688 45.625 21.261719 45.578125 L 27.152344 42.167969 C 34.984375 37.636719 39.847656 29.1875 39.847656 20.121094 L 39.800781 10.183594 " fill-opacity="1" fill-rule="nonzero"/><path fill="#23b5cb" d="M 16.195312 39.792969 C 9.207031 35.746094 4.867188 28.210938 4.867188 20.121094 L 4.867188 13.183594 C 4.867188 12.550781 5.300781 11.996094 5.917969 11.863281 C 10.289062 10.914062 16.089844 8.941406 20.171875 5.980469 C 20.664062 5.625 21.3125 5.625 21.804688 5.980469 C 25.890625 8.949219 31.675781 10.914062 36.027344 11.855469 C 36.640625 11.988281 37.074219 12.539062 37.078125 13.167969 L 37.109375 20.132812 C 37.109375 28.210938 32.769531 35.746094 25.785156 39.792969 L 21.664062 42.175781 C 21.246094 42.417969 20.734375 42.417969 20.320312 42.179688 C 18.585938 41.175781 16.195312 39.792969 16.195312 39.792969 " fill-opacity="1" fill-rule="nonzero"/><path fill="#08a4c5" d="M 36.027344 11.855469 C 31.675781 10.914062 25.890625 8.949219 21.804688 5.980469 C 21.558594 5.800781 21.273438 5.710938 20.988281 5.710938 L 20.988281 42.359375 C 21.222656 42.359375 21.453125 42.296875 21.664062 42.175781 L 25.785156 39.792969 C 32.769531 35.746094 37.109375 28.210938 37.109375 20.132812 L 37.078125 13.167969 C 37.074219 12.539062 36.640625 11.988281 36.027344 11.855469 " fill-opacity="1" fill-rule="nonzero"/><path fill="#41bfd2" d="M 20.988281 5.710938 C 21.070312 8.765625 21.128906 11.820312 21.15625 14.875 L 21.207031 24.035156 L 21.15625 33.195312 C 21.128906 36.25 21.070312 39.304688 20.988281 42.359375 C 20.90625 39.304688 20.851562 36.25 20.820312 33.195312 L 20.769531 24.035156 L 20.820312 14.875 C 20.851562 11.820312 20.910156 8.765625 20.988281 5.710938 " fill-opacity="1" fill-rule="nonzero"/><path fill="#0098c3" d="M 37.109375 20.132812 L 37.078125 13.167969 C 37.078125 12.902344 36.984375 12.660156 36.847656 12.445312 C 37.675781 31.597656 20.988281 42.359375 20.988281 42.359375 C 21.222656 42.359375 21.453125 42.296875 21.664062 42.175781 L 25.785156 39.792969 C 32.769531 35.746094 37.109375 28.210938 37.109375 20.132812 " fill-opacity="1" fill-rule="nonzero"/><path fill="#66d8e3" d="M 6.613281 13.714844 C 6.332031 13.714844 6.097656 13.503906 6.066406 13.21875 C 6.039062 12.917969 6.261719 12.648438 6.5625 12.621094 C 6.636719 12.613281 14.261719 11.84375 19.214844 7.871094 C 19.316406 7.789062 19.4375 7.75 19.554688 7.75 C 19.714844 7.75 19.875 7.820312 19.984375 7.957031 C 20.171875 8.195312 20.132812 8.539062 19.898438 8.730469 C 14.6875 12.90625 6.988281 13.683594 6.664062 13.714844 C 6.648438 13.714844 6.628906 13.714844 6.613281 13.714844 " fill-opacity="1" fill-rule="nonzero"/><path stroke-linecap="butt" transform="matrix(0.743304, 0, 0, 0.743304, 29.807422, 47.501942)" fill="none" stroke-linejoin="miter" d="M 0.00157673 1.99964 L 46.24257 1.99964 " stroke="#1c1f23" stroke-width="4" stroke-opacity="1" stroke-miterlimit="4"/><path stroke-linecap="round" transform="matrix(0.743304, 0, 0, 0.743304, 29.807422, 47.501942)" fill="none" stroke-linejoin="round" d="M 38.244071 -4.001862 L 46.24257 1.99964 L 38.244071 8.001141 " stroke="#1c1f23" stroke-width="4" stroke-opacity="1" stroke-miterlimit="4"/></svg>