<svg xmlns="http://www.w3.org/2000/svg" xmlns:xlink="http://www.w3.org/1999/xlink" width="91" zoomAndPan="magnify" viewBox="0 0 68.25 56.249996" height="75" preserveAspectRatio="xMidYMid meet" version="1.0"><defs><clipPath id="a8a1f636bb"><path d="M 0.078125 0 L 45.226562 0 L 45.226562 47.367188 L 0.078125 47.367188 Z M 0.078125 0 " clip-rule="nonzero"/></clipPath></defs><g clip-path="url(#a8a1f636bb)"><path fill="#0066ff" d="M 31.609375 10.519531 C 31.753906 10.515625 31.902344 10.515625 32.054688 10.515625 C 33.527344 10.519531 34.898438 10.714844 36.242188 11.328125 C 36.347656 11.371094 36.449219 11.417969 36.554688 11.464844 C 37.492188 11.902344 38.308594 12.449219 39.101562 13.113281 C 39.199219 13.191406 39.296875 13.273438 39.394531 13.355469 C 40.238281 14.121094 40.820312 15.125 41.359375 16.121094 L 41.359375 16.421875 C 40.714844 16.472656 40.066406 16.523438 39.402344 16.574219 C 40.195312 16.96875 40.992188 17.367188 41.808594 17.777344 C 41.917969 20.96875 41.132812 23.21875 39.710938 26.027344 C 39.222656 27 38.75 27.980469 38.300781 28.976562 C 38.253906 29.082031 38.203125 29.191406 38.15625 29.304688 C 37.820312 30.058594 37.546875 30.828125 37.296875 31.617188 C 36.675781 31.398438 36.183594 31.082031 35.640625 30.714844 C 35.730469 30.84375 35.824219 30.976562 35.914062 31.109375 C 36.03125 31.285156 36.148438 31.460938 36.261719 31.636719 C 36.324219 31.722656 36.382812 31.808594 36.445312 31.894531 C 36.742188 32.355469 36.859375 32.589844 36.761719 33.140625 C 36.03125 34.601562 34.949219 35.980469 33.386719 36.582031 C 33.066406 36.652344 32.714844 36.699219 32.332031 36.730469 C 32.214844 36.742188 32.101562 36.753906 31.980469 36.765625 C 30.332031 36.859375 28.511719 36.304688 27.183594 35.320312 C 26.449219 34.652344 25.914062 33.835938 25.824219 32.835938 C 25.832031 31.082031 26.347656 29.914062 27.585938 28.65625 C 27.929688 28.320312 28.289062 28.023438 28.664062 27.722656 C 29.398438 27.105469 29.882812 26.324219 29.980469 25.363281 C 30.101562 24.695312 30.410156 24.40625 30.875 23.929688 C 31.125 23.644531 31.277344 23.386719 31.429688 23.042969 C 31.351562 23.085938 31.269531 23.132812 31.1875 23.179688 C 31.082031 23.234375 30.976562 23.292969 30.867188 23.351562 C 30.761719 23.410156 30.65625 23.46875 30.546875 23.527344 C 30.15625 23.667969 30.003906 23.664062 29.625 23.492188 C 29.46875 23.324219 29.316406 23.128906 29.164062 22.910156 C 28.730469 22.320312 28.261719 21.824219 27.734375 21.320312 C 27.003906 20.605469 26.472656 19.894531 26.015625 18.980469 C 25.964844 18.882812 25.914062 18.785156 25.867188 18.683594 C 25.273438 17.402344 25.191406 15.789062 25.539062 14.425781 C 26.148438 12.824219 27.097656 11.816406 28.613281 11.035156 C 29.648438 10.582031 30.492188 10.507812 31.609375 10.519531 Z M 17.136719 23.191406 C 17.273438 23.414062 17.375 23.613281 17.4375 23.792969 C 17.242188 24.09375 17.042969 24.390625 16.835938 24.695312 C 17 24.589844 17.160156 24.484375 17.328125 24.378906 C 17.507812 24.257812 17.699219 24.164062 17.890625 24.09375 C 18.398438 24.253906 18.617188 24.511719 18.886719 24.960938 C 18.949219 25.058594 19.007812 25.15625 19.070312 25.257812 C 19.71875 26.535156 19.773438 27.957031 19.386719 29.320312 C 18.695312 31.035156 17.632812 32.257812 16.253906 33.445312 C 15.398438 34.191406 15.078125 34.835938 14.984375 35.941406 C 14.996094 36.65625 15.238281 37.199219 15.632812 37.785156 C 15.773438 37.917969 15.914062 38.050781 16.058594 38.1875 C 16.277344 38.421875 16.386719 38.660156 16.386719 38.902344 C 16.210938 39.347656 16.011719 39.769531 15.785156 40.191406 C 15.863281 40.132812 15.945312 40.078125 16.027344 40.015625 C 16.132812 39.945312 16.238281 39.871094 16.347656 39.796875 C 16.453125 39.722656 16.558594 39.648438 16.664062 39.574219 C 16.878906 39.484375 17.089844 39.472656 17.296875 39.535156 C 18.238281 40.195312 18.9375 41.191406 19.246094 42.296875 C 19.390625 43.390625 19.226562 44.261719 18.566406 45.164062 C 17.5625 46.390625 16.429688 46.886719 14.882812 47.113281 C 13.179688 47.210938 12.125 47.164062 11.722656 46.960938 C 11.773438 46.414062 11.820312 45.867188 11.871094 45.304688 C 11.476562 45.652344 11.078125 46 10.667969 46.359375 C 8.792969 45.449219 8.078125 43.242188 7.433594 41.40625 C 7.375 41.234375 7.316406 41.0625 7.257812 40.890625 C 6.992188 40.15625 6.675781 39.445312 6.355469 38.738281 C 6.144531 38.265625 5.980469 37.835938 5.855469 37.332031 C 6.351562 37.183594 6.847656 37.035156 7.359375 36.882812 L 7.359375 36.730469 C 7.234375 36.699219 7.109375 36.667969 6.980469 36.636719 C 6.816406 36.597656 6.652344 36.558594 6.484375 36.515625 C 6.324219 36.476562 6.160156 36.433594 5.992188 36.394531 C 5.414062 36.246094 5.023438 35.992188 4.8125 35.640625 C 4.707031 35.433594 4.601562 35.222656 4.5 35.011719 C 4.449219 34.898438 4.394531 34.789062 4.339844 34.675781 C 4.191406 34.359375 4.042969 34.042969 3.898438 33.722656 C 3.839844 33.59375 3.78125 33.464844 3.722656 33.335938 C 3.089844 31.652344 3.246094 29.339844 3.847656 27.679688 C 4.335938 26.648438 5.007812 25.761719 5.855469 24.996094 C 5.929688 24.917969 6.007812 24.84375 6.085938 24.761719 C 6.742188 24.121094 7.457031 23.703125 8.273438 23.296875 C 8.375 23.246094 8.472656 23.195312 8.578125 23.140625 C 11.011719 21.964844 14.808594 21.59375 17.136719 23.191406 Z M 29.503906 0.503906 C 29.96875 0.804688 30.324219 1.101562 30.675781 1.53125 C 30.675781 2.21875 30.574219 2.332031 30.152344 2.847656 C 30.054688 2.964844 29.957031 3.085938 29.855469 3.210938 C 29.777344 3.300781 29.703125 3.390625 29.625 3.484375 C 29.730469 3.441406 29.835938 3.398438 29.941406 3.355469 C 30.078125 3.296875 30.214844 3.242188 30.359375 3.183594 C 30.492188 3.128906 30.628906 3.074219 30.769531 3.015625 C 31.007812 2.925781 31.230469 2.882812 31.429688 2.882812 C 31.769531 4.285156 31.8125 6.054688 31.179688 7.375 C 30.65625 8.214844 30.066406 8.90625 29.171875 9.351562 C 28.277344 9.511719 27.429688 9.472656 26.632812 9.015625 C 25.679688 8.285156 25.128906 7.066406 24.960938 5.890625 C 24.839844 4.121094 25.03125 2.75 26.1875 1.367188 C 27.105469 0.410156 28.230469 0.03125 29.503906 0.503906 Z M 16.808594 12.492188 C 16.957031 12.496094 17.105469 12.5 17.253906 12.5 C 17.363281 12.503906 17.476562 12.507812 17.589844 12.511719 C 17.75 13.167969 17.6875 13.53125 17.4375 14.167969 C 17.785156 13.917969 18.132812 13.667969 18.492188 13.414062 C 19.027344 13.628906 19.226562 13.859375 19.5 14.363281 C 19.5625 14.476562 19.625 14.59375 19.6875 14.710938 C 20.207031 15.882812 20.191406 17.566406 19.894531 18.808594 C 19.507812 19.738281 18.898438 20.5 18.078125 21.078125 C 17.261719 21.34375 16.515625 21.429688 15.714844 21.070312 C 14.546875 20.34375 13.902344 19.398438 13.527344 18.078125 C 13.457031 17.613281 13.441406 17.15625 13.445312 16.6875 C 13.445312 16.5625 13.445312 16.4375 13.445312 16.308594 C 13.476562 15.207031 13.75 14.300781 14.429688 13.414062 C 15.179688 12.726562 15.796875 12.46875 16.808594 12.492188 Z M 35.492188 3.636719 C 36.113281 4.023438 36.609375 4.433594 36.84375 5.140625 C 36.976562 6.332031 36.945312 7.226562 36.1875 8.1875 C 35.667969 8.746094 35.277344 8.925781 34.523438 8.96875 C 33.84375 8.941406 33.449219 8.753906 32.933594 8.300781 C 32.359375 7.507812 32.207031 6.710938 32.332031 5.742188 C 32.621094 4.851562 33.085938 4.324219 33.835938 3.785156 C 34.371094 3.519531 34.910156 3.519531 35.492188 3.636719 Z M 10.820312 15.519531 C 11.539062 15.820312 12.179688 16.265625 12.53125 16.980469 C 12.777344 17.878906 12.875 18.957031 12.433594 19.796875 C 12.046875 20.253906 11.707031 20.605469 11.09375 20.671875 C 10.460938 20.6875 10.007812 20.675781 9.417969 20.417969 C 8.667969 19.703125 8.222656 18.953125 8.1875 17.898438 C 8.234375 17.046875 8.457031 16.503906 9.097656 15.925781 C 9.710938 15.5 10.066406 15.449219 10.820312 15.519531 Z M 6.757812 18.378906 C 7.414062 18.742188 7.710938 19.183594 7.960938 19.882812 C 8.046875 20.542969 8.039062 21.066406 7.765625 21.679688 C 7.472656 22.035156 7.21875 22.257812 6.757812 22.351562 C 6.066406 22.378906 5.652344 22.324219 5.113281 21.875 C 4.574219 21.371094 4.308594 20.878906 4.277344 20.136719 C 4.296875 19.460938 4.484375 19.050781 4.957031 18.566406 C 5.53125 18.203125 6.109375 18.242188 6.757812 18.378906 Z M 39.554688 6.492188 C 39.460938 7.09375 39.144531 7.507812 38.800781 8 C 38.894531 7.945312 38.984375 7.890625 39.082031 7.832031 C 39.203125 7.765625 39.324219 7.695312 39.449219 7.621094 C 39.570312 7.550781 39.691406 7.484375 39.816406 7.410156 C 40.042969 7.300781 40.304688 7.246094 40.605469 7.246094 C 40.957031 7.796875 40.960938 8.257812 40.90625 8.902344 C 40.601562 9.753906 40.066406 10.300781 39.253906 10.707031 C 38.554688 10.769531 38.152344 10.691406 37.597656 10.253906 C 37.171875 9.738281 37.066406 9.289062 37.09375 8.617188 C 37.226562 7.8125 37.570312 7.25 38.179688 6.71875 C 38.6875 6.476562 39 6.441406 39.554688 6.492188 Z M 42.710938 9.953125 C 42.964844 10.15625 43.164062 10.355469 43.3125 10.554688 C 43.265625 10.703125 43.214844 10.855469 43.164062 11.007812 C 42.957031 11.078125 42.757812 11.125 42.5625 11.15625 L 42.5625 11.457031 C 42.859375 11.410156 43.15625 11.359375 43.464844 11.308594 C 43.4375 11.984375 43.382812 12.285156 42.917969 12.792969 C 42.355469 13.148438 42.023438 13.277344 41.359375 13.265625 C 41.070312 13.125 40.820312 12.925781 40.605469 12.660156 C 40.398438 11.988281 40.402344 11.464844 40.632812 10.800781 C 41.191406 9.992188 41.746094 9.765625 42.710938 9.953125 Z M 3.75 21.6875 C 4.261719 22.011719 4.617188 22.308594 4.800781 22.890625 C 4.871094 23.527344 4.875 23.835938 4.519531 24.378906 C 4.117188 24.78125 3.984375 24.835938 3.410156 24.902344 C 2.65625 24.828125 2.457031 24.644531 1.945312 24.09375 C 1.855469 23.8125 1.804688 23.5625 1.792969 23.34375 C 2.042969 23.242188 2.289062 23.144531 2.546875 23.042969 L 2.546875 22.890625 C 2.296875 22.84375 2.050781 22.792969 1.792969 22.742188 C 1.839844 22.304688 1.894531 22.046875 2.179688 21.707031 C 2.71875 21.457031 3.195312 21.523438 3.75 21.6875 Z M 1.171875 24.914062 C 1.753906 25.019531 2.085938 25.234375 2.546875 25.597656 C 2.921875 26.164062 2.925781 26.4375 2.847656 27.105469 C 2.476562 27.613281 2.265625 27.824219 1.644531 27.941406 C 0.984375 27.816406 0.621094 27.515625 0.242188 26.972656 C 0.101562 26.53125 0.0820312 26.210938 0.140625 25.75 C 0.433594 25.230469 0.578125 25.027344 1.171875 24.914062 Z M 44.515625 13.414062 C 44.769531 13.621094 44.96875 13.871094 45.121094 14.167969 C 45.128906 14.789062 45.007812 15.230469 44.660156 15.738281 C 44.3125 16.035156 43.964844 16.195312 43.605469 16.214844 C 43.210938 16.152344 42.886719 16.046875 42.636719 15.898438 C 42.324219 15.375 42.273438 14.902344 42.410156 14.316406 C 43.050781 13.523438 43.5 13.308594 44.515625 13.414062 Z M 44.515625 13.414062 " fill-opacity="1" fill-rule="nonzero"/></g><path stroke-linecap="butt" transform="matrix(0.740131, 0, 0, 0.740131, 31.215891, 47.445601)" fill="none" stroke-linejoin="miter" d="M -0.00141559 1.999888 L 46.242478 1.999888 " stroke="#1c1f23" stroke-width="4" stroke-opacity="1" stroke-miterlimit="4"/><path stroke-linecap="round" transform="matrix(0.740131, 0, 0, 0.740131, 31.215891, 47.445601)" fill="none" stroke-linejoin="round" d="M 38.241366 -4.000946 L 46.242478 1.999888 L 38.241366 8.000722 " stroke="#1c1f23" stroke-width="4" stroke-opacity="1" stroke-miterlimit="4"/></svg>