<svg xmlns="http://www.w3.org/2000/svg" xmlns:xlink="http://www.w3.org/1999/xlink" width="42" zoomAndPan="magnify" viewBox="0 0 31.5 13.5" height="18" preserveAspectRatio="xMidYMid meet" version="1.0"><defs><clipPath id="111279818f"><path d="M 0.320312 0 L 13.261719 0 L 13.261719 12.9375 L 0.320312 12.9375 Z M 0.320312 0 " clip-rule="nonzero"/></clipPath><clipPath id="abf32aea22"><path d="M 0.316406 6.464844 L 6.789062 12.9375 L 6.789062 9.703125 L 13.261719 9.703125 L 13.261719 3.230469 L 6.789062 3.230469 L 6.789062 -0.0078125 Z M 0.316406 6.464844 " clip-rule="nonzero"/></clipPath><clipPath id="e7638bfbcb"><path d="M 0.320312 0 L 13.261719 0 L 13.261719 12.9375 L 0.320312 12.9375 Z M 0.320312 0 " clip-rule="nonzero"/></clipPath><clipPath id="c9de113fbc"><path d="M 0.316406 6.464844 L 6.789062 12.9375 L 6.789062 9.703125 L 13.261719 9.703125 L 13.261719 3.230469 L 6.789062 3.230469 L 6.789062 -0.0078125 Z M 0.316406 6.464844 " clip-rule="nonzero"/></clipPath><clipPath id="0932755a03"><rect x="0" width="14" y="0" height="13"/></clipPath><clipPath id="551f155d42"><path d="M 15 5 L 30.695312 5 L 30.695312 9 L 15 9 Z M 15 5 " clip-rule="nonzero"/></clipPath></defs><g clip-path="url(#111279818f)"><g clip-path="url(#abf32aea22)"><g><g clip-path="url(#0932755a03)"><g clip-path="url(#e7638bfbcb)"><g clip-path="url(#c9de113fbc)"><path fill="#e4e4e0" d="M 13.261719 12.9375 L 0.316406 12.9375 L 0.316406 -0.0078125 L 13.261719 -0.0078125 Z M 13.261719 12.9375 " fill-opacity="1" fill-rule="nonzero"/></g></g></g></g></g></g><g clip-path="url(#551f155d42)"><path stroke-linecap="butt" transform="matrix(0.723214, -0.000000000000002242, 0.000000000000002242, 0.723214, 17.229788, 5.174611)" fill="none" stroke-linejoin="miter" d="M 0.000941789 2.000075 L 18.429955 2.000075 " stroke="#1c1f23" stroke-width="4" stroke-opacity="1" stroke-miterlimit="4"/></g></svg>