<svg xmlns="http://www.w3.org/2000/svg" xmlns:xlink="http://www.w3.org/1999/xlink" width="90" zoomAndPan="magnify" viewBox="0 0 67.5 56.249996" height="75" preserveAspectRatio="xMidYMid meet" version="1.0"><defs><clipPath id="8bfdcb99ed"><path d="M 0.199219 0 L 49 0 L 49 48.847656 L 0.199219 48.847656 Z M 0.199219 0 " clip-rule="nonzero"/></clipPath><clipPath id="7afc4ba8e5"><path d="M 29 47 L 66.808594 47 L 66.808594 51 L 29 51 Z M 29 47 " clip-rule="nonzero"/></clipPath><clipPath id="47a3c0bed2"><path d="M 57 43 L 66.808594 43 L 66.808594 55.511719 L 57 55.511719 Z M 57 43 " clip-rule="nonzero"/></clipPath></defs><g clip-path="url(#8bfdcb99ed)"><path fill="#0066ff" d="M 21.875 15.886719 C 19.320312 13.609375 22.136719 9.554688 25.164062 11.1875 C 28.75 13.417969 25.1875 18.492188 21.875 15.886719 Z M 18.183594 31.210938 L 17.4375 31.210938 C 17.621094 33.449219 15.804688 35.523438 13.507812 35.484375 C 11.238281 35.523438 9.390625 33.445312 9.59375 31.210938 C 4.589844 30.851562 0.199219 34.777344 0.21875 39.835938 C 0.21875 39.835938 0.21875 49.074219 0.21875 49.074219 L 4.1875 49.074219 L 4.1875 43.675781 C 4.1875 43.304688 4.488281 43.007812 4.855469 43.007812 C 5.226562 43.007812 5.527344 43.304688 5.527344 43.675781 L 5.527344 49.074219 L 21.390625 49.074219 L 21.390625 43.675781 C 21.390625 43.304688 21.6875 43.007812 22.058594 43.007812 C 22.429688 43.007812 22.726562 43.304688 22.726562 43.675781 L 22.726562 49.074219 L 26.8125 49.074219 L 26.8125 39.835938 C 26.8125 35.078125 22.945312 31.210938 18.1875 31.210938 Z M 10.9375 31.820312 C 11.257812 34.625 15.101562 34.992188 15.984375 32.335938 C 16.183594 31.824219 16.066406 29.484375 16.09375 28.910156 C 14.410156 29.441406 12.601562 29.4375 10.921875 28.914062 C 10.925781 29.703125 10.914062 31.039062 10.9375 31.820312 Z M 3.457031 14.382812 C 4.800781 12.511719 6.230469 10.664062 8.21875 9.59375 C 9.050781 9.171875 9.777344 8.992188 10.648438 9.105469 C 11.28125 9.175781 11.878906 9.46875 12.484375 9.613281 C 13.726562 9.910156 15.035156 9.546875 16.101562 8.933594 C 16.078125 8.621094 16.195312 8.304688 16.417969 8.082031 L 18.140625 6.367188 C 18.53125 5.960938 19.199219 5.917969 19.648438 6.285156 L 20.777344 7.203125 C 20.945312 7.128906 21.117188 7.054688 21.285156 6.996094 C 21.3125 6.796875 21.414062 5.433594 21.496094 5.28125 C 20.621094 4.953125 19.253906 4.980469 19.246094 4.980469 C 19.085938 4.988281 18.925781 4.933594 18.804688 4.828125 C 18.769531 4.800781 15.664062 2.246094 13.453125 1.511719 C 8.117188 0.015625 2.890625 4.90625 2.941406 10.484375 C 2.9375 11.75 3.082031 12.9375 3.378906 14.082031 C 3.421875 14.175781 3.4375 14.285156 3.457031 14.382812 Z M 3.652344 19.109375 C 4 19.039062 4.351562 19.261719 4.433594 19.609375 C 5.222656 22.917969 7.507812 25.90625 10.253906 27.21875 C 14.695312 29.417969 19.488281 26.550781 21.578125 22.308594 C 21.378906 22.035156 21.339844 20.746094 21.285156 20.414062 C 21.113281 20.351562 20.945312 20.28125 20.777344 20.207031 L 19.652344 21.128906 C 19.199219 21.496094 18.535156 21.457031 18.132812 21.042969 L 16.421875 19.335938 C 16.015625 18.914062 15.992188 18.269531 16.347656 17.828125 L 17.273438 16.699219 C 17.195312 16.527344 17.125 16.351562 17.0625 16.1875 L 15.609375 16.035156 C 15.046875 15.988281 14.597656 15.5 14.597656 14.921875 L 14.597656 12.492188 C 14.597656 11.921875 15.027344 11.441406 15.601562 11.375 L 17.0625 11.226562 C 17.121094 11.054688 17.195312 10.886719 17.269531 10.71875 L 16.765625 10.097656 C 15.417969 10.871094 13.773438 11.28125 12.222656 10.921875 C 11.457031 10.769531 10.722656 10.304688 9.917969 10.425781 C 8.871094 10.542969 7.867188 11.375 7.097656 12.074219 C 6.472656 12.675781 5.589844 13.710938 5 14.527344 C 4.851562 14.742188 4.664062 14.996094 4.511719 15.21875 C 3.992188 16.058594 2.613281 15.921875 2.265625 14.996094 C 2.253906 14.964844 2.238281 14.929688 2.230469 14.902344 C 1.773438 14.867188 1.371094 15.34375 1.425781 15.796875 C 1.425781 17.25 2.328125 18.566406 3.660156 19.109375 Z M 30.03125 18.523438 L 28.578125 19.972656 C 28.578125 19.972656 27.257812 18.898438 27.257812 18.898438 C 26.660156 18.457031 26.0625 19.1875 25.429688 19.277344 C 25.171875 19.355469 24.984375 19.582031 24.957031 19.851562 L 24.785156 21.539062 L 22.742188 21.539062 L 22.570312 19.851562 C 22.542969 19.582031 22.355469 19.355469 22.097656 19.277344 C 21.464844 19.191406 20.871094 18.457031 20.269531 18.898438 L 18.953125 19.976562 L 17.5 18.527344 L 18.578125 17.210938 C 18.882812 16.871094 18.652344 16.457031 18.476562 16.121094 C 18.226562 15.65625 18.257812 14.96875 17.628906 14.902344 L 15.929688 14.726562 L 15.929688 12.683594 L 17.628906 12.507812 C 17.898438 12.480469 18.128906 12.289062 18.203125 12.023438 C 18.265625 11.445312 19.023438 10.789062 18.578125 10.207031 L 17.503906 8.886719 C 17.503906 8.886719 18.957031 7.4375 18.957031 7.4375 C 18.957031 7.4375 20.269531 8.507812 20.269531 8.507812 C 20.855469 8.953125 21.519531 8.203125 22.097656 8.128906 C 22.355469 8.054688 22.542969 7.828125 22.570312 7.558594 L 22.742188 5.871094 L 24.789062 5.871094 L 24.960938 7.558594 C 24.988281 7.828125 25.175781 8.054688 25.433594 8.128906 C 26.007812 8.199219 26.675781 8.949219 27.257812 8.507812 L 28.582031 7.4375 L 30.035156 8.890625 C 30.035156 8.890625 28.960938 10.207031 28.960938 10.207031 C 28.519531 10.820312 29.246094 11.390625 29.347656 12.042969 C 29.425781 12.296875 29.648438 12.480469 29.914062 12.507812 L 31.605469 12.683594 L 31.605469 14.726562 L 29.914062 14.902344 C 29.648438 14.929688 29.421875 15.113281 29.34375 15.367188 C 29.265625 15.621094 29.167969 15.871094 29.070312 16.09375 C 28.890625 16.429688 28.652344 16.867188 28.957031 17.207031 Z M 19.691406 12.636719 C 18.925781 15.207031 21.074219 18.003906 23.757812 17.929688 C 25.890625 17.96875 27.769531 16.234375 27.960938 14.132812 C 28.378906 8.992188 21.085938 7.652344 19.691406 12.636719 Z M 46.132812 4.324219 C 48.917969 4.234375 48.917969 0.195312 46.132812 0.105469 C 43.347656 0.195312 43.347656 4.234375 46.132812 4.324219 Z M 48.617188 14.515625 L 46.261719 10.4375 C 46.1875 10.332031 46.078125 10.335938 46.003906 10.4375 C 46.003906 10.4375 43.648438 14.515625 43.648438 14.515625 C 43.59375 14.628906 43.652344 14.726562 43.777344 14.738281 L 48.484375 14.738281 C 48.613281 14.726562 48.667969 14.628906 48.613281 14.515625 Z M 47.988281 22.601562 L 44.277344 22.601562 C 44.160156 22.601562 44.0625 22.699219 44.0625 22.816406 L 44.0625 26.527344 C 44.0625 26.644531 44.160156 26.742188 44.277344 26.742188 L 47.988281 26.742188 C 48.105469 26.742188 48.203125 26.644531 48.203125 26.527344 L 48.203125 22.816406 C 48.203125 22.699219 48.105469 22.601562 47.988281 22.601562 Z M 3.472656 14.488281 L 3.488281 14.484375 C 3.488281 14.484375 3.488281 14.480469 3.484375 14.476562 C 3.484375 14.476562 3.476562 14.476562 3.472656 14.476562 C 3.472656 14.480469 3.472656 14.488281 3.472656 14.492188 Z M 30.6875 7.097656 C 30.855469 7.097656 31.027344 7.035156 31.15625 6.902344 L 32.414062 5.644531 L 35.195312 2.867188 C 36.195312 2.867188 39.035156 2.867188 39.992188 2.867188 C 40.871094 2.851562 40.875 1.546875 39.992188 1.53125 L 34.917969 1.53125 C 34.738281 1.53125 34.570312 1.601562 34.445312 1.726562 L 30.210938 5.957031 C 29.789062 6.355469 30.109375 7.117188 30.683594 7.097656 Z M 39.992188 24.007812 L 35.195312 24.007812 C 34.339844 23.152344 31.980469 20.789062 31.15625 19.96875 C 30.527344 19.367188 29.609375 20.277344 30.210938 20.914062 L 34.445312 25.144531 C 34.570312 25.273438 34.738281 25.339844 34.917969 25.339844 L 39.992188 25.339844 C 40.867188 25.328125 40.875 24.023438 39.992188 24.007812 Z M 41.183594 12.109375 L 35.160156 12.109375 C 34.285156 12.125 34.28125 13.429688 35.160156 13.445312 L 41.183594 13.445312 C 42.058594 13.429688 42.0625 12.125 41.183594 12.109375 Z M 41.183594 12.109375 " fill-opacity="1" fill-rule="nonzero"/></g><g clip-path="url(#7afc4ba8e5)"><path stroke-linecap="butt" transform="matrix(0.740131, 0, 0, 0.740131, 31.075335, 47.619303)" fill="none" stroke-linejoin="miter" d="M -0.00150838 1.997419 L 46.242385 1.997419 " stroke="#1c1f23" stroke-width="4" stroke-opacity="1" stroke-miterlimit="4"/></g><g clip-path="url(#47a3c0bed2)"><path stroke-linecap="round" transform="matrix(0.740131, 0, 0, 0.740131, 31.075335, 47.619303)" fill="none" stroke-linejoin="round" d="M 38.241274 -3.998137 L 46.242385 1.997419 L 38.241274 7.998253 " stroke="#1c1f23" stroke-width="4" stroke-opacity="1" stroke-miterlimit="4"/></g></svg>