<svg xmlns="http://www.w3.org/2000/svg" xmlns:xlink="http://www.w3.org/1999/xlink" width="26" zoomAndPan="magnify" viewBox="0 0 19.5 23.25" height="31" preserveAspectRatio="xMidYMid meet" version="1.0"><defs><clipPath id="cb0375bcbf"><path d="M 2.808594 0 L 15.886719 0 L 15.886719 15.257812 L 2.808594 15.257812 Z M 2.808594 0 " clip-rule="nonzero"/></clipPath><clipPath id="97222803fd"><path d="M 0.0625 19 L 18.953125 19 L 18.953125 22.523438 L 0.0625 22.523438 Z M 0.0625 19 " clip-rule="nonzero"/></clipPath></defs><g clip-path="url(#cb0375bcbf)"><path fill="#100f0d" d="M 14.855469 9.273438 C 13.925781 8.40625 13.308594 7.234375 13.113281 5.976562 L 13.023438 5.375 C 12.828125 4.105469 12.035156 3.066406 10.957031 2.527344 C 11.039062 2.316406 11.082031 2.09375 11.082031 1.859375 C 11.082031 0.835938 10.246094 0 9.222656 0 C 8.195312 0 7.363281 0.835938 7.363281 1.859375 C 7.363281 2.09375 7.40625 2.316406 7.488281 2.527344 C 6.410156 3.070312 5.617188 4.105469 5.421875 5.375 L 5.332031 5.976562 C 5.136719 7.234375 4.519531 8.40625 3.585938 9.273438 C 3.09375 9.734375 2.808594 10.386719 2.808594 11.066406 C 2.808594 11.9375 3.519531 12.648438 4.390625 12.648438 L 6.625 12.648438 C 6.675781 14.039062 7.820312 15.152344 9.222656 15.152344 C 10.625 15.152344 11.765625 14.039062 11.816406 12.648438 L 14.054688 12.648438 C 14.925781 12.648438 15.636719 11.9375 15.636719 11.066406 C 15.636719 10.386719 15.351562 9.734375 14.855469 9.273438 Z M 8.488281 1.859375 C 8.488281 1.457031 8.816406 1.128906 9.222656 1.128906 C 9.625 1.128906 9.957031 1.457031 9.957031 1.859375 C 9.957031 1.972656 9.929688 2.078125 9.882812 2.171875 C 9.667969 2.136719 9.445312 2.117188 9.222656 2.117188 C 8.996094 2.117188 8.777344 2.136719 8.5625 2.171875 C 8.515625 2.078125 8.488281 1.972656 8.488281 1.859375 Z M 9.222656 14.027344 C 8.441406 14.027344 7.800781 13.417969 7.753906 12.648438 L 10.691406 12.648438 C 10.640625 13.417969 10.003906 14.027344 9.222656 14.027344 Z M 14.054688 11.523438 L 4.390625 11.523438 C 4.140625 11.523438 3.933594 11.316406 3.933594 11.066406 C 3.933594 10.699219 4.085938 10.347656 4.355469 10.097656 C 5.46875 9.058594 6.210938 7.65625 6.441406 6.148438 L 6.535156 5.546875 C 6.742188 4.210938 7.871094 3.242188 9.222656 3.242188 C 10.574219 3.242188 11.703125 4.210938 11.910156 5.546875 L 12 6.148438 C 12.230469 7.65625 12.972656 9.058594 14.089844 10.097656 C 14.355469 10.347656 14.511719 10.699219 14.511719 11.066406 C 14.511719 11.316406 14.304688 11.523438 14.054688 11.523438 Z M 14.054688 11.523438 " fill-opacity="1" fill-rule="nonzero"/></g><g clip-path="url(#97222803fd)"><path stroke-linecap="butt" transform="matrix(0.726562, 0.000000000000000409, -0.000000000000000409, 0.726562, 0.0624998, 19.195212)" fill="none" stroke-linejoin="miter" d="M 0.000000229391 2.000138 L 25.215055 2.000138 " stroke="#ffffff" stroke-width="4" stroke-opacity="1" stroke-miterlimit="4"/></g></svg>