<svg xmlns="http://www.w3.org/2000/svg" xmlns:xlink="http://www.w3.org/1999/xlink" width="93" zoomAndPan="magnify" viewBox="0 0 69.75 55.5" height="74" preserveAspectRatio="xMidYMid meet" version="1.0"><defs><clipPath id="96cf82835d"><path d="M 0.1875 0 L 48 0 L 48 47.570312 L 0.1875 47.570312 Z M 0.1875 0 " clip-rule="nonzero"/></clipPath></defs><g clip-path="url(#96cf82835d)"><path fill="#fff33e" d="M 4.8125 10.714844 L 6.300781 8.082031 L 4.953125 5.375 C 4.238281 3.945312 5.492188 2.324219 7.074219 2.632812 L 10.0625 3.21875 L 12.242188 1.113281 C 13.394531 0 15.339844 0.679688 15.53125 2.265625 L 15.890625 5.261719 L 18.585938 6.664062 C 20.015625 7.410156 19.960938 9.449219 18.496094 10.121094 L 15.734375 11.386719 L 15.21875 14.359375 C 14.945312 15.933594 12.96875 16.515625 11.875 15.34375 L 9.804688 13.132812 L 6.792969 13.566406 C 5.195312 13.792969 4.027344 12.109375 4.8125 10.71875 Z M 47.640625 25.597656 L 43.714844 19.378906 L 46.660156 12.648438 C 47.304688 11.183594 45.96875 9.625 44.40625 10.011719 L 37.222656 11.789062 L 31.675781 6.933594 C 30.464844 5.875 28.558594 6.652344 28.445312 8.246094 L 27.933594 15.5625 L 21.558594 19.289062 C 20.167969 20.101562 20.324219 22.140625 21.816406 22.738281 L 28.683594 25.484375 L 30.292969 32.644531 C 30.640625 34.203125 32.644531 34.6875 33.679688 33.460938 L 38.4375 27.84375 L 45.808594 28.539062 C 47.414062 28.691406 48.496094 26.953125 47.640625 25.597656 Z M 19.699219 28.847656 L 14.421875 29.609375 L 10.796875 25.730469 C 9.703125 24.558594 7.726562 25.140625 7.453125 26.714844 L 6.550781 31.925781 L 1.710938 34.140625 C 0.246094 34.8125 0.191406 36.855469 1.621094 37.597656 L 6.339844 40.058594 L 6.972656 45.304688 C 7.164062 46.890625 9.109375 47.570312 10.261719 46.457031 L 14.082031 42.769531 L 19.316406 43.792969 C 20.894531 44.105469 22.148438 42.484375 21.4375 41.050781 L 19.078125 36.3125 L 21.679688 31.699219 C 22.464844 30.304688 21.296875 28.621094 19.699219 28.851562 Z M 19.699219 28.847656 " fill-opacity="1" fill-rule="nonzero"/></g><path stroke-linecap="butt" transform="matrix(0.743304, 0, 0, 0.743304, 32.901632, 47.501942)" fill="none" stroke-linejoin="miter" d="M 0.000957858 1.99964 L 46.241951 1.99964 " stroke="#1c1f23" stroke-width="4" stroke-opacity="1" stroke-miterlimit="4"/><path stroke-linecap="round" transform="matrix(0.743304, 0, 0, 0.743304, 32.901632, 47.501942)" fill="none" stroke-linejoin="round" d="M 38.243452 -4.001862 L 46.241951 1.99964 L 38.243452 8.001141 " stroke="#1c1f23" stroke-width="4" stroke-opacity="1" stroke-miterlimit="4"/></svg>