<svg xmlns="http://www.w3.org/2000/svg" xmlns:xlink="http://www.w3.org/1999/xlink" width="56" zoomAndPan="magnify" viewBox="0 0 42 40.499999" height="54" preserveAspectRatio="xMidYMid meet" version="1.0"><defs><clipPath id="eb3c2bf563"><path d="M 0.476562 0.195312 L 41.222656 0.195312 L 41.222656 32.054688 L 0.476562 32.054688 Z M 0.476562 0.195312 " clip-rule="nonzero"/></clipPath><clipPath id="1d3f5d0f7c"><path d="M 0.257812 36 L 41 36 L 41 40 L 0.257812 40 Z M 0.257812 36 " clip-rule="nonzero"/></clipPath></defs><g clip-path="url(#eb3c2bf563)"><path fill="#009a70" d="M 41.21875 32.054688 L 41.21875 14.246094 L 31.425781 14.246094 L 31.425781 12.464844 C 31.425781 9.027344 33.421875 6.234375 35.875 6.234375 L 36.765625 6.234375 L 36.765625 0 L 35.875 0 C 29.003906 0 23.410156 5.59375 23.410156 12.464844 L 23.410156 32.054688 Z M 18.070312 32.054688 L 18.070312 14.246094 L 8.273438 14.246094 L 8.273438 12.464844 C 8.273438 9.027344 10.269531 6.234375 12.726562 6.234375 L 13.617188 6.234375 L 13.617188 0 L 12.726562 0 C 5.855469 0 0.261719 5.59375 0.261719 12.464844 L 0.261719 32.054688 Z M 18.070312 32.054688 " fill-opacity="1" fill-rule="nonzero"/></g><g clip-path="url(#1d3f5d0f7c)"><path stroke-linecap="butt" transform="matrix(0.740854, 0, 0, 0.740854, 0.256098, 36.50605)" fill="none" stroke-linejoin="miter" d="M 0.00231385 2.000708 L 52.702292 2.000708 " stroke="#1c1f23" stroke-width="4" stroke-opacity="1" stroke-miterlimit="4"/></g></svg>