<svg xmlns="http://www.w3.org/2000/svg" xmlns:xlink="http://www.w3.org/1999/xlink" width="56" zoomAndPan="magnify" viewBox="0 0 42 43.499998" height="58" preserveAspectRatio="xMidYMid meet" version="1.0"><defs><clipPath id="8e2a72a008"><path d="M 0.238281 10.386719 L 41.019531 10.386719 L 41.019531 42.273438 L 0.238281 42.273438 Z M 0.238281 10.386719 " clip-rule="nonzero"/></clipPath><clipPath id="1301ffd3f3"><path d="M 0.238281 0 L 41 0 L 41 3 L 0.238281 3 Z M 0.238281 0 " clip-rule="nonzero"/></clipPath></defs><g clip-path="url(#8e2a72a008)"><path fill="#009a70" d="M 0.242188 10.386719 L 0.242188 28.210938 L 10.046875 28.210938 L 10.046875 29.992188 C 10.046875 33.433594 8.046875 36.230469 5.589844 36.230469 L 4.699219 36.230469 L 4.699219 42.46875 L 5.589844 42.46875 C 12.46875 42.46875 18.066406 36.871094 18.066406 29.992188 L 18.066406 10.386719 Z M 23.414062 10.386719 L 23.414062 28.210938 L 33.214844 28.210938 L 33.214844 29.992188 C 33.214844 33.433594 31.21875 36.230469 28.757812 36.230469 L 27.867188 36.230469 L 27.867188 42.46875 L 28.757812 42.46875 C 35.636719 42.46875 41.234375 36.871094 41.234375 29.992188 L 41.234375 10.386719 Z M 23.414062 10.386719 " fill-opacity="1" fill-rule="nonzero"/></g><g clip-path="url(#1301ffd3f3)"><path stroke-linecap="butt" transform="matrix(0.741477, 0, 0, 0.741477, 0.238637, 0)" fill="none" stroke-linejoin="miter" d="M -0.000480021 2.001916 L 52.702589 2.001916 " stroke="#1c1f23" stroke-width="4" stroke-opacity="1" stroke-miterlimit="4"/></g></svg>