<svg xmlns="http://www.w3.org/2000/svg" xmlns:xlink="http://www.w3.org/1999/xlink" width="75" zoomAndPan="magnify" viewBox="0 0 56.25 53.25" height="71" preserveAspectRatio="xMidYMid meet" version="1.0"><defs><clipPath id="11ffe75166"><path d="M 0.0195312 0 L 21.46875 0 L 21.46875 42.15625 L 0.0195312 42.15625 Z M 0.0195312 0 " clip-rule="nonzero"/></clipPath><clipPath id="2e546994ea"><path d="M 0.0195312 0 L 13 0 L 13 42.15625 L 0.0195312 42.15625 Z M 0.0195312 0 " clip-rule="nonzero"/></clipPath></defs><g clip-path="url(#11ffe75166)"><path fill="#fedd2b" d="M 10.652344 0 L 21.46875 0 L 12.890625 14.539062 L 19.230469 14.539062 L 0.0273438 42.15625 L 8.601562 20.734375 L 1.703125 21.078125 Z M 10.652344 0 " fill-opacity="1" fill-rule="nonzero"/></g><g clip-path="url(#2e546994ea)"><path fill="#f8cf29" d="M 10.652344 0 L 12.519531 0 L 1.703125 21.078125 Z M 0.0273438 42.15625 L 9.910156 20.734375 L 8.601562 20.734375 Z M 0.0273438 42.15625 " fill-opacity="1" fill-rule="nonzero"/></g><path stroke-linecap="butt" transform="matrix(0.739583, 0, 0, 0.739583, 19.308297, 44.479435)" fill="none" stroke-linejoin="miter" d="M 0.000400727 1.997877 L 46.2416 1.997877 " stroke="#1c1f23" stroke-width="4" stroke-opacity="1" stroke-miterlimit="4"/><path stroke-linecap="round" transform="matrix(0.739583, 0, 0, 0.739583, 19.308297, 44.479435)" fill="none" stroke-linejoin="round" d="M 38.245121 -4.002124 L 46.2416 1.997877 L 38.245121 7.997877 " stroke="#1c1f23" stroke-width="4" stroke-opacity="1" stroke-miterlimit="4"/></svg>