<svg xmlns="http://www.w3.org/2000/svg" xmlns:xlink="http://www.w3.org/1999/xlink" width="42" zoomAndPan="magnify" viewBox="0 0 31.5 13.5" height="18" preserveAspectRatio="xMidYMid meet" version="1.0"><defs><clipPath id="44368f9daf"><path d="M 17.265625 0 L 30.210938 0 L 30.210938 12.945312 L 17.265625 12.945312 Z M 17.265625 0 " clip-rule="nonzero"/></clipPath><clipPath id="a193eb1232"><path d="M 30.210938 6.472656 L 23.738281 0 L 23.738281 3.238281 L 17.265625 3.238281 L 17.265625 9.710938 L 23.738281 9.710938 L 23.738281 12.945312 Z M 30.210938 6.472656 " clip-rule="nonzero"/></clipPath><clipPath id="792c21633b"><path d="M 0.265625 0 L 13.210938 0 L 13.210938 12.945312 L 0.265625 12.945312 Z M 0.265625 0 " clip-rule="nonzero"/></clipPath><clipPath id="29f4750d73"><path d="M 13.210938 6.472656 L 6.738281 0 L 6.738281 3.238281 L 0.265625 3.238281 L 0.265625 9.710938 L 6.738281 9.710938 L 6.738281 12.945312 Z M 13.210938 6.472656 " clip-rule="nonzero"/></clipPath><clipPath id="fe60ddc69d"><rect x="0" width="14" y="0" height="13"/></clipPath><clipPath id="17f1f0330a"><path d="M 0.320312 3 L 16 3 L 16 7 L 0.320312 7 Z M 0.320312 3 " clip-rule="nonzero"/></clipPath></defs><g clip-path="url(#44368f9daf)"><g clip-path="url(#a193eb1232)"><g transform="matrix(1, 0, 0, 1, 17, 0)"><g clip-path="url(#fe60ddc69d)"><g clip-path="url(#792c21633b)"><g clip-path="url(#29f4750d73)"><path fill="#e4e4e0" d="M 0.265625 0 L 13.210938 0 L 13.210938 12.945312 L 0.265625 12.945312 Z M 0.265625 0 " fill-opacity="1" fill-rule="nonzero"/></g></g></g></g></g></g><g clip-path="url(#17f1f0330a)"><path stroke-linecap="butt" transform="matrix(0.723214, -0.000000000000002242, 0.000000000000002242, 0.723214, 0.321429, 3.728183)" fill="none" stroke-linejoin="miter" d="M -0.00154384 2.001618 L 18.432871 2.001618 " stroke="#1c1f23" stroke-width="4" stroke-opacity="1" stroke-miterlimit="4"/></g></svg>