<svg xmlns="http://www.w3.org/2000/svg" xmlns:xlink="http://www.w3.org/1999/xlink" width="12" zoomAndPan="magnify" viewBox="0 0 9 11.25" height="15" preserveAspectRatio="xMidYMid meet" version="1.0"><defs><clipPath id="0f6dbe41b8"><path d="M 1.457031 0 L 8.488281 0 L 8.488281 7.03125 L 1.457031 7.03125 Z M 1.457031 0 " clip-rule="nonzero"/></clipPath><clipPath id="1e60fcbff0"><path d="M 0.28125 8 L 8.71875 8 L 8.71875 10 L 0.28125 10 Z M 0.28125 8 " clip-rule="nonzero"/></clipPath></defs><g clip-path="url(#0f6dbe41b8)"><path fill="#545454" d="M 8.566406 3.554688 C 8.566406 4.023438 8.476562 4.480469 8.296875 4.914062 C 8.117188 5.347656 7.859375 5.734375 7.527344 6.066406 C 7.191406 6.402344 6.808594 6.65625 6.375 6.835938 C 5.9375 7.019531 5.484375 7.109375 5.011719 7.109375 C 4.542969 7.109375 4.089844 7.019531 3.652344 6.835938 C 3.21875 6.65625 2.832031 6.402344 2.5 6.066406 C 2.167969 5.734375 1.910156 5.347656 1.730469 4.914062 C 1.550781 4.480469 1.457031 4.023438 1.457031 3.554688 C 1.457031 3.082031 1.550781 2.628906 1.730469 2.195312 C 1.910156 1.757812 2.167969 1.375 2.5 1.039062 C 2.832031 0.707031 3.21875 0.449219 3.652344 0.269531 C 4.089844 0.0898438 4.542969 0 5.011719 0 C 5.484375 0 5.9375 0.0898438 6.375 0.269531 C 6.808594 0.449219 7.191406 0.707031 7.527344 1.039062 C 7.859375 1.375 8.117188 1.757812 8.296875 2.195312 C 8.476562 2.628906 8.566406 3.082031 8.566406 3.554688 Z M 8.566406 3.554688 " fill-opacity="1" fill-rule="nonzero"/></g><path fill="#f2f2f2" d="M 6.964844 2.882812 C 7.15625 2.691406 7.15625 2.382812 6.964844 2.195312 C 6.773438 2.003906 6.464844 2.003906 6.273438 2.195312 L 4.589844 3.878906 L 3.746094 3.039062 C 3.558594 2.847656 3.25 2.847656 3.058594 3.039062 C 2.867188 3.230469 2.867188 3.539062 3.058594 3.726562 L 4.246094 4.914062 C 4.335938 5.003906 4.460938 5.058594 4.589844 5.058594 C 4.71875 5.058594 4.84375 5.003906 4.933594 4.914062 Z M 6.964844 2.882812 " fill-opacity="1" fill-rule="nonzero"/><g clip-path="url(#1e60fcbff0)"><path stroke-linecap="butt" transform="matrix(0.703125, 0, 0, 0.703125, 0.28125, 8.521372)" fill="none" stroke-linejoin="miter" d="M 0.000000213333 0.997382 L 10.611111 0.997382 " stroke="#ffffff" stroke-width="2" stroke-opacity="1" stroke-miterlimit="4"/></g></svg>