<svg xmlns="http://www.w3.org/2000/svg" xmlns:xlink="http://www.w3.org/1999/xlink" width="107" zoomAndPan="magnify" viewBox="0 0 80.25 60.749998" height="81" preserveAspectRatio="xMidYMid meet" version="1.0"><defs><clipPath id="5179e72c54"><path d="M 12 0.15625 L 30.464844 0.15625 L 30.464844 57.371094 L 12 57.371094 Z M 12 0.15625 " clip-rule="nonzero"/></clipPath><clipPath id="9460c594f1"><path d="M 41 52 L 79.507812 52 L 79.507812 56 L 41 56 Z M 41 52 " clip-rule="nonzero"/></clipPath><clipPath id="dad8cab25c"><path d="M 70 47 L 79.507812 47 L 79.507812 60 L 70 60 Z M 70 47 " clip-rule="nonzero"/></clipPath></defs><path fill="#11263c" d="M 11.113281 32.054688 C 11.066406 32.054688 11.023438 32.03125 10.996094 31.988281 C 10.957031 31.933594 10.964844 31.859375 11.003906 31.808594 C 11.105469 31.601562 11.65625 29.6875 11.679688 27.417969 C 11.679688 27.335938 11.746094 27.269531 11.824219 27.269531 C 11.902344 27.269531 11.964844 27.339844 11.964844 27.421875 C 11.945312 29.773438 11.347656 31.921875 11.191406 32.03125 C 11.167969 32.046875 11.140625 32.054688 11.113281 32.054688 Z M 11.035156 31.78125 Z M 11.035156 31.777344 C 11.035156 31.777344 11.035156 31.777344 11.035156 31.78125 C 11.035156 31.777344 11.035156 31.777344 11.035156 31.777344 Z M 11.035156 31.777344 " fill-opacity="1" fill-rule="nonzero"/><g clip-path="url(#5179e72c54)"><path fill="#b46831" d="M 20.636719 28.261719 C 20.636719 28.261719 20.125 31.542969 20.585938 32.160156 C 21.046875 32.773438 22.378906 34.3125 23.046875 34.722656 C 23.046875 34.722656 22.378906 36.671875 22.945312 38.210938 C 23.507812 39.746094 23.609375 41.386719 23.867188 41.902344 C 24.125 42.414062 24.125 43.59375 24.996094 43.796875 C 25.867188 44.003906 28.734375 47.183594 28.324219 48.515625 C 27.914062 49.847656 28.019531 50.820312 27.8125 51.128906 C 27.609375 51.4375 26.070312 51.847656 26.070312 52.460938 C 26.070312 52.769531 25.527344 55 24.976562 57.371094 L 30.464844 57.371094 L 30.464844 0.171875 L 27.453125 0.882812 L 24.996094 1.960938 L 12.695312 7.601562 L 14.285156 11.753906 L 14.128906 14.0625 L 16.949219 21.035156 L 19 27.902344 C 19 27.902344 19.921875 28.519531 20.636719 28.261719 Z M 20.636719 28.261719 " fill-opacity="1" fill-rule="nonzero"/></g><path fill="#fdb8a3" d="M 18.175781 44.160156 L 17.039062 45.34375 C 17.039062 45.34375 19.6875 47.335938 19.597656 47.773438 C 19.511719 48.210938 20.910156 47.6875 20.890625 46.964844 C 20.867188 46.242188 18.175781 44.160156 18.175781 44.160156 Z M 18.175781 44.160156 " fill-opacity="1" fill-rule="nonzero"/><path fill="#1f2f48" d="M 19.660156 47.484375 C 20.113281 47.484375 20.804688 47.390625 20.847656 46.8125 C 20.847656 46.8125 20.511719 46.484375 21.039062 46.332031 C 21.570312 46.183594 22.808594 45.777344 23.015625 45.59375 C 23.222656 45.410156 24.167969 44.945312 24.132812 46.050781 C 24.101562 47.15625 22.300781 47.777344 22.300781 47.777344 C 22.300781 47.777344 21.6875 49.085938 21.058594 49.265625 C 20.492188 49.425781 19.960938 49.125 19.421875 47.859375 C 19.347656 47.683594 19.46875 47.484375 19.660156 47.484375 Z M 19.660156 47.484375 " fill-opacity="1" fill-rule="nonzero"/><path fill="#fdb8a3" d="M 16.957031 36.832031 C 16.957031 36.832031 18.105469 39.589844 17.996094 40.425781 C 17.882812 41.257812 19.417969 40.582031 19.507812 40.152344 C 19.507812 40.152344 18.941406 38.167969 18.898438 36.316406 C 18.851562 34.464844 16.957031 36.832031 16.957031 36.832031 Z M 16.957031 36.832031 " fill-opacity="1" fill-rule="nonzero"/><path fill="#1f2f48" d="M 18.078125 40.167969 C 18.523438 40.292969 19.21875 40.390625 19.421875 39.847656 C 19.421875 39.847656 19.1875 39.441406 19.746094 39.441406 C 20.300781 39.441406 21.621094 39.390625 21.875 39.273438 C 22.128906 39.15625 23.175781 38.96875 22.835938 40.015625 C 22.5 41.066406 20.574219 41.167969 20.574219 41.167969 C 20.574219 41.167969 19.609375 42.25 18.949219 42.25 C 18.351562 42.25 17.917969 41.8125 17.742188 40.460938 C 17.71875 40.269531 17.894531 40.113281 18.078125 40.167969 Z M 18.078125 40.167969 " fill-opacity="1" fill-rule="nonzero"/><path fill="#fdb8a3" d="M 5.445312 25.730469 C 5.808594 25.664062 6.019531 25.816406 7.339844 26.566406 C 8.179688 27.042969 9.03125 27.496094 9.871094 27.976562 L 9.035156 29.238281 C 8.472656 29.179688 7.800781 29.058594 7.070312 28.816406 C 5.714844 28.367188 4.714844 27.695312 4.066406 27.175781 C 4.265625 26.714844 4.703125 25.859375 5.445312 25.730469 Z M 5.445312 25.730469 " fill-opacity="1" fill-rule="nonzero"/><path fill="#1f2536" d="M 3.871094 34.328125 C 3.871094 34.328125 3.867188 34.390625 3.863281 34.5 C 3.847656 35.167969 4.003906 37.621094 6.890625 38.769531 C 10.25 40.105469 16.542969 44.804688 17.320312 46.140625 C 17.320312 46.140625 18.785156 45.710938 19.171875 44.632812 C 19.171875 44.632812 14.777344 37.175781 8.183594 36.011719 L 5.382812 33.035156 Z M 3.871094 34.328125 " fill-opacity="1" fill-rule="nonzero"/><path fill="#d38e16" d="M 9.542969 40.085938 C 10 39.34375 10.8125 37.960938 11.1875 37.042969 C 11.203125 37 11.183594 36.953125 11.144531 36.933594 C 10.828125 36.785156 10.503906 36.648438 10.171875 36.527344 C 10.042969 36.65625 9.957031 36.746094 9.957031 36.746094 C 9.957031 36.746094 8.972656 38.808594 8.15625 39.328125 C 8.121094 39.351562 8.125 39.402344 8.160156 39.421875 C 8.554688 39.625 8.984375 39.871094 9.410156 40.121094 C 9.457031 40.148438 9.515625 40.132812 9.542969 40.085938 Z M 9.542969 40.085938 " fill-opacity="1" fill-rule="nonzero"/><path fill="#1d2c40" d="M 3.984375 35.878906 C 3.984375 35.878906 5.527344 38.394531 9.191406 37.039062 C 12.851562 35.683594 15.523438 33.375 15.523438 33.375 C 15.523438 33.375 16.808594 36.632812 16.625 37.257812 C 16.441406 37.878906 19.078125 37 19.152344 36.636719 C 19.222656 36.269531 18.199219 33.15625 18.382812 32.277344 C 18.566406 31.394531 17.6875 28.90625 15.5625 29.859375 C 13.4375 30.808594 9.355469 32.320312 8.007812 32.230469 C 6.65625 32.136719 3.984375 35.878906 3.984375 35.878906 Z M 3.984375 35.878906 " fill-opacity="1" fill-rule="nonzero"/><path fill="#fdb8a3" d="M 5.195312 19.402344 C 5.195312 19.402344 5.574219 20.097656 5.792969 20.410156 C 5.792969 20.410156 6.105469 20.503906 6.117188 20.628906 C 6.132812 20.75 6.011719 21.007812 6.09375 21.144531 C 6.171875 21.28125 6.199219 21.851562 6.144531 21.988281 C 6.09375 22.125 4.0625 24.578125 3.832031 24.65625 C 3.601562 24.738281 2.746094 25.582031 2.867188 22.996094 C 2.988281 20.410156 3.042969 19.933594 5.195312 19.402344 Z M 5.195312 19.402344 " fill-opacity="1" fill-rule="nonzero"/><path fill="#e7633d" d="M 3.996094 23.957031 C 3.996094 23.957031 2.457031 24.050781 2.359375 24.414062 C 2.359375 24.414062 1.132812 26.074219 2.121094 30.074219 C 3.105469 34.070312 3.707031 35.925781 4.09375 36.070312 C 4.480469 36.214844 5.585938 35.203125 6.019531 34.625 C 6.453125 34.046875 7.390625 32.625 8.28125 32.335938 C 9.175781 32.046875 7.246094 31.640625 7.199219 31.109375 C 7.199219 31.109375 6.332031 26.074219 6.886719 24.414062 Z M 3.996094 23.957031 " fill-opacity="1" fill-rule="nonzero"/><path fill="#fdb8a3" d="M 6.84375 21.730469 C 6.878906 21.363281 7.082031 21.199219 8.15625 20.121094 C 8.839844 19.433594 9.503906 18.730469 10.191406 18.046875 L 11.1875 19.1875 C 10.980469 19.714844 10.6875 20.332031 10.257812 20.976562 C 9.46875 22.167969 8.550781 22.960938 7.878906 23.445312 C 7.480469 23.132812 6.773438 22.480469 6.84375 21.730469 Z M 6.84375 21.730469 " fill-opacity="1" fill-rule="nonzero"/><path fill="#fdb8a3" d="M 13.417969 13.613281 C 13.417969 13.613281 12.003906 19.65625 10.558594 19.609375 C 10.519531 19.605469 10.292969 19.597656 10.125 19.4375 C 9.367188 18.710938 10.773438 15.808594 12.117188 13.445312 Z M 13.417969 13.613281 " fill-opacity="1" fill-rule="nonzero"/><path fill="#e7633d" d="M 7.214844 20.910156 C 7.300781 21.246094 7.460938 21.753906 7.785156 22.308594 C 8.195312 23.007812 8.472656 23.117188 8.480469 23.484375 C 8.496094 24.054688 7.835938 24.207031 7.046875 25.140625 C 6.109375 26.242188 6.300781 26.890625 5.714844 27.070312 C 4.953125 27.304688 3.726562 26.484375 3.460938 25.382812 C 3.367188 25 3.382812 24.558594 3.566406 24.058594 C 3.566406 24.058594 5.488281 21.847656 7.214844 20.910156 Z M 7.214844 20.910156 " fill-opacity="1" fill-rule="nonzero"/><path fill="#002233" d="M 1.125 21.402344 C 1.125 21.402344 1.179688 23.023438 2.554688 23.472656 C 2.964844 23.609375 3.292969 23.585938 3.550781 23.488281 C 4.082031 23.28125 4.429688 22.691406 4.363281 22.617188 C 4.347656 22.601562 4.316406 22.605469 4.28125 22.617188 C 3.625 22.367188 3.160156 22.046875 3.152344 21.78125 C 3.148438 21.660156 3.207031 21.566406 3.207031 21.566406 C 3.3125 21.398438 3.546875 21.382812 3.601562 21.378906 C 3.859375 21.359375 4.054688 21.507812 4.078125 21.527344 C 4.304688 21.707031 4.378906 21.859375 4.460938 21.960938 C 4.503906 22.007812 4.578125 21.96875 4.558594 21.90625 C 4.480469 21.660156 4.378906 21.320312 4.363281 21.105469 C 4.335938 20.738281 4.214844 20.261719 4.621094 20.410156 C 5.03125 20.558594 5.015625 20.207031 5.015625 20.164062 C 5.015625 20.125 4.824219 19.894531 5.234375 19.878906 C 5.695312 19.863281 5.203125 19.660156 5.863281 19.59375 C 5.992188 19.582031 6.101562 19.488281 6.109375 19.359375 C 6.136719 18.933594 5.070312 18.722656 5.070312 18.722656 C 5.070312 18.722656 3.832031 18.164062 3.152344 18.734375 C 2.472656 19.308594 1.097656 21.335938 1.125 21.402344 Z M 1.125 21.402344 " fill-opacity="1" fill-rule="nonzero"/><path fill="#e9d13a" d="M 4.886719 18.558594 C 4.351562 17.835938 3.464844 17.394531 2.480469 17.492188 C 1.25 17.613281 0.246094 18.597656 0.105469 19.824219 C 0 20.785156 0.398438 21.65625 1.074219 22.203125 C 1.074219 22.203125 1.207031 22.492188 1.355469 22.277344 C 1.664062 21.824219 3.507812 19.527344 4.957031 18.867188 C 4.957031 18.867188 4.984375 18.855469 5.019531 18.835938 C 5.167969 18.738281 5.054688 18.507812 4.886719 18.558594 Z M 4.886719 18.558594 " fill-opacity="1" fill-rule="nonzero"/><path fill="#eda61a" d="M 9.015625 32.136719 C 8.988281 32.019531 9.050781 31.898438 9.164062 31.855469 C 9.488281 31.726562 10.058594 31.484375 10.199219 31.714844 C 10.351562 31.96875 11.828125 34.558594 11.789062 36.035156 C 11.789062 36.035156 10.960938 36.710938 10.808594 36.535156 C 10.664062 36.363281 9.3125 33.355469 9.015625 32.136719 Z M 9.015625 32.136719 " fill-opacity="1" fill-rule="nonzero"/><path fill="#002233" d="M 2.164062 19.359375 C 2.054688 19.113281 1.773438 18.542969 1.589844 18.515625 C 1.433594 18.496094 1.292969 18.6875 1.214844 18.8125 C 1.167969 18.890625 1.171875 18.984375 1.230469 19.054688 C 1.386719 19.242188 1.746094 19.464844 1.929688 19.570312 C 1.996094 19.609375 2.078125 19.597656 2.132812 19.546875 C 2.179688 19.496094 2.195312 19.421875 2.164062 19.359375 Z M 2.164062 19.359375 " fill-opacity="1" fill-rule="nonzero"/><path fill="#002233" d="M 2.96875 18.753906 C 2.949219 18.523438 2.890625 17.96875 2.746094 17.894531 C 2.621094 17.832031 2.449219 17.949219 2.347656 18.027344 C 2.289062 18.078125 2.265625 18.15625 2.289062 18.230469 C 2.363281 18.433594 2.59375 18.722656 2.714844 18.863281 C 2.757812 18.914062 2.828125 18.929688 2.886719 18.898438 C 2.941406 18.875 2.976562 18.816406 2.96875 18.753906 Z M 2.96875 18.753906 " fill-opacity="1" fill-rule="nonzero"/><path fill="#002233" d="M 1.519531 20.0625 C 1.328125 19.925781 0.871094 19.613281 0.722656 19.671875 C 0.59375 19.722656 0.566406 19.929688 0.5625 20.058594 C 0.558594 20.136719 0.605469 20.210938 0.675781 20.238281 C 0.875 20.3125 1.246094 20.328125 1.433594 20.328125 C 1.5 20.328125 1.554688 20.285156 1.574219 20.222656 C 1.589844 20.164062 1.566406 20.101562 1.519531 20.0625 Z M 1.519531 20.0625 " fill-opacity="1" fill-rule="nonzero"/><path fill="#11263c" d="M 2.738281 33.449219 C 2.703125 33.535156 2.804688 34.707031 3.46875 34.410156 C 4.085938 34.132812 5.175781 33.066406 6.078125 32.804688 C 6.246094 32.757812 6.410156 32.703125 6.566406 32.628906 C 7.058594 32.394531 8.035156 31.902344 8.136719 31.660156 C 8.238281 31.425781 7.886719 31.109375 7.691406 30.953125 C 7.617188 30.894531 7.519531 30.878906 7.429688 30.914062 C 6.675781 31.21875 3.023438 32.730469 2.738281 33.449219 Z M 2.738281 33.449219 " fill-opacity="1" fill-rule="nonzero"/><path fill="#11263c" d="M 8.917969 31.394531 C 8.84375 31.394531 8.78125 31.335938 8.773438 31.261719 C 8.765625 31.183594 8.824219 31.113281 8.90625 31.105469 C 9.46875 31.0625 9.839844 30.851562 9.902344 30.550781 C 9.949219 30.320312 9.808594 30.066406 9.558594 29.933594 C 9.171875 29.726562 8.199219 30.617188 7.632812 31.316406 C 7.582031 31.378906 7.492188 31.386719 7.429688 31.335938 C 7.367188 31.289062 7.359375 31.199219 7.410156 31.136719 C 7.5625 30.945312 8.945312 29.28125 9.691406 29.679688 C 10.0625 29.878906 10.257812 30.25 10.183594 30.609375 C 10.140625 30.816406 9.929688 31.308594 8.929688 31.390625 C 8.925781 31.394531 8.921875 31.394531 8.917969 31.394531 Z M 8.917969 31.394531 " fill-opacity="1" fill-rule="nonzero"/><path fill="#fdb8a3" d="M 12.09375 25.546875 C 12.09375 25.546875 10.015625 29.609375 8.78125 29.214844 C 8.746094 29.203125 8.550781 29.140625 8.445312 28.960938 C 7.96875 28.152344 9.523438 26.300781 11.257812 24.585938 Z M 12.09375 25.546875 " fill-opacity="1" fill-rule="nonzero"/><path fill="#feffdb" d="M 12.992188 22.277344 C 12.179688 22.582031 11.859375 22.976562 11.726562 23.300781 C 11.5625 23.703125 11.550781 24.316406 11.125 24.53125 C 11.015625 24.585938 10.945312 24.582031 10.917969 24.648438 C 10.796875 24.9375 11.847656 25.800781 12.1875 25.589844 C 12.261719 25.542969 12.25 25.480469 12.320312 25.351562 C 12.515625 25.007812 12.871094 24.976562 13.175781 24.808594 C 13.898438 24.421875 14.027344 23.453125 14.035156 23.402344 C 14.117188 22.667969 13.890625 22.074219 12.992188 22.277344 Z M 12.992188 22.277344 " fill-opacity="1" fill-rule="nonzero"/><path fill="#11263c" d="M 16.839844 5.699219 L 17.183594 5.542969 C 17.167969 5.503906 17.136719 5.472656 17.097656 5.460938 C 17.078125 5.453125 16.613281 5.3125 16.246094 5.503906 C 16.066406 5.601562 15.9375 5.761719 15.875 5.976562 C 15.707031 6.539062 14.140625 16.644531 13.472656 20.960938 C 13.324219 21.917969 13.109375 22.875 12.832031 23.808594 C 12.496094 24.929688 12.019531 26.460938 11.660156 27.398438 C 11.1875 28.621094 10.601562 29.527344 9.925781 30.085938 C 9.863281 30.136719 9.855469 30.226562 9.90625 30.289062 C 9.933594 30.320312 9.972656 30.339844 10.015625 30.339844 C 10.046875 30.339844 10.078125 30.328125 10.105469 30.308594 C 10.824219 29.714844 11.433594 28.773438 11.925781 27.503906 C 12.289062 26.554688 12.769531 25.015625 13.105469 23.890625 C 13.386719 22.945312 13.605469 21.976562 13.757812 21.003906 C 14.273438 17.640625 15.980469 6.621094 16.148438 6.058594 C 16.191406 5.917969 16.265625 5.820312 16.378906 5.757812 C 16.527344 5.679688 16.710938 5.683594 16.839844 5.699219 Z M 16.839844 5.699219 " fill-opacity="1" fill-rule="nonzero"/><path fill="#feffdb" d="M 12.777344 13.980469 C 12.371094 13.878906 12.03125 13.898438 11.910156 13.71875 C 11.898438 13.699219 11.863281 13.652344 11.867188 13.589844 C 11.871094 13.46875 11.996094 13.382812 12.035156 13.351562 C 12.152344 13.261719 12.28125 13.078125 12.339844 12.648438 C 12.699219 12.199219 12.507812 12.058594 12.828125 11.742188 C 13.121094 11.453125 13.671875 11.328125 13.75 11.3125 C 14.394531 11.179688 14.714844 11.113281 14.957031 11.285156 C 15.363281 11.574219 15.390625 12.285156 15.179688 12.742188 C 15.042969 13.035156 14.816406 13.199219 14.53125 13.40625 C 14.199219 13.652344 13.882812 13.785156 13.664062 13.863281 C 13.660156 13.957031 13.640625 14.089844 13.550781 14.15625 C 13.40625 14.257812 13.230469 14.089844 12.777344 13.980469 Z M 12.777344 13.980469 " fill-opacity="1" fill-rule="nonzero"/><path fill="#feffdb" d="M 13.746094 22.816406 C 13.746094 22.816406 12.652344 22.667969 12.726562 23.140625 C 12.800781 23.613281 12.304688 24.410156 12.578125 24.683594 C 12.851562 24.957031 13.449219 25.132812 13.671875 24.90625 C 13.894531 24.683594 14.144531 24.210938 14.070312 23.714844 C 13.996094 23.214844 14.617188 23.214844 13.746094 22.816406 Z M 13.746094 22.816406 " fill-opacity="1" fill-rule="nonzero"/><g clip-path="url(#9460c594f1)"><path stroke-linecap="butt" transform="matrix(0.743056, 0, 0, 0.743056, 43.183372, 52.366613)" fill="none" stroke-linejoin="miter" d="M 0.000298339 1.998436 L 46.246211 1.998436 " stroke="#1c1f23" stroke-width="4" stroke-opacity="1" stroke-miterlimit="4"/></g><g clip-path="url(#dad8cab25c)"><path stroke-linecap="round" transform="matrix(0.743056, 0, 0, 0.743056, 43.183372, 52.366613)" fill="none" stroke-linejoin="round" d="M 38.245043 -3.999812 L 46.246211 1.998436 L 38.245043 8.001941 " stroke="#1c1f23" stroke-width="4" stroke-opacity="1" stroke-miterlimit="4"/></g></svg>