<svg xmlns="http://www.w3.org/2000/svg" xmlns:xlink="http://www.w3.org/1999/xlink" width="84" zoomAndPan="magnify" viewBox="0 0 63 53.25" height="71" preserveAspectRatio="xMidYMid meet" version="1.0"><defs><clipPath id="20e31a584b"><path d="M 0.4375 0 L 41.113281 0 L 41.113281 40.675781 L 0.4375 40.675781 Z M 0.4375 0 " clip-rule="nonzero"/></clipPath><clipPath id="9592b18d28"><path d="M 25 44 L 62.5625 44 L 62.5625 48 L 25 48 Z M 25 44 " clip-rule="nonzero"/></clipPath><clipPath id="8a2176dfbb"><path d="M 53 40 L 62.5625 40 L 62.5625 52 L 53 52 Z M 53 40 " clip-rule="nonzero"/></clipPath></defs><path fill="#ffd815" d="M 16.191406 29.773438 C 13.640625 30.371094 13.15625 30.859375 12.554688 33.410156 C 11.953125 30.859375 11.46875 30.371094 8.914062 29.773438 C 11.46875 29.171875 11.953125 28.683594 12.554688 26.132812 C 13.15625 28.683594 13.640625 29.171875 16.191406 29.773438 Z M 16.191406 29.773438 " fill-opacity="1" fill-rule="nonzero"/><g clip-path="url(#20e31a584b)"><path fill="#ffd815" d="M 41.109375 20.335938 C 22.304688 21.183594 21.617188 21.867188 20.773438 40.671875 C 19.929688 21.867188 19.242188 21.183594 0.4375 20.335938 C 19.242188 19.492188 19.929688 18.804688 20.773438 0 C 21.621094 18.804688 22.304688 19.492188 41.109375 20.335938 Z M 41.109375 20.335938 " fill-opacity="1" fill-rule="nonzero"/></g><path fill="#ffd815" d="M 16.183594 9.59375 C 11.980469 9.785156 11.828125 9.9375 11.640625 14.136719 C 11.453125 9.9375 11.296875 9.785156 7.097656 9.59375 C 11.296875 9.40625 11.453125 9.253906 11.640625 5.054688 C 11.828125 9.253906 11.980469 9.40625 16.183594 9.59375 Z M 16.183594 9.59375 " fill-opacity="1" fill-rule="nonzero"/><path fill="#ffd815" d="M 38.988281 9.210938 C 32.820312 9.488281 32.59375 9.710938 32.316406 15.878906 C 32.039062 9.710938 31.816406 9.488281 25.648438 9.210938 C 31.816406 8.933594 32.039062 8.707031 32.316406 2.542969 C 32.59375 8.707031 32.820312 8.933594 38.988281 9.210938 Z M 38.988281 9.210938 " fill-opacity="1" fill-rule="nonzero"/><path fill="#ffd815" d="M 38.988281 4.667969 C 37.304688 4.746094 37.246094 4.804688 37.167969 6.484375 C 37.09375 4.804688 37.03125 4.746094 35.351562 4.667969 C 37.03125 4.59375 37.09375 4.53125 37.167969 2.851562 C 37.246094 4.53125 37.304688 4.59375 38.988281 4.667969 Z M 38.988281 4.667969 " fill-opacity="1" fill-rule="nonzero"/><path fill="#ffd815" d="M 28.507812 2.542969 C 26.828125 2.617188 26.769531 2.679688 26.691406 4.359375 C 26.617188 2.679688 26.554688 2.617188 24.875 2.542969 C 26.554688 2.464844 26.617188 2.40625 26.691406 0.726562 C 26.769531 2.40625 26.828125 2.464844 28.507812 2.542969 Z M 28.507812 2.542969 " fill-opacity="1" fill-rule="nonzero"/><g clip-path="url(#9592b18d28)"><path stroke-linecap="butt" transform="matrix(0.739583, 0, 0, 0.739583, 26.652442, 44.479435)" fill="none" stroke-linejoin="miter" d="M -0.000132849 1.997877 L 46.246348 1.997877 " stroke="#1c1f23" stroke-width="4" stroke-opacity="1" stroke-miterlimit="4"/></g><g clip-path="url(#8a2176dfbb)"><path stroke-linecap="round" transform="matrix(0.739583, 0, 0, 0.739583, 26.652442, 44.479435)" fill="none" stroke-linejoin="round" d="M 38.244587 -4.002124 L 46.246348 1.997877 L 38.244587 7.997877 " stroke="#1c1f23" stroke-width="4" stroke-opacity="1" stroke-miterlimit="4"/></g></svg>