<svg xmlns="http://www.w3.org/2000/svg" xmlns:xlink="http://www.w3.org/1999/xlink" width="81" zoomAndPan="magnify" viewBox="0 0 60.75 55.5" height="74" preserveAspectRatio="xMidYMid meet" version="1.0"><defs><clipPath id="3115de660c"><path d="M 13 45 L 14 45 L 14 45.339844 L 13 45.339844 Z M 13 45 " clip-rule="nonzero"/></clipPath><clipPath id="d939672175"><path d="M 13 44 L 14 44 L 14 45.339844 L 13 45.339844 Z M 13 44 " clip-rule="nonzero"/></clipPath><clipPath id="d78519e9fd"><path d="M 13 45 L 14 45 L 14 45.339844 L 13 45.339844 Z M 13 45 " clip-rule="nonzero"/></clipPath><clipPath id="64e9286964"><path d="M 13 36 L 19 36 L 19 45.339844 L 13 45.339844 Z M 13 36 " clip-rule="nonzero"/></clipPath><clipPath id="c16fe19cbb"><path d="M 35 5 L 35.824219 5 L 35.824219 6 L 35 6 Z M 35 5 " clip-rule="nonzero"/></clipPath><clipPath id="2f67a236ee"><path d="M 35 6 L 35.824219 6 L 35.824219 7 L 35 7 Z M 35 6 " clip-rule="nonzero"/></clipPath><clipPath id="e3261a0358"><path d="M 35 5 L 35.824219 5 L 35.824219 6 L 35 6 Z M 35 5 " clip-rule="nonzero"/></clipPath><clipPath id="f2dd301387"><path d="M 35 4 L 35.824219 4 L 35.824219 5 L 35 5 Z M 35 4 " clip-rule="nonzero"/></clipPath><clipPath id="eb712b7e37"><path d="M 35 5 L 35.824219 5 L 35.824219 6 L 35 6 Z M 35 5 " clip-rule="nonzero"/></clipPath><clipPath id="c5b3c83f37"><path d="M 29 0 L 35.824219 0 L 35.824219 9 L 29 9 Z M 29 0 " clip-rule="nonzero"/></clipPath><clipPath id="e8ac7362a8"><path d="M 35 3 L 35.824219 3 L 35.824219 5 L 35 5 Z M 35 3 " clip-rule="nonzero"/></clipPath><clipPath id="f85c705ad4"><path d="M 35 4 L 35.824219 4 L 35.824219 5 L 35 5 Z M 35 4 " clip-rule="nonzero"/></clipPath><clipPath id="204324ee07"><path d="M 35 3 L 35.824219 3 L 35.824219 4 L 35 4 Z M 35 3 " clip-rule="nonzero"/></clipPath><clipPath id="aad2142d17"><path d="M 35 2 L 35.824219 2 L 35.824219 3 L 35 3 Z M 35 2 " clip-rule="nonzero"/></clipPath><clipPath id="c0d04affcf"><path d="M 35 6 L 35.824219 6 L 35.824219 7 L 35 7 Z M 35 6 " clip-rule="nonzero"/></clipPath><clipPath id="f34fa13c36"><path d="M 35 2 L 35.824219 2 L 35.824219 4 L 35 4 Z M 35 2 " clip-rule="nonzero"/></clipPath><clipPath id="525f44c592"><path d="M 35 2 L 35.824219 2 L 35.824219 3 L 35 3 Z M 35 2 " clip-rule="nonzero"/></clipPath><clipPath id="c0ac5419ee"><path d="M 35 5 L 35.824219 5 L 35.824219 6 L 35 6 Z M 35 5 " clip-rule="nonzero"/></clipPath><clipPath id="c4f958d70e"><path d="M 35 6 L 35.824219 6 L 35.824219 7 L 35 7 Z M 35 6 " clip-rule="nonzero"/></clipPath><clipPath id="9fc34e1e14"><path d="M 35 3 L 35.824219 3 L 35.824219 4 L 35 4 Z M 35 3 " clip-rule="nonzero"/></clipPath><clipPath id="0ae2de9b01"><path d="M 35 4 L 35.824219 4 L 35.824219 6 L 35 6 Z M 35 4 " clip-rule="nonzero"/></clipPath><clipPath id="0a55ecf450"><path d="M 30 2 L 35.824219 2 L 35.824219 9 L 30 9 Z M 30 2 " clip-rule="nonzero"/></clipPath><clipPath id="69a27974c6"><path d="M 35 5 L 35.824219 5 L 35.824219 7 L 35 7 Z M 35 5 " clip-rule="nonzero"/></clipPath><clipPath id="8a325ff839"><path d="M 35 3 L 35.824219 3 L 35.824219 5 L 35 5 Z M 35 3 " clip-rule="nonzero"/></clipPath><clipPath id="da8f3c2bbf"><path d="M 35 4 L 35.824219 4 L 35.824219 5 L 35 5 Z M 35 4 " clip-rule="nonzero"/></clipPath><clipPath id="d16e7d16ce"><path d="M 35 4 L 35.824219 4 L 35.824219 5 L 35 5 Z M 35 4 " clip-rule="nonzero"/></clipPath><clipPath id="c1e0ad1dbe"><path d="M 35 5 L 35.824219 5 L 35.824219 6 L 35 6 Z M 35 5 " clip-rule="nonzero"/></clipPath><clipPath id="abdfa4b00d"><path d="M 35 5 L 35.824219 5 L 35.824219 6 L 35 6 Z M 35 5 " clip-rule="nonzero"/></clipPath><clipPath id="1ce1a4bf3b"><path d="M 35 5 L 35.824219 5 L 35.824219 6 L 35 6 Z M 35 5 " clip-rule="nonzero"/></clipPath><clipPath id="984559ff96"><path d="M 35 3 L 35.824219 3 L 35.824219 4 L 35 4 Z M 35 3 " clip-rule="nonzero"/></clipPath><clipPath id="e403d1654e"><path d="M 35 6 L 35.824219 6 L 35.824219 7 L 35 7 Z M 35 6 " clip-rule="nonzero"/></clipPath><clipPath id="a2a5e0ba53"><path d="M 35 4 L 35.824219 4 L 35.824219 5 L 35 5 Z M 35 4 " clip-rule="nonzero"/></clipPath><clipPath id="85f290efd6"><path d="M 35 3 L 35.824219 3 L 35.824219 4 L 35 4 Z M 35 3 " clip-rule="nonzero"/></clipPath><clipPath id="7170fca796"><path d="M 35 4 L 35.824219 4 L 35.824219 5 L 35 5 Z M 35 4 " clip-rule="nonzero"/></clipPath><clipPath id="160b53d36d"><path d="M 35 5 L 35.824219 5 L 35.824219 6 L 35 6 Z M 35 5 " clip-rule="nonzero"/></clipPath><clipPath id="5f93aa2b82"><path d="M 35 6 L 35.824219 6 L 35.824219 7 L 35 7 Z M 35 6 " clip-rule="nonzero"/></clipPath><clipPath id="470362a7a5"><path d="M 35 5 L 35.824219 5 L 35.824219 6 L 35 6 Z M 35 5 " clip-rule="nonzero"/></clipPath><clipPath id="25f0e57dd0"><path d="M 35 5 L 35.824219 5 L 35.824219 6 L 35 6 Z M 35 5 " clip-rule="nonzero"/></clipPath><clipPath id="7524018225"><path d="M 29 3 L 35.824219 3 L 35.824219 10 L 29 10 Z M 29 3 " clip-rule="nonzero"/></clipPath><clipPath id="e6993968ac"><path d="M 0.148438 9 L 31 9 L 31 37 L 0.148438 37 Z M 0.148438 9 " clip-rule="nonzero"/></clipPath><clipPath id="45a7daeec7"><path d="M 22 46 L 60.355469 46 L 60.355469 50 L 22 50 Z M 22 46 " clip-rule="nonzero"/></clipPath><clipPath id="3f41882046"><path d="M 51 42 L 60.355469 42 L 60.355469 55 L 51 55 Z M 51 42 " clip-rule="nonzero"/></clipPath></defs><path fill="#b98658" d="M 13.601562 44.949219 L 13.574219 44.902344 L 13.601562 44.949219 " fill-opacity="1" fill-rule="nonzero"/><path fill="#b98658" d="M 14.429688 44.65625 L 18.535156 36.667969 C 18.042969 36.75 17.542969 36.8125 17.042969 36.847656 L 13.5625 44.378906 C 13.488281 44.542969 13.496094 44.722656 13.5625 44.875 C 13.585938 44.894531 13.613281 44.90625 13.636719 44.921875 C 13.929688 45.0625 14.28125 44.945312 14.429688 44.65625 " fill-opacity="1" fill-rule="nonzero"/><g clip-path="url(#3115de660c)"><path fill="#b98658" d="M 13.746094 45.109375 L 13.714844 45.078125 L 13.746094 45.109375 " fill-opacity="1" fill-rule="nonzero"/></g><g clip-path="url(#d939672175)"><path fill="#b98658" d="M 13.664062 45.027344 L 13.632812 44.992188 L 13.664062 45.027344 " fill-opacity="1" fill-rule="nonzero"/></g><path fill="#b98658" d="M 20.265625 29.878906 C 20.566406 30 20.894531 30.089844 21.230469 30.152344 L 21.90625 26.324219 L 20.265625 29.878906 " fill-opacity="1" fill-rule="nonzero"/><g clip-path="url(#d78519e9fd)"><path fill="#b58050" d="M 13.84375 45.167969 C 13.808594 45.148438 13.777344 45.128906 13.746094 45.105469 C 13.777344 45.128906 13.808594 45.148438 13.84375 45.167969 " fill-opacity="1" fill-rule="nonzero"/><path fill="#b58050" d="M 13.714844 45.078125 L 13.664062 45.03125 L 13.714844 45.078125 " fill-opacity="1" fill-rule="nonzero"/></g><path fill="#b58050" d="M 13.558594 44.871094 L 13.574219 44.898438 L 13.5625 44.871094 L 13.558594 44.871094 " fill-opacity="1" fill-rule="nonzero"/><path fill="#b58050" d="M 13.632812 44.992188 L 13.601562 44.945312 L 13.632812 44.992188 " fill-opacity="1" fill-rule="nonzero"/><g clip-path="url(#64e9286964)"><path fill="#b58050" d="M 14.429688 44.652344 C 14.28125 44.945312 13.929688 45.058594 13.636719 44.917969 C 13.613281 44.902344 13.585938 44.890625 13.5625 44.875 L 13.601562 44.945312 L 13.632812 44.992188 L 13.664062 45.03125 L 13.714844 45.078125 L 13.746094 45.105469 C 13.777344 45.128906 13.808594 45.148438 13.84375 45.167969 C 14.132812 45.308594 14.484375 45.191406 14.632812 44.902344 L 18.898438 36.601562 C 18.777344 36.625 18.65625 36.644531 18.535156 36.667969 L 14.429688 44.652344 " fill-opacity="1" fill-rule="nonzero"/></g><g clip-path="url(#c16fe19cbb)"><path fill="#642918" d="M 35.667969 6 C 35.675781 5.964844 35.683594 5.929688 35.6875 5.894531 C 35.683594 5.925781 35.675781 5.949219 35.671875 5.980469 L 35.667969 6 " fill-opacity="1" fill-rule="nonzero"/><path fill="#642918" d="M 35.785156 5.101562 L 35.792969 5.039062 L 35.789062 5.066406 L 35.785156 5.101562 " fill-opacity="1" fill-rule="nonzero"/></g><g clip-path="url(#2f67a236ee)"><path fill="#642918" d="M 35.640625 6.117188 L 35.648438 6.089844 L 35.648438 6.09375 L 35.640625 6.117188 " fill-opacity="1" fill-rule="nonzero"/></g><g clip-path="url(#e3261a0358)"><path fill="#642918" d="M 35.777344 5.234375 C 35.769531 5.304688 35.761719 5.367188 35.757812 5.4375 C 35.761719 5.367188 35.769531 5.304688 35.777344 5.234375 " fill-opacity="1" fill-rule="nonzero"/></g><g clip-path="url(#f2dd301387)"><path fill="#642918" d="M 35.808594 4.5625 C 35.808594 4.628906 35.804688 4.703125 35.804688 4.773438 C 35.804688 4.703125 35.808594 4.628906 35.808594 4.5625 " fill-opacity="1" fill-rule="nonzero"/><path fill="#642918" d="M 35.792969 5 C 35.796875 4.96875 35.796875 4.933594 35.800781 4.898438 L 35.792969 5 " fill-opacity="1" fill-rule="nonzero"/></g><g clip-path="url(#eb712b7e37)"><path fill="#642918" d="M 35.738281 5.566406 C 35.730469 5.632812 35.71875 5.703125 35.707031 5.773438 C 35.71875 5.703125 35.730469 5.632812 35.738281 5.566406 " fill-opacity="1" fill-rule="nonzero"/></g><g clip-path="url(#c5b3c83f37)"><path fill="#642918" d="M 31.023438 5.019531 C 31.375 4.433594 31.878906 4.152344 32.523438 3.984375 C 32.992188 3.867188 33.390625 3.703125 33.726562 3.347656 C 33.785156 3.289062 34.199219 2.578125 34.25 2.601562 C 34.382812 2.648438 34.285156 3.144531 34.269531 3.234375 C 34.207031 3.605469 34.078125 3.980469 33.875 4.296875 C 33.480469 4.90625 32.753906 5.074219 32.136719 5.355469 C 31.78125 5.519531 31.46875 5.742188 31.175781 5.996094 C 31.109375 6.050781 30.824219 6.386719 30.710938 6.308594 C 30.429688 6.105469 30.910156 5.199219 31.023438 5.019531 Z M 30.320312 7.222656 C 30.488281 7.496094 30.699219 7.734375 30.964844 7.910156 C 31.4375 8.234375 31.996094 8.292969 32.542969 8.171875 C 33.976562 7.871094 34.976562 6.601562 35.378906 5.246094 C 35.652344 4.324219 35.695312 3.359375 35.625 2.40625 C 35.578125 2.101562 35.523438 1.796875 35.464844 1.496094 C 35.40625 1.171875 35.335938 0.832031 35.199219 0.527344 C 35.117188 0.339844 34.960938 0.0625 34.851562 0.398438 C 34.535156 1.382812 33.902344 2.304688 33.023438 2.867188 C 32.386719 3.277344 31.632812 3.390625 31.058594 3.914062 C 30.535156 4.390625 30.195312 5.042969 30.023438 5.714844 C 29.988281 5.867188 29.960938 6.027344 29.945312 6.179688 C 29.976562 6.386719 30.03125 6.59375 30.09375 6.792969 C 30.160156 6.941406 30.234375 7.085938 30.320312 7.222656 " fill-opacity="1" fill-rule="nonzero"/></g><g clip-path="url(#e8ac7362a8)"><path fill="#642918" d="M 35.800781 4.101562 C 35.800781 4.0625 35.796875 4.023438 35.796875 3.984375 L 35.796875 4.027344 L 35.800781 4.101562 " fill-opacity="1" fill-rule="nonzero"/></g><path fill="#642918" d="M 29.972656 7.160156 L 29.980469 7.210938 L 29.976562 7.191406 L 29.972656 7.160156 " fill-opacity="1" fill-rule="nonzero"/><g clip-path="url(#f85c705ad4)"><path fill="#642918" d="M 35.804688 4.214844 C 35.804688 4.289062 35.808594 4.363281 35.808594 4.4375 C 35.808594 4.363281 35.804688 4.289062 35.804688 4.214844 " fill-opacity="1" fill-rule="nonzero"/></g><path fill="#642918" d="M 29.9375 6.246094 C 29.933594 6.277344 29.933594 6.3125 29.929688 6.351562 C 29.933594 6.320312 29.933594 6.277344 29.9375 6.246094 " fill-opacity="1" fill-rule="nonzero"/><g clip-path="url(#204324ee07)"><path fill="#642918" d="M 35.792969 3.921875 L 35.789062 3.871094 L 35.792969 3.902344 L 35.792969 3.921875 " fill-opacity="1" fill-rule="nonzero"/><path fill="#642918" d="M 35.785156 3.808594 C 35.777344 3.703125 35.769531 3.59375 35.761719 3.484375 C 35.769531 3.597656 35.777344 3.710938 35.785156 3.824219 L 35.785156 3.808594 " fill-opacity="1" fill-rule="nonzero"/></g><path fill="#642918" d="M 29.984375 7.230469 L 29.992188 7.25 L 29.988281 7.242188 L 29.984375 7.230469 " fill-opacity="1" fill-rule="nonzero"/><g clip-path="url(#aad2142d17)"><path fill="#642918" d="M 35.625 2.414062 C 35.648438 2.566406 35.671875 2.722656 35.691406 2.875 C 35.671875 2.722656 35.648438 2.566406 35.625 2.414062 " fill-opacity="1" fill-rule="nonzero"/></g><path fill="#642918" d="M 30.050781 7.53125 C 30.042969 7.496094 30.035156 7.46875 30.027344 7.433594 C 30.035156 7.46875 30.042969 7.496094 30.050781 7.53125 " fill-opacity="1" fill-rule="nonzero"/><path fill="#642918" d="M 29.921875 6.628906 C 29.921875 6.59375 29.925781 6.558594 29.925781 6.527344 C 29.925781 6.558594 29.921875 6.59375 29.921875 6.628906 " fill-opacity="1" fill-rule="nonzero"/><path fill="#642918" d="M 29.945312 6.941406 L 29.9375 6.886719 L 29.945312 6.941406 " fill-opacity="1" fill-rule="nonzero"/><g clip-path="url(#c0d04affcf)"><path fill="#642918" d="M 35.621094 6.222656 C 35.59375 6.332031 35.566406 6.4375 35.535156 6.546875 C 35.566406 6.4375 35.59375 6.332031 35.621094 6.222656 " fill-opacity="1" fill-rule="nonzero"/></g><path fill="#642918" d="M 30.132812 7.789062 C 30.121094 7.757812 30.113281 7.734375 30.105469 7.703125 C 30.113281 7.734375 30.121094 7.757812 30.132812 7.789062 " fill-opacity="1" fill-rule="nonzero"/><g clip-path="url(#f34fa13c36)"><path fill="#642918" d="M 35.703125 2.960938 C 35.722656 3.113281 35.742188 3.273438 35.757812 3.425781 C 35.742188 3.273438 35.722656 3.113281 35.703125 2.960938 " fill-opacity="1" fill-rule="nonzero"/></g><g clip-path="url(#525f44c592)"><path fill="#602616" d="M 35.691406 2.878906 C 35.695312 2.90625 35.699219 2.9375 35.703125 2.964844 C 35.699219 2.9375 35.695312 2.90625 35.691406 2.878906 " fill-opacity="1" fill-rule="nonzero"/></g><path fill="#602616" d="M 29.984375 7.234375 L 29.980469 7.210938 L 29.984375 7.234375 " fill-opacity="1" fill-rule="nonzero"/><path fill="#602616" d="M 29.933594 6.808594 L 29.929688 6.753906 L 29.933594 6.808594 " fill-opacity="1" fill-rule="nonzero"/><path fill="#602616" d="M 30.089844 7.660156 L 30.078125 7.621094 L 30.089844 7.660156 " fill-opacity="1" fill-rule="nonzero"/><g clip-path="url(#c0ac5419ee)"><path fill="#602616" d="M 35.796875 5 L 35.792969 5.039062 L 35.796875 5 " fill-opacity="1" fill-rule="nonzero"/></g><g clip-path="url(#c4f958d70e)"><path fill="#602616" d="M 35.667969 6 C 35.660156 6.027344 35.65625 6.058594 35.648438 6.085938 C 35.65625 6.058594 35.660156 6.027344 35.667969 6 " fill-opacity="1" fill-rule="nonzero"/></g><g clip-path="url(#9fc34e1e14)"><path fill="#602616" d="M 35.753906 3.425781 L 35.761719 3.484375 L 35.753906 3.425781 " fill-opacity="1" fill-rule="nonzero"/><path fill="#602616" d="M 35.792969 3.917969 L 35.796875 3.980469 L 35.792969 3.917969 " fill-opacity="1" fill-rule="nonzero"/></g><g clip-path="url(#0ae2de9b01)"><path fill="#602616" d="M 35.789062 5.066406 L 35.792969 5.039062 L 35.796875 5 L 35.796875 4.945312 C 35.792969 4.984375 35.792969 5.027344 35.789062 5.066406 " fill-opacity="1" fill-rule="nonzero"/></g><g clip-path="url(#0a55ecf450)"><path fill="#602616" d="M 35.378906 5.25 C 34.976562 6.605469 33.976562 7.871094 32.542969 8.175781 C 31.996094 8.289062 31.4375 8.238281 30.964844 7.914062 C 30.703125 7.738281 30.488281 7.496094 30.320312 7.226562 C 30.234375 7.085938 30.160156 6.945312 30.09375 6.796875 C 30.128906 6.90625 30.164062 7.011719 30.207031 7.117188 C 30.277344 7.28125 30.359375 7.441406 30.453125 7.59375 C 30.621094 7.867188 30.835938 8.109375 31.101562 8.285156 C 31.574219 8.605469 32.128906 8.660156 32.675781 8.546875 C 34.113281 8.242188 35.113281 6.972656 35.515625 5.617188 C 35.6875 5.03125 35.769531 4.429688 35.785156 3.824219 C 35.777344 3.710938 35.769531 3.597656 35.761719 3.484375 L 35.757812 3.429688 C 35.742188 3.269531 35.722656 3.117188 35.703125 2.964844 C 35.699219 2.933594 35.695312 2.90625 35.691406 2.875 C 35.671875 2.71875 35.648438 2.566406 35.625 2.414062 L 35.625 2.40625 C 35.695312 3.363281 35.652344 4.328125 35.378906 5.25 " fill-opacity="1" fill-rule="nonzero"/></g><g clip-path="url(#69a27974c6)"><path fill="#602616" d="M 35.648438 6.09375 L 35.648438 6.089844 C 35.65625 6.058594 35.660156 6.03125 35.667969 6 L 35.671875 5.980469 C 35.664062 6.019531 35.65625 6.058594 35.648438 6.09375 " fill-opacity="1" fill-rule="nonzero"/></g><g clip-path="url(#8a325ff839)"><path fill="#602616" d="M 35.796875 4.03125 L 35.796875 3.984375 L 35.792969 3.917969 L 35.792969 3.898438 C 35.792969 3.945312 35.796875 3.988281 35.796875 4.03125 " fill-opacity="1" fill-rule="nonzero"/></g><path fill="#602616" d="M 29.976562 7.191406 L 29.980469 7.210938 L 29.984375 7.234375 L 29.988281 7.246094 L 29.976562 7.191406 " fill-opacity="1" fill-rule="nonzero"/><path fill="#5b2214" d="M 30.050781 7.527344 C 30.058594 7.554688 30.070312 7.589844 30.078125 7.617188 L 30.070312 7.585938 L 30.050781 7.527344 " fill-opacity="1" fill-rule="nonzero"/><path fill="#5b2214" d="M 30.027344 7.429688 C 30.011719 7.371094 30 7.3125 29.992188 7.253906 C 30 7.3125 30.011719 7.371094 30.027344 7.429688 " fill-opacity="1" fill-rule="nonzero"/><g clip-path="url(#da8f3c2bbf)"><path fill="#5b2214" d="M 35.800781 4.101562 C 35.804688 4.140625 35.804688 4.179688 35.804688 4.214844 C 35.804688 4.179688 35.804688 4.140625 35.800781 4.101562 " fill-opacity="1" fill-rule="nonzero"/></g><path fill="#5b2214" d="M 30.226562 8.046875 C 30.191406 7.960938 30.160156 7.871094 30.132812 7.789062 C 30.160156 7.871094 30.191406 7.960938 30.226562 8.046875 " fill-opacity="1" fill-rule="nonzero"/><path fill="#5b2214" d="M 30.089844 7.660156 L 30.105469 7.703125 L 30.097656 7.675781 L 30.089844 7.660156 " fill-opacity="1" fill-rule="nonzero"/><g clip-path="url(#d16e7d16ce)"><path fill="#5b2214" d="M 35.804688 4.769531 C 35.804688 4.816406 35.800781 4.855469 35.796875 4.898438 C 35.800781 4.855469 35.804688 4.816406 35.804688 4.769531 " fill-opacity="1" fill-rule="nonzero"/></g><g clip-path="url(#c1e0ad1dbe)"><path fill="#5b2214" d="M 35.785156 5.101562 C 35.785156 5.144531 35.78125 5.1875 35.777344 5.234375 C 35.78125 5.1875 35.785156 5.144531 35.785156 5.101562 " fill-opacity="1" fill-rule="nonzero"/></g><path fill="#5b2214" d="M 29.972656 7.160156 C 29.960938 7.089844 29.953125 7.015625 29.945312 6.941406 C 29.953125 7.015625 29.960938 7.089844 29.972656 7.160156 " fill-opacity="1" fill-rule="nonzero"/><path fill="#5b2214" d="M 29.933594 6.808594 C 29.933594 6.835938 29.933594 6.859375 29.9375 6.890625 C 29.933594 6.867188 29.933594 6.84375 29.933594 6.816406 L 29.933594 6.808594 " fill-opacity="1" fill-rule="nonzero"/><g clip-path="url(#abdfa4b00d)"><path fill="#5b2214" d="M 35.742188 5.570312 L 35.746094 5.53125 L 35.742188 5.554688 L 35.742188 5.570312 " fill-opacity="1" fill-rule="nonzero"/></g><path fill="#5b2214" d="M 29.945312 6.171875 L 29.9375 6.242188 L 29.945312 6.183594 L 29.945312 6.171875 " fill-opacity="1" fill-rule="nonzero"/><path fill="#5b2214" d="M 29.921875 6.628906 C 29.925781 6.671875 29.925781 6.710938 29.929688 6.757812 L 29.929688 6.738281 C 29.925781 6.703125 29.925781 6.664062 29.921875 6.628906 " fill-opacity="1" fill-rule="nonzero"/><g clip-path="url(#1ce1a4bf3b)"><path fill="#5b2214" d="M 35.707031 5.773438 C 35.703125 5.808594 35.695312 5.855469 35.6875 5.894531 C 35.695312 5.855469 35.703125 5.808594 35.707031 5.773438 " fill-opacity="1" fill-rule="nonzero"/><path fill="#5b2214" d="M 35.75 5.515625 C 35.75 5.488281 35.753906 5.460938 35.757812 5.4375 L 35.75 5.472656 L 35.75 5.515625 " fill-opacity="1" fill-rule="nonzero"/></g><g clip-path="url(#984559ff96)"><path fill="#5b2214" d="M 35.785156 3.800781 L 35.785156 3.804688 L 35.789062 3.871094 L 35.785156 3.800781 " fill-opacity="1" fill-rule="nonzero"/></g><path fill="#5b2214" d="M 29.929688 6.367188 C 29.925781 6.417969 29.925781 6.472656 29.925781 6.527344 C 29.925781 6.476562 29.925781 6.429688 29.929688 6.378906 L 29.929688 6.367188 " fill-opacity="1" fill-rule="nonzero"/><g clip-path="url(#e403d1654e)"><path fill="#5b2214" d="M 35.621094 6.222656 C 35.628906 6.1875 35.636719 6.152344 35.640625 6.121094 C 35.636719 6.152344 35.628906 6.1875 35.621094 6.222656 " fill-opacity="1" fill-rule="nonzero"/></g><g clip-path="url(#a2a5e0ba53)"><path fill="#5b2214" d="M 35.796875 4.945312 L 35.796875 4.902344 C 35.800781 4.859375 35.804688 4.8125 35.804688 4.769531 C 35.804688 4.699219 35.808594 4.632812 35.808594 4.5625 L 35.808594 4.539062 C 35.808594 4.675781 35.804688 4.8125 35.796875 4.945312 " fill-opacity="1" fill-rule="nonzero"/></g><g clip-path="url(#85f290efd6)"><path fill="#5b2214" d="M 35.792969 3.898438 L 35.789062 3.875 L 35.785156 3.8125 L 35.785156 3.820312 C 35.785156 3.847656 35.789062 3.875 35.792969 3.898438 " fill-opacity="1" fill-rule="nonzero"/></g><g clip-path="url(#7170fca796)"><path fill="#5b2214" d="M 35.808594 4.441406 L 35.808594 4.4375 C 35.808594 4.363281 35.804688 4.292969 35.804688 4.21875 C 35.804688 4.179688 35.800781 4.140625 35.800781 4.101562 L 35.796875 4.035156 C 35.804688 4.171875 35.808594 4.308594 35.808594 4.441406 " fill-opacity="1" fill-rule="nonzero"/></g><path fill="#5b2214" d="M 29.988281 7.246094 L 29.988281 7.253906 C 30 7.3125 30.011719 7.371094 30.027344 7.433594 C 30.035156 7.464844 30.042969 7.496094 30.050781 7.527344 L 30.070312 7.589844 C 30.039062 7.476562 30.011719 7.359375 29.988281 7.246094 " fill-opacity="1" fill-rule="nonzero"/><path fill="#5b2214" d="M 30.070312 6.746094 L 30.09375 6.796875 C 30.03125 6.59375 29.976562 6.386719 29.945312 6.179688 L 29.9375 6.242188 C 29.933594 6.28125 29.933594 6.3125 29.929688 6.347656 C 29.96875 6.488281 30.015625 6.613281 30.070312 6.746094 " fill-opacity="1" fill-rule="nonzero"/><path fill="#5b2214" d="M 29.933594 6.816406 C 29.933594 6.839844 29.933594 6.867188 29.9375 6.890625 L 29.945312 6.945312 C 29.953125 7.015625 29.960938 7.085938 29.972656 7.160156 L 29.976562 7.1875 C 29.957031 7.066406 29.941406 6.945312 29.933594 6.816406 " fill-opacity="1" fill-rule="nonzero"/><path fill="#5b2214" d="M 29.929688 6.378906 C 29.925781 6.425781 29.925781 6.476562 29.925781 6.527344 C 29.925781 6.558594 29.921875 6.59375 29.921875 6.628906 C 29.925781 6.664062 29.925781 6.703125 29.929688 6.738281 C 29.921875 6.621094 29.921875 6.496094 29.929688 6.378906 " fill-opacity="1" fill-rule="nonzero"/><g clip-path="url(#160b53d36d)"><path fill="#5b2214" d="M 35.75 5.472656 L 35.757812 5.4375 C 35.761719 5.371094 35.769531 5.300781 35.777344 5.238281 C 35.78125 5.191406 35.785156 5.148438 35.785156 5.105469 L 35.789062 5.070312 C 35.78125 5.203125 35.769531 5.339844 35.75 5.472656 " fill-opacity="1" fill-rule="nonzero"/></g><g clip-path="url(#5f93aa2b82)"><path fill="#5b2214" d="M 35.648438 6.09375 C 35.613281 6.246094 35.578125 6.390625 35.535156 6.542969 C 35.566406 6.4375 35.59375 6.328125 35.621094 6.21875 C 35.628906 6.1875 35.636719 6.152344 35.640625 6.117188 L 35.648438 6.09375 " fill-opacity="1" fill-rule="nonzero"/></g><path fill="#5b2214" d="M 30.105469 7.707031 C 30.113281 7.730469 30.121094 7.761719 30.132812 7.792969 C 30.160156 7.875 30.191406 7.957031 30.226562 8.039062 C 30.175781 7.921875 30.132812 7.800781 30.097656 7.679688 L 30.105469 7.707031 " fill-opacity="1" fill-rule="nonzero"/><g clip-path="url(#470362a7a5)"><path fill="#5b2214" d="M 35.671875 5.984375 C 35.675781 5.953125 35.683594 5.925781 35.6875 5.894531 C 35.695312 5.855469 35.703125 5.816406 35.707031 5.773438 C 35.71875 5.703125 35.730469 5.636719 35.742188 5.566406 L 35.742188 5.554688 C 35.722656 5.699219 35.699219 5.839844 35.671875 5.984375 " fill-opacity="1" fill-rule="nonzero"/></g><path fill="#5b2214" d="M 29.929688 6.734375 L 29.929688 6.75 L 29.933594 6.808594 L 29.933594 6.8125 C 29.933594 6.789062 29.929688 6.761719 29.929688 6.734375 " fill-opacity="1" fill-rule="nonzero"/><path fill="#5b2214" d="M 30.070312 7.585938 L 30.089844 7.664062 L 30.097656 7.679688 C 30.085938 7.648438 30.078125 7.613281 30.070312 7.585938 " fill-opacity="1" fill-rule="nonzero"/><g clip-path="url(#25f0e57dd0)"><path fill="#5b2214" d="M 35.742188 5.554688 L 35.746094 5.53125 L 35.746094 5.511719 L 35.75 5.472656 C 35.75 5.5 35.746094 5.523438 35.742188 5.554688 " fill-opacity="1" fill-rule="nonzero"/></g><g clip-path="url(#7524018225)"><path fill="#5b2214" d="M 35.671875 5.980469 C 35.699219 5.835938 35.722656 5.695312 35.742188 5.550781 C 35.746094 5.527344 35.75 5.496094 35.75 5.46875 C 35.769531 5.335938 35.78125 5.203125 35.789062 5.070312 C 35.792969 5.027344 35.792969 4.984375 35.796875 4.945312 C 35.804688 4.808594 35.808594 4.671875 35.808594 4.53125 C 35.808594 4.503906 35.808594 4.472656 35.808594 4.4375 C 35.808594 4.300781 35.804688 4.167969 35.796875 4.03125 C 35.796875 3.984375 35.792969 3.941406 35.792969 3.898438 C 35.789062 3.875 35.785156 3.84375 35.785156 3.820312 C 35.769531 4.425781 35.6875 5.03125 35.515625 5.617188 C 35.113281 6.96875 34.113281 8.238281 32.675781 8.542969 C 32.128906 8.660156 31.574219 8.605469 31.101562 8.285156 C 30.835938 8.101562 30.621094 7.859375 30.453125 7.589844 C 30.359375 7.4375 30.277344 7.28125 30.207031 7.113281 C 30.164062 7.007812 30.128906 6.902344 30.09375 6.792969 L 30.070312 6.742188 C 30.015625 6.613281 29.96875 6.480469 29.929688 6.347656 L 29.929688 6.375 C 29.921875 6.496094 29.925781 6.613281 29.929688 6.734375 C 29.929688 6.761719 29.933594 6.789062 29.933594 6.8125 C 29.941406 6.941406 29.957031 7.0625 29.976562 7.1875 L 29.988281 7.238281 C 30.011719 7.359375 30.039062 7.472656 30.070312 7.585938 C 30.078125 7.613281 30.085938 7.648438 30.09375 7.679688 C 30.132812 7.800781 30.175781 7.925781 30.226562 8.042969 C 30.265625 8.136719 30.3125 8.226562 30.355469 8.3125 L 32.695312 9.457031 L 32.6875 9.46875 L 32.695312 9.46875 C 34.132812 9.164062 35.132812 7.894531 35.535156 6.546875 C 35.578125 6.394531 35.613281 6.246094 35.648438 6.09375 C 35.65625 6.054688 35.664062 6.015625 35.671875 5.980469 " fill-opacity="1" fill-rule="nonzero"/></g><path fill="#602616" d="M 31.175781 5.992188 C 31.46875 5.742188 31.78125 5.515625 32.136719 5.351562 C 32.753906 5.070312 33.480469 4.90625 33.875 4.296875 C 34.078125 3.980469 34.207031 3.601562 34.269531 3.234375 C 34.285156 3.144531 34.382812 2.644531 34.25 2.597656 C 34.199219 2.582031 33.785156 3.289062 33.726562 3.347656 C 33.386719 3.703125 32.992188 3.863281 32.523438 3.988281 C 31.878906 4.148438 31.375 4.4375 31.023438 5.015625 C 30.910156 5.207031 30.429688 6.105469 30.710938 6.308594 C 30.824219 6.386719 31.109375 6.054688 31.175781 5.992188 " fill-opacity="1" fill-rule="nonzero"/><path fill="#b1b3b2" d="M 30.960938 13.53125 L 30.964844 13.566406 L 30.960938 13.53125 " fill-opacity="1" fill-rule="nonzero"/><path fill="#b1b3b2" d="M 28.226562 12.652344 L 30.34375 13.691406 L 30.511719 13.773438 C 30.691406 13.753906 30.820312 13.691406 30.875 13.582031 C 30.914062 13.5 30.90625 13.402344 30.859375 13.289062 C 30.535156 13.34375 30.027344 13.238281 29.5 12.984375 C 29.414062 12.941406 29.332031 12.894531 29.253906 12.847656 L 29.191406 12.8125 C 29.117188 12.769531 29.050781 12.71875 28.984375 12.675781 L 28.972656 12.667969 C 28.902344 12.617188 28.84375 12.570312 28.785156 12.519531 L 28.738281 12.480469 C 28.6875 12.433594 28.640625 12.390625 28.597656 12.34375 L 28.582031 12.332031 C 28.539062 12.28125 28.5 12.234375 28.46875 12.183594 L 28.441406 12.144531 L 28.433594 12.132812 C 28.285156 12.15625 28.171875 12.214844 28.125 12.3125 C 28.074219 12.414062 28.105469 12.550781 28.191406 12.695312 L 28.199219 12.707031 L 28.226562 12.652344 " fill-opacity="1" fill-rule="nonzero"/><path fill="#b1b3b2" d="M 30.921875 13.386719 L 30.941406 13.433594 L 30.921875 13.386719 " fill-opacity="1" fill-rule="nonzero"/><path fill="#b1b3b2" d="M 28.359375 12.917969 L 28.34375 12.90625 L 28.359375 12.917969 " fill-opacity="1" fill-rule="nonzero"/><path fill="#b1b3b2" d="M 28.546875 13.089844 L 28.5 13.050781 L 28.546875 13.089844 " fill-opacity="1" fill-rule="nonzero"/><path fill="#b1b3b2" d="M 28.746094 13.253906 L 28.734375 13.242188 L 28.746094 13.253906 " fill-opacity="1" fill-rule="nonzero"/><path fill="#b1b3b2" d="M 28.230469 12.761719 L 28.203125 12.714844 L 28.230469 12.761719 " fill-opacity="1" fill-rule="nonzero"/><path fill="#b1b3b2" d="M 29.011719 13.421875 L 28.953125 13.386719 L 29.011719 13.421875 " fill-opacity="1" fill-rule="nonzero"/><path fill="#b1b3b2" d="M 28.226562 12.652344 L 28.199219 12.707031 C 28.394531 12.960938 28.75 13.234375 29.195312 13.453125 C 29.597656 13.648438 29.992188 13.757812 30.300781 13.773438 L 30.34375 13.691406 L 28.226562 12.652344 " fill-opacity="1" fill-rule="nonzero"/><path fill="#b1b3b2" d="M 30.34375 13.691406 L 30.511719 13.773438 L 30.34375 13.691406 " fill-opacity="1" fill-rule="nonzero"/><path fill="#b1b3b2" d="M 30.300781 13.777344 C 30.375 13.78125 30.449219 13.777344 30.511719 13.773438 L 30.34375 13.691406 L 30.300781 13.777344 " fill-opacity="1" fill-rule="nonzero"/><path fill="#878a8b" d="M 30.941406 13.433594 C 30.949219 13.46875 30.957031 13.5 30.960938 13.527344 C 30.957031 13.5 30.949219 13.46875 30.941406 13.433594 " fill-opacity="1" fill-rule="nonzero"/><path fill="#878a8b" d="M 28.191406 12.699219 L 28.179688 12.679688 L 28.199219 12.710938 L 28.191406 12.699219 " fill-opacity="1" fill-rule="nonzero"/><path fill="#878a8b" d="M 30.921875 13.386719 C 30.90625 13.355469 30.890625 13.324219 30.871094 13.292969 C 30.890625 13.324219 30.90625 13.355469 30.921875 13.386719 " fill-opacity="1" fill-rule="nonzero"/><path fill="#878a8b" d="M 30.964844 13.570312 C 30.964844 13.609375 30.957031 13.652344 30.941406 13.6875 C 30.957031 13.652344 30.964844 13.609375 30.964844 13.570312 " fill-opacity="1" fill-rule="nonzero"/><path fill="#878a8b" d="M 28.5 13.054688 C 28.449219 13.003906 28.402344 12.960938 28.359375 12.917969 C 28.402344 12.960938 28.449219 13.003906 28.5 13.054688 " fill-opacity="1" fill-rule="nonzero"/><path fill="#878a8b" d="M 28.34375 12.902344 C 28.300781 12.851562 28.261719 12.808594 28.230469 12.761719 C 28.261719 12.808594 28.300781 12.851562 28.34375 12.902344 " fill-opacity="1" fill-rule="nonzero"/><path fill="#878a8b" d="M 29.261719 13.554688 C 29.175781 13.515625 29.09375 13.464844 29.015625 13.421875 C 29.09375 13.464844 29.175781 13.515625 29.261719 13.554688 " fill-opacity="1" fill-rule="nonzero"/><path fill="#878a8b" d="M 28.953125 13.382812 C 28.882812 13.339844 28.808594 13.296875 28.746094 13.246094 C 28.808594 13.296875 28.882812 13.339844 28.953125 13.382812 " fill-opacity="1" fill-rule="nonzero"/><path fill="#878a8b" d="M 28.199219 12.707031 L 28.203125 12.71875 L 28.199219 12.707031 " fill-opacity="1" fill-rule="nonzero"/><path fill="#878a8b" d="M 28.734375 13.242188 C 28.664062 13.195312 28.601562 13.144531 28.546875 13.097656 C 28.601562 13.144531 28.664062 13.195312 28.734375 13.242188 " fill-opacity="1" fill-rule="nonzero"/><path fill="#878a8b" d="M 28.199219 12.707031 L 28.191406 12.699219 L 28.199219 12.710938 L 28.199219 12.707031 " fill-opacity="1" fill-rule="nonzero"/><path fill="#878a8b" d="M 30.859375 13.292969 C 30.90625 13.402344 30.914062 13.5 30.875 13.585938 C 30.820312 13.691406 30.691406 13.753906 30.511719 13.773438 L 30.609375 13.816406 L 30.582031 13.875 C 30.757812 13.855469 30.886719 13.792969 30.941406 13.6875 C 30.957031 13.652344 30.964844 13.613281 30.964844 13.570312 L 30.960938 13.53125 C 30.957031 13.5 30.949219 13.46875 30.941406 13.4375 L 30.921875 13.386719 C 30.90625 13.355469 30.890625 13.324219 30.871094 13.292969 L 30.859375 13.292969 " fill-opacity="1" fill-rule="nonzero"/><path fill="#878a8b" d="M 28.199219 12.707031 L 28.199219 12.710938 L 28.203125 12.71875 L 28.230469 12.761719 C 28.261719 12.804688 28.300781 12.851562 28.34375 12.902344 L 28.359375 12.921875 C 28.402344 12.964844 28.449219 13.007812 28.5 13.054688 L 28.546875 13.097656 C 28.601562 13.144531 28.664062 13.195312 28.734375 13.242188 L 28.746094 13.253906 C 28.8125 13.296875 28.878906 13.339844 28.953125 13.390625 L 29.015625 13.421875 C 29.09375 13.464844 29.175781 13.515625 29.261719 13.554688 C 29.617188 13.730469 29.964844 13.832031 30.253906 13.867188 L 30.300781 13.777344 C 29.992188 13.757812 29.597656 13.652344 29.195312 13.453125 C 28.75 13.238281 28.394531 12.960938 28.199219 12.707031 " fill-opacity="1" fill-rule="nonzero"/><path fill="#878a8b" d="M 30.609375 13.820312 L 30.511719 13.769531 L 30.609375 13.820312 " fill-opacity="1" fill-rule="nonzero"/><path fill="#878a8b" d="M 30.511719 13.769531 C 30.449219 13.777344 30.375 13.78125 30.300781 13.777344 L 30.253906 13.863281 C 30.375 13.878906 30.484375 13.882812 30.582031 13.871094 L 30.609375 13.820312 L 30.511719 13.769531 " fill-opacity="1" fill-rule="nonzero"/><path fill="#b1b3b2" d="M 31.109375 12.71875 L 31.097656 12.699219 L 31.09375 12.699219 L 31.109375 12.71875 " fill-opacity="1" fill-rule="nonzero"/><path fill="#b1b3b2" d="M 29.804688 12.4375 C 30.25 12.65625 30.605469 12.933594 30.800781 13.1875 C 30.953125 13.164062 31.066406 13.105469 31.113281 13.007812 C 31.15625 12.921875 31.140625 12.8125 31.085938 12.691406 L 28.738281 11.546875 C 28.554688 11.566406 28.417969 11.625 28.363281 11.738281 C 28.3125 11.84375 28.34375 11.976562 28.429688 12.121094 L 28.4375 12.132812 C 28.757812 12.078125 29.273438 12.179688 29.804688 12.4375 " fill-opacity="1" fill-rule="nonzero"/><path fill="#b1b3b2" d="M 31.199219 12.953125 L 31.203125 12.992188 L 31.199219 12.953125 " fill-opacity="1" fill-rule="nonzero"/><path fill="#b1b3b2" d="M 31.160156 12.816406 L 31.179688 12.863281 L 31.160156 12.816406 " fill-opacity="1" fill-rule="nonzero"/><path fill="#b1b3b2" d="M 28.46875 12.183594 L 28.441406 12.144531 L 28.46875 12.183594 " fill-opacity="1" fill-rule="nonzero"/><path fill="#b1b3b2" d="M 28.597656 12.347656 L 28.582031 12.328125 L 28.597656 12.347656 " fill-opacity="1" fill-rule="nonzero"/><path fill="#b1b3b2" d="M 28.785156 12.519531 L 28.738281 12.480469 L 28.785156 12.519531 " fill-opacity="1" fill-rule="nonzero"/><path fill="#b1b3b2" d="M 28.984375 12.675781 L 28.972656 12.667969 L 28.984375 12.675781 " fill-opacity="1" fill-rule="nonzero"/><path fill="#b1b3b2" d="M 29.253906 12.847656 L 29.191406 12.816406 L 29.253906 12.847656 " fill-opacity="1" fill-rule="nonzero"/><path fill="#b1b3b2" d="M 29.804688 12.441406 C 29.273438 12.183594 28.757812 12.078125 28.4375 12.132812 C 28.632812 12.382812 28.988281 12.664062 29.433594 12.882812 C 29.964844 13.140625 30.476562 13.246094 30.800781 13.195312 C 30.605469 12.933594 30.25 12.664062 29.804688 12.441406 " fill-opacity="1" fill-rule="nonzero"/><path fill="#878a8b" d="M 31.109375 12.714844 C 31.128906 12.75 31.144531 12.777344 31.160156 12.8125 C 31.144531 12.777344 31.128906 12.75 31.109375 12.714844 " fill-opacity="1" fill-rule="nonzero"/><path fill="#878a8b" d="M 28.429688 12.125 L 28.417969 12.105469 L 28.433594 12.128906 L 28.429688 12.125 " fill-opacity="1" fill-rule="nonzero"/><path fill="#878a8b" d="M 31.179688 12.863281 C 31.1875 12.898438 31.195312 12.925781 31.199219 12.957031 C 31.195312 12.925781 31.1875 12.898438 31.179688 12.863281 " fill-opacity="1" fill-rule="nonzero"/><path fill="#878a8b" d="M 31.203125 12.996094 C 31.203125 13.039062 31.195312 13.078125 31.179688 13.113281 C 31.195312 13.078125 31.203125 13.039062 31.203125 12.996094 " fill-opacity="1" fill-rule="nonzero"/><path fill="#878a8b" d="M 28.972656 12.664062 C 28.902344 12.617188 28.84375 12.566406 28.785156 12.519531 C 28.84375 12.566406 28.902344 12.617188 28.972656 12.664062 " fill-opacity="1" fill-rule="nonzero"/><path fill="#878a8b" d="M 29.191406 12.8125 C 29.117188 12.769531 29.046875 12.722656 28.984375 12.675781 C 29.046875 12.722656 29.117188 12.769531 29.191406 12.8125 " fill-opacity="1" fill-rule="nonzero"/><path fill="#878a8b" d="M 29.5 12.976562 C 29.414062 12.9375 29.332031 12.890625 29.253906 12.84375 C 29.332031 12.890625 29.414062 12.9375 29.5 12.976562 " fill-opacity="1" fill-rule="nonzero"/><path fill="#878a8b" d="M 28.738281 12.476562 C 28.6875 12.433594 28.640625 12.390625 28.597656 12.34375 C 28.640625 12.390625 28.6875 12.433594 28.738281 12.476562 " fill-opacity="1" fill-rule="nonzero"/><path fill="#878a8b" d="M 28.433594 12.132812 L 28.441406 12.144531 L 28.433594 12.132812 " fill-opacity="1" fill-rule="nonzero"/><path fill="#878a8b" d="M 28.582031 12.328125 C 28.539062 12.277344 28.5 12.234375 28.46875 12.183594 C 28.5 12.234375 28.539062 12.277344 28.582031 12.328125 " fill-opacity="1" fill-rule="nonzero"/><path fill="#878a8b" d="M 28.4375 12.128906 L 28.429688 12.121094 L 28.433594 12.132812 L 28.4375 12.128906 " fill-opacity="1" fill-rule="nonzero"/><path fill="#878a8b" d="M 31.085938 12.695312 C 31.140625 12.816406 31.15625 12.921875 31.113281 13.011719 C 31.066406 13.109375 30.953125 13.167969 30.800781 13.191406 L 30.828125 13.230469 L 30.820312 13.214844 L 30.835938 13.238281 L 30.867188 13.292969 L 30.871094 13.292969 C 31.019531 13.269531 31.132812 13.210938 31.179688 13.113281 C 31.195312 13.078125 31.203125 13.039062 31.203125 12.996094 L 31.199219 12.957031 C 31.195312 12.929688 31.1875 12.898438 31.179688 12.863281 L 31.160156 12.816406 C 31.144531 12.78125 31.128906 12.753906 31.109375 12.71875 L 31.09375 12.699219 L 31.085938 12.695312 " fill-opacity="1" fill-rule="nonzero"/><path fill="#878a8b" d="M 30.835938 13.238281 L 30.867188 13.289062 L 30.835938 13.238281 " fill-opacity="1" fill-rule="nonzero"/><path fill="#878a8b" d="M 29.433594 12.878906 C 28.988281 12.664062 28.632812 12.382812 28.4375 12.132812 L 28.433594 12.132812 L 28.441406 12.144531 L 28.46875 12.183594 C 28.5 12.234375 28.539062 12.28125 28.582031 12.332031 L 28.597656 12.34375 C 28.640625 12.390625 28.6875 12.4375 28.738281 12.480469 L 28.785156 12.519531 C 28.84375 12.570312 28.902344 12.617188 28.972656 12.667969 L 28.984375 12.675781 C 29.050781 12.726562 29.117188 12.769531 29.191406 12.8125 L 29.253906 12.847656 C 29.332031 12.894531 29.414062 12.941406 29.5 12.984375 C 30.027344 13.238281 30.535156 13.34375 30.859375 13.296875 L 30.828125 13.226562 L 30.800781 13.1875 C 30.476562 13.242188 29.964844 13.140625 29.433594 12.878906 " fill-opacity="1" fill-rule="nonzero"/><path fill="#878a8b" d="M 30.871094 13.292969 L 30.871094 13.289062 L 30.867188 13.289062 L 30.871094 13.292969 " fill-opacity="1" fill-rule="nonzero"/><path fill="#878a8b" d="M 30.820312 13.21875 L 30.828125 13.226562 L 30.835938 13.242188 L 30.820312 13.21875 " fill-opacity="1" fill-rule="nonzero"/><path fill="#878a8b" d="M 30.871094 13.289062 L 30.867188 13.289062 L 30.835938 13.234375 L 30.828125 13.226562 L 30.859375 13.292969 L 30.871094 13.289062 " fill-opacity="1" fill-rule="nonzero"/><path fill="#b1b3b2" d="M 31.121094 9.214844 C 30.855469 9.035156 30.644531 8.792969 30.472656 8.523438 C 30.429688 8.457031 30.394531 8.386719 30.355469 8.320312 L 30.3125 8.292969 L 28.726562 11.539062 L 28.742188 11.550781 C 29.066406 11.519531 29.546875 11.628906 30.042969 11.867188 C 30.511719 12.097656 30.878906 12.390625 31.066406 12.65625 L 31.058594 12.640625 L 31.097656 12.699219 L 31.113281 12.707031 L 32.6875 9.472656 C 32.144531 9.585938 31.589844 9.53125 31.121094 9.214844 " fill-opacity="1" fill-rule="nonzero"/><path fill="#b1b3b2" d="M 30.355469 8.316406 C 30.394531 8.386719 30.429688 8.453125 30.472656 8.523438 C 30.644531 8.792969 30.855469 9.035156 31.121094 9.210938 C 31.589844 9.53125 32.144531 9.589844 32.6875 9.476562 L 32.695312 9.457031 L 30.355469 8.316406 " fill-opacity="1" fill-rule="nonzero"/><path fill="#b1b3b2" d="M 31.09375 12.695312 L 31.097656 12.695312 L 31.074219 12.664062 L 31.09375 12.695312 " fill-opacity="1" fill-rule="nonzero"/><path fill="#b1b3b2" d="M 31.066406 12.652344 C 30.878906 12.386719 30.511719 12.09375 30.042969 11.867188 C 29.546875 11.628906 29.066406 11.515625 28.742188 11.542969 L 31.085938 12.6875 L 31.066406 12.652344 " fill-opacity="1" fill-rule="nonzero"/><path fill="#b1b3b2" d="M 31.0625 12.640625 L 31.074219 12.664062 L 31.0625 12.640625 " fill-opacity="1" fill-rule="nonzero"/><path fill="#b1b3b2" d="M 31.09375 12.699219 L 31.074219 12.664062 L 31.066406 12.652344 L 31.085938 12.691406 L 31.09375 12.699219 " fill-opacity="1" fill-rule="nonzero"/><path fill="#b98658" d="M 19.410156 42.03125 C 19.371094 42.007812 19.339844 41.976562 19.3125 41.945312 C 19.339844 41.976562 19.371094 42.007812 19.410156 42.03125 " fill-opacity="1" fill-rule="nonzero"/><path fill="#b98658" d="M 19.558594 42.089844 C 19.507812 42.082031 19.464844 42.0625 19.425781 42.039062 C 19.464844 42.0625 19.507812 42.082031 19.558594 42.089844 " fill-opacity="1" fill-rule="nonzero"/><path fill="#b98658" d="M 19.875 41.625 L 21.105469 36.03125 C 20.789062 36.132812 20.46875 36.234375 20.144531 36.320312 L 19.214844 41.59375 C 19.191406 41.71875 19.230469 41.84375 19.304688 41.9375 L 19.367188 41.957031 C 19.597656 42.003906 19.824219 41.851562 19.875 41.625 " fill-opacity="1" fill-rule="nonzero"/><path fill="#b58050" d="M 19.304688 41.9375 L 19.3125 41.941406 L 19.304688 41.9375 " fill-opacity="1" fill-rule="nonzero"/><path fill="#b58050" d="M 19.425781 42.035156 L 19.410156 42.027344 L 19.425781 42.035156 " fill-opacity="1" fill-rule="nonzero"/><path fill="#b58050" d="M 19.875 41.621094 C 19.824219 41.851562 19.597656 42 19.367188 41.953125 L 19.304688 41.9375 L 19.3125 41.941406 C 19.339844 41.976562 19.371094 42.003906 19.410156 42.03125 L 19.425781 42.035156 C 19.464844 42.0625 19.507812 42.078125 19.558594 42.089844 C 19.789062 42.136719 20.015625 41.988281 20.066406 41.757812 L 21.34375 35.945312 C 21.261719 35.972656 21.183594 36.003906 21.105469 36.03125 L 19.875 41.621094 " fill-opacity="1" fill-rule="nonzero"/><path fill="#642918" d="M 23.714844 12.054688 L 23.726562 12.089844 L 23.722656 12.074219 L 23.714844 12.054688 " fill-opacity="1" fill-rule="nonzero"/><path fill="#642918" d="M 23.636719 11.714844 C 23.644531 11.75 23.648438 11.785156 23.65625 11.8125 L 23.660156 11.824219 C 23.65625 11.789062 23.644531 11.753906 23.636719 11.714844 " fill-opacity="1" fill-rule="nonzero"/><path fill="#642918" d="M 23.660156 11.835938 C 23.671875 11.898438 23.6875 11.957031 23.703125 12.015625 C 23.695312 11.992188 23.691406 11.964844 23.683594 11.933594 C 23.675781 11.898438 23.667969 11.871094 23.660156 11.835938 " fill-opacity="1" fill-rule="nonzero"/><path fill="#642918" d="M 27.339844 9.066406 C 27.351562 9.101562 27.363281 9.136719 27.371094 9.167969 C 27.363281 9.136719 27.351562 9.101562 27.339844 9.066406 " fill-opacity="1" fill-rule="nonzero"/><path fill="#642918" d="M 26.980469 8.117188 C 27.003906 8.164062 27.023438 8.214844 27.046875 8.261719 C 27.023438 8.214844 27.003906 8.164062 26.980469 8.117188 " fill-opacity="1" fill-rule="nonzero"/><path fill="#642918" d="M 23.859375 12.425781 C 23.890625 12.5 23.929688 12.574219 23.972656 12.640625 L 23.9375 12.578125 C 23.910156 12.527344 23.882812 12.480469 23.859375 12.425781 " fill-opacity="1" fill-rule="nonzero"/><path fill="#642918" d="M 27.621094 10.484375 L 27.617188 10.425781 L 27.617188 10.453125 L 27.621094 10.484375 " fill-opacity="1" fill-rule="nonzero"/><path fill="#642918" d="M 23.832031 12.367188 L 23.851562 12.40625 L 23.832031 12.367188 " fill-opacity="1" fill-rule="nonzero"/><path fill="#642918" d="M 27.160156 8.558594 C 27.175781 8.59375 27.191406 8.632812 27.203125 8.664062 C 27.191406 8.632812 27.175781 8.59375 27.160156 8.558594 " fill-opacity="1" fill-rule="nonzero"/><path fill="#642918" d="M 23.746094 12.140625 C 23.765625 12.203125 23.789062 12.261719 23.816406 12.324219 L 23.789062 12.253906 C 23.773438 12.214844 23.757812 12.179688 23.746094 12.140625 " fill-opacity="1" fill-rule="nonzero"/><path fill="#642918" d="M 24.175781 10.671875 C 24.316406 10.199219 24.617188 9.902344 25.039062 9.667969 C 25.347656 9.496094 25.59375 9.308594 25.765625 8.996094 C 25.796875 8.945312 25.957031 8.371094 25.996094 8.371094 C 26.097656 8.382812 26.121094 8.75 26.125 8.8125 C 26.152344 9.089844 26.132812 9.378906 26.046875 9.636719 C 25.882812 10.136719 25.40625 10.390625 25.019531 10.703125 C 24.800781 10.882812 24.625 11.101562 24.464844 11.335938 C 24.429688 11.382812 24.289062 11.675781 24.199219 11.640625 C 23.960938 11.546875 24.132812 10.824219 24.175781 10.671875 Z M 24.089844 12.355469 C 24.261719 12.511719 24.457031 12.644531 24.671875 12.71875 C 25.066406 12.855469 25.464844 12.792969 25.828125 12.609375 C 26.78125 12.128906 27.25 11.050781 27.28125 10.023438 C 27.300781 9.332031 27.15625 8.652344 26.929688 8 C 26.839844 7.789062 26.742188 7.578125 26.644531 7.375 C 26.539062 7.15625 26.429688 6.933594 26.277344 6.738281 C 26.183594 6.621094 26.023438 6.457031 26.011719 6.714844 C 25.96875 7.46875 25.695312 8.230469 25.183594 8.789062 C 24.8125 9.195312 24.300781 9.417969 23.996094 9.894531 C 23.71875 10.324219 23.597656 10.84375 23.605469 11.351562 C 23.605469 11.46875 23.617188 11.582031 23.636719 11.695312 C 23.695312 11.832031 23.769531 11.957031 23.847656 12.085938 C 23.921875 12.179688 24.003906 12.273438 24.089844 12.355469 " fill-opacity="1" fill-rule="nonzero"/><path fill="#642918" d="M 27.574219 10.054688 C 27.566406 10.015625 27.5625 9.980469 27.558594 9.941406 L 27.5625 9.988281 L 27.574219 10.054688 " fill-opacity="1" fill-rule="nonzero"/><path fill="#642918" d="M 27.457031 9.476562 C 27.472656 9.527344 27.480469 9.574219 27.492188 9.625 C 27.480469 9.574219 27.472656 9.527344 27.457031 9.476562 " fill-opacity="1" fill-rule="nonzero"/><path fill="#642918" d="M 24.179688 12.949219 C 24.121094 12.871094 24.070312 12.792969 24.019531 12.714844 C 24.070312 12.792969 24.121094 12.871094 24.179688 12.949219 " fill-opacity="1" fill-rule="nonzero"/><path fill="#602616" d="M 23.746094 12.140625 L 23.726562 12.085938 L 23.746094 12.140625 " fill-opacity="1" fill-rule="nonzero"/><path fill="#602616" d="M 27.300781 8.945312 C 27.269531 8.851562 27.238281 8.757812 27.203125 8.664062 C 27.238281 8.761719 27.269531 8.855469 27.304688 8.953125 L 27.300781 8.945312 " fill-opacity="1" fill-rule="nonzero"/><path fill="#602616" d="M 27.621094 10.484375 C 27.628906 10.625 27.636719 10.765625 27.628906 10.914062 C 27.636719 10.765625 27.628906 10.625 27.621094 10.484375 " fill-opacity="1" fill-rule="nonzero"/><path fill="#602616" d="M 27.046875 8.261719 C 27.085938 8.359375 27.125 8.460938 27.160156 8.554688 C 27.125 8.460938 27.085938 8.359375 27.046875 8.261719 " fill-opacity="1" fill-rule="nonzero"/><path fill="#602616" d="M 23.859375 12.421875 L 23.851562 12.40625 L 23.859375 12.421875 " fill-opacity="1" fill-rule="nonzero"/><path fill="#602616" d="M 27.605469 10.320312 C 27.597656 10.230469 27.585938 10.140625 27.574219 10.054688 C 27.585938 10.121094 27.589844 10.195312 27.597656 10.265625 L 27.605469 10.320312 " fill-opacity="1" fill-rule="nonzero"/><path fill="#602616" d="M 27.339844 9.066406 C 27.332031 9.039062 27.320312 9.003906 27.308594 8.972656 L 27.339844 9.066406 " fill-opacity="1" fill-rule="nonzero"/><path fill="#602616" d="M 23.65625 11.8125 L 23.660156 11.835938 L 23.65625 11.8125 " fill-opacity="1" fill-rule="nonzero"/><path fill="#602616" d="M 26.925781 7.980469 L 26.929688 7.996094 C 26.949219 8.035156 26.964844 8.074219 26.980469 8.113281 C 26.960938 8.070312 26.945312 8.027344 26.925781 7.980469 " fill-opacity="1" fill-rule="nonzero"/><path fill="#602616" d="M 27.445312 9.417969 C 27.421875 9.335938 27.394531 9.253906 27.371094 9.167969 C 27.382812 9.203125 27.390625 9.242188 27.402344 9.277344 C 27.414062 9.328125 27.429688 9.371094 27.445312 9.417969 " fill-opacity="1" fill-rule="nonzero"/><path fill="#602616" d="M 23.992188 12.675781 L 24.019531 12.71875 L 24.003906 12.695312 L 23.992188 12.675781 " fill-opacity="1" fill-rule="nonzero"/><path fill="#602616" d="M 27.457031 9.484375 L 27.445312 9.425781 L 27.453125 9.46875 L 27.457031 9.484375 " fill-opacity="1" fill-rule="nonzero"/><path fill="#602616" d="M 27.542969 9.855469 C 27.527344 9.78125 27.507812 9.703125 27.492188 9.625 C 27.5 9.667969 27.511719 9.714844 27.519531 9.761719 C 27.527344 9.792969 27.535156 9.824219 27.542969 9.855469 " fill-opacity="1" fill-rule="nonzero"/><path fill="#602616" d="M 23.660156 11.824219 L 23.65625 11.8125 L 23.660156 11.835938 C 23.667969 11.867188 23.675781 11.898438 23.683594 11.929688 C 23.675781 11.898438 23.667969 11.859375 23.660156 11.824219 " fill-opacity="1" fill-rule="nonzero"/><path fill="#602616" d="M 27.519531 9.761719 C 27.511719 9.71875 27.5 9.667969 27.492188 9.625 C 27.480469 9.578125 27.46875 9.527344 27.457031 9.480469 L 27.453125 9.46875 C 27.480469 9.566406 27.5 9.664062 27.519531 9.761719 " fill-opacity="1" fill-rule="nonzero"/><path fill="#602616" d="M 27.597656 10.265625 C 27.589844 10.199219 27.585938 10.125 27.574219 10.054688 L 27.5625 9.988281 C 27.578125 10.078125 27.589844 10.171875 27.597656 10.265625 " fill-opacity="1" fill-rule="nonzero"/><path fill="#602616" d="M 23.839844 12.382812 L 23.851562 12.40625 L 23.859375 12.425781 C 23.882812 12.472656 23.910156 12.523438 23.9375 12.574219 C 23.902344 12.511719 23.871094 12.449219 23.839844 12.382812 " fill-opacity="1" fill-rule="nonzero"/><path fill="#602616" d="M 23.722656 12.074219 L 23.726562 12.085938 L 23.746094 12.140625 C 23.757812 12.179688 23.773438 12.21875 23.789062 12.253906 C 23.765625 12.195312 23.742188 12.136719 23.722656 12.074219 " fill-opacity="1" fill-rule="nonzero"/><path fill="#602616" d="M 27.628906 10.910156 C 27.632812 10.769531 27.628906 10.625 27.621094 10.484375 L 27.617188 10.457031 C 27.628906 10.605469 27.636719 10.757812 27.628906 10.910156 " fill-opacity="1" fill-rule="nonzero"/><path fill="#602616" d="M 27.402344 9.277344 C 27.390625 9.246094 27.382812 9.210938 27.371094 9.171875 C 27.363281 9.136719 27.351562 9.101562 27.339844 9.066406 L 27.316406 9 C 27.347656 9.09375 27.375 9.1875 27.402344 9.277344 " fill-opacity="1" fill-rule="nonzero"/><path fill="#602616" d="M 27.28125 10.027344 C 27.25 11.054688 26.78125 12.132812 25.828125 12.613281 C 25.464844 12.792969 25.066406 12.855469 24.671875 12.71875 C 24.453125 12.644531 24.261719 12.515625 24.089844 12.359375 C 24.003906 12.273438 23.921875 12.183594 23.847656 12.089844 C 23.894531 12.160156 23.9375 12.234375 23.992188 12.304688 C 24.070312 12.40625 24.160156 12.503906 24.253906 12.59375 C 24.421875 12.75 24.617188 12.882812 24.835938 12.957031 C 25.230469 13.09375 25.628906 13.027344 25.992188 12.847656 C 26.945312 12.367188 27.414062 11.289062 27.445312 10.261719 C 27.457031 9.820312 27.402344 9.386719 27.304688 8.953125 C 27.269531 8.863281 27.238281 8.761719 27.203125 8.664062 C 27.191406 8.632812 27.175781 8.597656 27.160156 8.558594 C 27.125 8.460938 27.085938 8.363281 27.046875 8.265625 C 27.023438 8.214844 27.003906 8.164062 26.980469 8.117188 C 26.964844 8.078125 26.949219 8.039062 26.929688 8 C 27.15625 8.65625 27.300781 9.332031 27.28125 10.027344 " fill-opacity="1" fill-rule="nonzero"/><path fill="#602616" d="M 24.019531 12.71875 C 24.070312 12.796875 24.121094 12.875 24.179688 12.953125 C 24.113281 12.867188 24.058594 12.78125 24.003906 12.695312 L 24.019531 12.71875 " fill-opacity="1" fill-rule="nonzero"/><path fill="#5b2214" d="M 27.617188 10.421875 C 27.613281 10.386719 27.609375 10.351562 27.605469 10.316406 L 27.609375 10.34375 C 27.609375 10.371094 27.617188 10.394531 27.617188 10.421875 " fill-opacity="1" fill-rule="nonzero"/><path fill="#5b2214" d="M 27.558594 9.945312 C 27.550781 9.914062 27.546875 9.886719 27.542969 9.859375 L 27.546875 9.902344 L 27.558594 9.945312 " fill-opacity="1" fill-rule="nonzero"/><path fill="#5b2214" d="M 23.972656 12.640625 L 23.992188 12.679688 L 23.984375 12.660156 L 23.972656 12.640625 " fill-opacity="1" fill-rule="nonzero"/><path fill="#5b2214" d="M 23.832031 12.367188 L 23.816406 12.324219 L 23.832031 12.367188 " fill-opacity="1" fill-rule="nonzero"/><path fill="#5b2214" d="M 23.714844 12.050781 L 23.703125 12.015625 L 23.714844 12.050781 " fill-opacity="1" fill-rule="nonzero"/><path fill="#5b2214" d="M 27.296875 8.9375 L 27.300781 8.953125 L 27.308594 8.976562 L 27.296875 8.9375 " fill-opacity="1" fill-rule="nonzero"/><path fill="#5b2214" d="M 23.632812 11.691406 L 23.636719 11.71875 L 23.636719 11.695312 L 23.632812 11.691406 " fill-opacity="1" fill-rule="nonzero"/><path fill="#5b2214" d="M 27.441406 9.421875 L 27.445312 9.425781 L 27.441406 9.421875 " fill-opacity="1" fill-rule="nonzero"/><path fill="#5b2214" d="M 23.9375 12.574219 L 23.972656 12.636719 L 23.984375 12.65625 C 23.964844 12.628906 23.953125 12.601562 23.9375 12.574219 " fill-opacity="1" fill-rule="nonzero"/><path fill="#5b2214" d="M 23.828125 12.0625 L 23.847656 12.089844 C 23.765625 11.960938 23.695312 11.828125 23.636719 11.695312 L 23.636719 11.714844 C 23.644531 11.75 23.65625 11.785156 23.660156 11.824219 C 23.714844 11.90625 23.769531 11.992188 23.828125 12.0625 " fill-opacity="1" fill-rule="nonzero"/><path fill="#5b2214" d="M 23.789062 12.253906 L 23.8125 12.324219 L 23.832031 12.367188 L 23.839844 12.382812 C 23.820312 12.34375 23.804688 12.300781 23.789062 12.253906 " fill-opacity="1" fill-rule="nonzero"/><path fill="#5b2214" d="M 23.683594 11.929688 C 23.691406 11.960938 23.695312 11.988281 23.703125 12.019531 L 23.714844 12.050781 L 23.722656 12.070312 C 23.707031 12.023438 23.695312 11.980469 23.683594 11.929688 " fill-opacity="1" fill-rule="nonzero"/><path fill="#5b2214" d="M 27.617188 10.453125 L 27.617188 10.421875 C 27.613281 10.398438 27.609375 10.367188 27.609375 10.34375 C 27.613281 10.378906 27.617188 10.417969 27.617188 10.453125 " fill-opacity="1" fill-rule="nonzero"/><path fill="#5b2214" d="M 27.5625 9.984375 L 27.558594 9.945312 L 27.546875 9.902344 C 27.554688 9.933594 27.558594 9.960938 27.5625 9.984375 " fill-opacity="1" fill-rule="nonzero"/><path fill="#5b2214" d="M 23.984375 12.660156 L 23.992188 12.675781 L 24.003906 12.691406 L 23.984375 12.660156 " fill-opacity="1" fill-rule="nonzero"/><path fill="#5b2214" d="M 27.550781 9.902344 L 27.539062 9.855469 C 27.535156 9.824219 27.527344 9.792969 27.519531 9.757812 C 27.53125 9.808594 27.539062 9.851562 27.550781 9.902344 " fill-opacity="1" fill-rule="nonzero"/><path fill="#5b2214" d="M 27.453125 9.472656 L 27.445312 9.421875 L 27.441406 9.417969 C 27.429688 9.375 27.414062 9.324219 27.402344 9.28125 C 27.417969 9.34375 27.4375 9.410156 27.453125 9.472656 " fill-opacity="1" fill-rule="nonzero"/><path fill="#5b2214" d="M 27.316406 8.996094 L 27.308594 8.976562 L 27.300781 8.945312 L 27.304688 8.957031 L 27.316406 8.996094 " fill-opacity="1" fill-rule="nonzero"/><path fill="#5b2214" d="M 27.609375 10.347656 L 27.605469 10.324219 L 27.597656 10.269531 C 27.601562 10.292969 27.605469 10.324219 27.609375 10.347656 " fill-opacity="1" fill-rule="nonzero"/><path fill="#5b2214" d="M 26.171875 13.5 L 26.179688 13.496094 C 27.132812 13.015625 27.597656 11.933594 27.628906 10.914062 C 27.636719 10.753906 27.628906 10.605469 27.617188 10.453125 C 27.617188 10.417969 27.613281 10.382812 27.609375 10.34375 C 27.605469 10.320312 27.601562 10.289062 27.597656 10.265625 C 27.589844 10.175781 27.578125 10.082031 27.5625 9.988281 C 27.558594 9.957031 27.554688 9.929688 27.546875 9.898438 C 27.539062 9.855469 27.53125 9.808594 27.519531 9.761719 C 27.5 9.664062 27.480469 9.566406 27.453125 9.46875 C 27.4375 9.40625 27.417969 9.34375 27.402344 9.277344 C 27.375 9.1875 27.347656 9.09375 27.316406 9 L 27.304688 8.957031 C 27.402344 9.378906 27.457031 9.820312 27.445312 10.261719 C 27.414062 11.289062 26.945312 12.363281 25.992188 12.84375 C 25.628906 13.03125 25.230469 13.09375 24.835938 12.957031 C 24.617188 12.878906 24.421875 12.75 24.253906 12.589844 C 24.160156 12.5 24.070312 12.402344 23.992188 12.300781 C 23.9375 12.230469 23.894531 12.160156 23.847656 12.085938 L 23.828125 12.066406 C 23.769531 11.988281 23.714844 11.910156 23.660156 11.828125 C 23.667969 11.859375 23.675781 11.894531 23.683594 11.929688 C 23.695312 11.980469 23.707031 12.027344 23.722656 12.070312 C 23.742188 12.136719 23.765625 12.195312 23.789062 12.253906 C 23.804688 12.296875 23.820312 12.339844 23.839844 12.382812 C 23.871094 12.449219 23.902344 12.511719 23.9375 12.574219 C 23.953125 12.605469 23.964844 12.628906 23.984375 12.660156 L 24.003906 12.691406 C 24.058594 12.78125 24.117188 12.867188 24.179688 12.953125 C 24.222656 13.011719 24.277344 13.0625 24.332031 13.117188 L 26.175781 13.484375 L 26.171875 13.5 " fill-opacity="1" fill-rule="nonzero"/><path fill="#602616" d="M 24.199219 11.644531 C 24.289062 11.679688 24.429688 11.390625 24.464844 11.335938 C 24.625 11.105469 24.800781 10.886719 25.019531 10.710938 C 25.402344 10.390625 25.882812 10.140625 26.046875 9.644531 C 26.132812 9.378906 26.152344 9.089844 26.125 8.820312 C 26.121094 8.75 26.097656 8.382812 25.992188 8.378906 C 25.957031 8.375 25.796875 8.949219 25.765625 9 C 25.59375 9.3125 25.347656 9.5 25.039062 9.671875 C 24.617188 9.90625 24.3125 10.199219 24.175781 10.675781 C 24.132812 10.828125 23.960938 11.550781 24.199219 11.644531 " fill-opacity="1" fill-rule="nonzero"/><path fill="#b1b3b2" d="M 25.710938 16.667969 L 25.722656 16.699219 L 25.710938 16.667969 " fill-opacity="1" fill-rule="nonzero"/><path fill="#b1b3b2" d="M 23.628906 16.5625 L 25.308594 16.898438 L 25.445312 16.921875 C 25.566406 16.871094 25.644531 16.808594 25.660156 16.722656 C 25.675781 16.65625 25.652344 16.585938 25.597656 16.519531 C 25.378906 16.617188 25.003906 16.636719 24.585938 16.554688 C 24.515625 16.539062 24.449219 16.523438 24.386719 16.503906 L 24.339844 16.496094 C 24.277344 16.476562 24.21875 16.457031 24.164062 16.4375 L 24.15625 16.429688 C 24.097656 16.410156 24.046875 16.386719 23.996094 16.363281 L 23.957031 16.34375 C 23.914062 16.320312 23.871094 16.300781 23.832031 16.277344 L 23.816406 16.265625 C 23.777344 16.242188 23.746094 16.214844 23.710938 16.183594 L 23.683594 16.164062 L 23.675781 16.15625 C 23.578125 16.199219 23.511719 16.261719 23.496094 16.339844 C 23.476562 16.421875 23.523438 16.507812 23.609375 16.597656 L 23.621094 16.601562 L 23.628906 16.5625 " fill-opacity="1" fill-rule="nonzero"/><path fill="#b1b3b2" d="M 25.65625 16.574219 L 25.679688 16.609375 L 25.65625 16.574219 " fill-opacity="1" fill-rule="nonzero"/><path fill="#b1b3b2" d="M 25.292969 16.964844 L 25.308594 16.894531 L 23.628906 16.5625 L 23.621094 16.601562 C 23.804688 16.746094 24.105469 16.871094 24.457031 16.945312 C 24.777344 17.007812 25.074219 17.007812 25.292969 16.964844 " fill-opacity="1" fill-rule="nonzero"/><path fill="#b1b3b2" d="M 23.933594 16.8125 L 23.894531 16.792969 L 23.933594 16.8125 " fill-opacity="1" fill-rule="nonzero"/><path fill="#b1b3b2" d="M 24.105469 16.886719 L 24.09375 16.882812 L 24.105469 16.886719 " fill-opacity="1" fill-rule="nonzero"/><path fill="#b1b3b2" d="M 23.773438 16.722656 L 23.757812 16.714844 L 23.773438 16.722656 " fill-opacity="1" fill-rule="nonzero"/><path fill="#b1b3b2" d="M 23.652344 16.636719 L 23.625 16.609375 L 23.652344 16.636719 " fill-opacity="1" fill-rule="nonzero"/><path fill="#b1b3b2" d="M 24.324219 16.957031 L 24.277344 16.941406 L 24.324219 16.957031 " fill-opacity="1" fill-rule="nonzero"/><path fill="#b1b3b2" d="M 25.441406 16.925781 L 25.308594 16.898438 L 25.441406 16.925781 " fill-opacity="1" fill-rule="nonzero"/><path fill="#b1b3b2" d="M 25.441406 16.925781 L 25.308594 16.898438 L 25.292969 16.964844 C 25.351562 16.953125 25.398438 16.941406 25.441406 16.925781 " fill-opacity="1" fill-rule="nonzero"/><path fill="#878a8b" d="M 25.722656 16.695312 C 25.730469 16.722656 25.734375 16.753906 25.726562 16.785156 C 25.734375 16.753906 25.730469 16.722656 25.722656 16.695312 " fill-opacity="1" fill-rule="nonzero"/><path fill="#878a8b" d="M 25.679688 16.605469 L 25.710938 16.667969 L 25.679688 16.605469 " fill-opacity="1" fill-rule="nonzero"/><path fill="#878a8b" d="M 25.660156 16.574219 L 25.605469 16.515625 L 25.660156 16.574219 " fill-opacity="1" fill-rule="nonzero"/><path fill="#878a8b" d="M 23.609375 16.597656 L 23.601562 16.589844 L 23.621094 16.609375 L 23.609375 16.597656 " fill-opacity="1" fill-rule="nonzero"/><path fill="#878a8b" d="M 24.277344 16.941406 C 24.214844 16.921875 24.160156 16.902344 24.105469 16.882812 C 24.160156 16.902344 24.214844 16.921875 24.277344 16.941406 " fill-opacity="1" fill-rule="nonzero"/><path fill="#878a8b" d="M 24.523438 17.003906 C 24.457031 16.988281 24.390625 16.972656 24.324219 16.953125 C 24.390625 16.972656 24.457031 16.988281 24.523438 17.003906 " fill-opacity="1" fill-rule="nonzero"/><path fill="#878a8b" d="M 24.09375 16.878906 C 24.039062 16.859375 23.984375 16.835938 23.933594 16.8125 C 23.984375 16.835938 24.039062 16.859375 24.09375 16.878906 " fill-opacity="1" fill-rule="nonzero"/><path fill="#878a8b" d="M 23.621094 16.605469 L 23.625 16.609375 L 23.621094 16.605469 " fill-opacity="1" fill-rule="nonzero"/><path fill="#878a8b" d="M 23.894531 16.789062 C 23.851562 16.773438 23.808594 16.746094 23.773438 16.722656 C 23.808594 16.746094 23.851562 16.773438 23.894531 16.789062 " fill-opacity="1" fill-rule="nonzero"/><path fill="#878a8b" d="M 23.757812 16.714844 C 23.71875 16.691406 23.683594 16.667969 23.652344 16.636719 C 23.683594 16.667969 23.71875 16.691406 23.757812 16.714844 " fill-opacity="1" fill-rule="nonzero"/><path fill="#878a8b" d="M 23.621094 16.601562 L 23.609375 16.597656 L 23.621094 16.605469 L 23.621094 16.601562 " fill-opacity="1" fill-rule="nonzero"/><path fill="#878a8b" d="M 25.597656 16.523438 C 25.648438 16.589844 25.675781 16.65625 25.660156 16.71875 C 25.644531 16.808594 25.566406 16.875 25.445312 16.917969 L 25.519531 16.9375 L 25.511719 16.984375 C 25.632812 16.933594 25.710938 16.867188 25.726562 16.777344 C 25.734375 16.753906 25.730469 16.726562 25.722656 16.695312 L 25.710938 16.667969 L 25.679688 16.605469 L 25.660156 16.574219 L 25.605469 16.515625 L 25.597656 16.523438 " fill-opacity="1" fill-rule="nonzero"/><path fill="#878a8b" d="M 24.457031 16.941406 C 24.105469 16.875 23.804688 16.742188 23.621094 16.601562 L 23.621094 16.605469 L 23.625 16.613281 L 23.652344 16.636719 C 23.683594 16.660156 23.71875 16.6875 23.757812 16.714844 L 23.773438 16.722656 C 23.808594 16.746094 23.851562 16.765625 23.894531 16.789062 L 23.933594 16.808594 C 23.984375 16.835938 24.039062 16.859375 24.09375 16.878906 L 24.105469 16.882812 C 24.160156 16.902344 24.214844 16.921875 24.277344 16.941406 L 24.324219 16.957031 C 24.390625 16.96875 24.457031 16.988281 24.523438 17 C 24.804688 17.058594 25.070312 17.066406 25.277344 17.039062 L 25.292969 16.964844 C 25.074219 17.007812 24.777344 17.003906 24.457031 16.941406 " fill-opacity="1" fill-rule="nonzero"/><path fill="#878a8b" d="M 25.519531 16.9375 L 25.441406 16.921875 L 25.519531 16.9375 " fill-opacity="1" fill-rule="nonzero"/><path fill="#878a8b" d="M 25.441406 16.921875 C 25.398438 16.9375 25.347656 16.953125 25.292969 16.96875 L 25.277344 17.039062 C 25.367188 17.023438 25.445312 17.007812 25.511719 16.980469 L 25.519531 16.9375 L 25.441406 16.921875 " fill-opacity="1" fill-rule="nonzero"/><path fill="#b1b3b2" d="M 25.71875 16.128906 L 25.742188 16.164062 L 25.71875 16.128906 " fill-opacity="1" fill-rule="nonzero"/><path fill="#b1b3b2" d="M 25.664062 16.070312 L 25.65625 16.0625 L 25.652344 16.0625 L 25.664062 16.070312 " fill-opacity="1" fill-rule="nonzero"/><path fill="#b1b3b2" d="M 24.699219 16.121094 C 25.054688 16.191406 25.351562 16.320312 25.535156 16.460938 C 25.636719 16.417969 25.707031 16.355469 25.722656 16.277344 C 25.738281 16.210938 25.707031 16.132812 25.644531 16.058594 L 23.785156 15.691406 C 23.65625 15.738281 23.574219 15.808594 23.554688 15.894531 C 23.539062 15.976562 23.585938 16.0625 23.671875 16.152344 L 23.679688 16.15625 C 23.898438 16.058594 24.277344 16.039062 24.699219 16.121094 " fill-opacity="1" fill-rule="nonzero"/><path fill="#b1b3b2" d="M 25.773438 16.222656 L 25.785156 16.25 L 25.773438 16.222656 " fill-opacity="1" fill-rule="nonzero"/><path fill="#b1b3b2" d="M 24.164062 16.441406 L 24.15625 16.4375 L 24.164062 16.441406 " fill-opacity="1" fill-rule="nonzero"/><path fill="#b1b3b2" d="M 23.996094 16.367188 L 23.957031 16.347656 L 23.996094 16.367188 " fill-opacity="1" fill-rule="nonzero"/><path fill="#b1b3b2" d="M 24.386719 16.507812 L 24.335938 16.496094 L 24.386719 16.507812 " fill-opacity="1" fill-rule="nonzero"/><path fill="#b1b3b2" d="M 23.710938 16.1875 L 23.683594 16.164062 L 23.710938 16.1875 " fill-opacity="1" fill-rule="nonzero"/><path fill="#b1b3b2" d="M 23.832031 16.277344 L 23.816406 16.265625 L 23.832031 16.277344 " fill-opacity="1" fill-rule="nonzero"/><path fill="#b1b3b2" d="M 25.535156 16.460938 C 25.351562 16.316406 25.054688 16.191406 24.699219 16.117188 C 24.277344 16.035156 23.898438 16.054688 23.679688 16.15625 C 23.863281 16.296875 24.164062 16.425781 24.519531 16.496094 C 24.941406 16.578125 25.320312 16.558594 25.535156 16.460938 " fill-opacity="1" fill-rule="nonzero"/><path fill="#878a8b" d="M 23.671875 16.152344 L 23.660156 16.140625 L 23.675781 16.15625 L 23.679688 16.15625 L 23.671875 16.152344 " fill-opacity="1" fill-rule="nonzero"/><path fill="#878a8b" d="M 25.785156 16.25 C 25.792969 16.277344 25.792969 16.308594 25.789062 16.335938 C 25.792969 16.308594 25.792969 16.277344 25.785156 16.25 " fill-opacity="1" fill-rule="nonzero"/><path fill="#878a8b" d="M 25.664062 16.070312 L 25.71875 16.128906 L 25.664062 16.070312 " fill-opacity="1" fill-rule="nonzero"/><path fill="#878a8b" d="M 25.742188 16.160156 L 25.773438 16.222656 L 25.742188 16.160156 " fill-opacity="1" fill-rule="nonzero"/><path fill="#878a8b" d="M 23.957031 16.34375 C 23.914062 16.324219 23.871094 16.300781 23.832031 16.277344 C 23.871094 16.300781 23.914062 16.324219 23.957031 16.34375 " fill-opacity="1" fill-rule="nonzero"/><path fill="#878a8b" d="M 24.335938 16.496094 C 24.277344 16.476562 24.21875 16.457031 24.164062 16.4375 C 24.21875 16.457031 24.277344 16.476562 24.335938 16.496094 " fill-opacity="1" fill-rule="nonzero"/><path fill="#878a8b" d="M 24.15625 16.433594 C 24.097656 16.414062 24.046875 16.390625 23.996094 16.363281 C 24.046875 16.390625 24.097656 16.414062 24.15625 16.433594 " fill-opacity="1" fill-rule="nonzero"/><path fill="#878a8b" d="M 24.585938 16.554688 C 24.515625 16.542969 24.449219 16.527344 24.386719 16.507812 C 24.449219 16.527344 24.515625 16.542969 24.585938 16.554688 " fill-opacity="1" fill-rule="nonzero"/><path fill="#878a8b" d="M 23.679688 16.15625 L 23.675781 16.15625 L 23.683594 16.164062 L 23.679688 16.15625 " fill-opacity="1" fill-rule="nonzero"/><path fill="#878a8b" d="M 23.816406 16.269531 C 23.777344 16.242188 23.746094 16.21875 23.710938 16.191406 C 23.746094 16.21875 23.777344 16.242188 23.816406 16.269531 " fill-opacity="1" fill-rule="nonzero"/><path fill="#878a8b" d="M 23.679688 16.15625 L 23.671875 16.152344 L 23.679688 16.15625 " fill-opacity="1" fill-rule="nonzero"/><path fill="#878a8b" d="M 25.644531 16.058594 C 25.707031 16.128906 25.738281 16.207031 25.722656 16.273438 C 25.707031 16.351562 25.636719 16.417969 25.535156 16.460938 L 25.5625 16.480469 L 25.558594 16.472656 L 25.570312 16.488281 L 25.601562 16.519531 L 25.605469 16.519531 C 25.707031 16.472656 25.773438 16.410156 25.789062 16.332031 C 25.792969 16.304688 25.792969 16.28125 25.785156 16.25 L 25.773438 16.222656 L 25.742188 16.160156 L 25.71875 16.128906 L 25.664062 16.070312 L 25.652344 16.058594 L 25.644531 16.058594 " fill-opacity="1" fill-rule="nonzero"/><path fill="#878a8b" d="M 25.570312 16.484375 L 25.601562 16.515625 L 25.570312 16.484375 " fill-opacity="1" fill-rule="nonzero"/><path fill="#878a8b" d="M 25.535156 16.460938 C 25.320312 16.558594 24.9375 16.582031 24.519531 16.496094 C 24.164062 16.425781 23.863281 16.296875 23.679688 16.15625 L 23.683594 16.164062 L 23.710938 16.1875 C 23.746094 16.214844 23.777344 16.242188 23.816406 16.265625 L 23.832031 16.277344 C 23.871094 16.300781 23.914062 16.324219 23.957031 16.34375 L 23.996094 16.363281 C 24.046875 16.386719 24.097656 16.410156 24.15625 16.4375 L 24.164062 16.4375 C 24.21875 16.457031 24.277344 16.476562 24.335938 16.496094 L 24.386719 16.507812 C 24.449219 16.523438 24.515625 16.542969 24.585938 16.558594 C 25.003906 16.640625 25.378906 16.617188 25.597656 16.523438 L 25.5625 16.480469 L 25.535156 16.460938 " fill-opacity="1" fill-rule="nonzero"/><path fill="#878a8b" d="M 25.558594 16.472656 L 25.5625 16.484375 L 25.570312 16.488281 L 25.558594 16.472656 " fill-opacity="1" fill-rule="nonzero"/><path fill="#878a8b" d="M 25.601562 16.515625 L 25.570312 16.484375 L 25.5625 16.480469 L 25.597656 16.519531 L 25.605469 16.519531 L 25.601562 16.515625 " fill-opacity="1" fill-rule="nonzero"/><path fill="#b1b3b2" d="M 24.757812 15.671875 C 25.132812 15.746094 25.445312 15.882812 25.625 16.03125 L 25.621094 16.027344 L 25.632812 16.039062 L 25.65625 16.058594 L 25.667969 16.0625 L 26.171875 13.5 C 25.8125 13.679688 25.414062 13.742188 25.023438 13.605469 C 24.804688 13.527344 24.609375 13.398438 24.441406 13.242188 C 24.402344 13.203125 24.367188 13.15625 24.332031 13.121094 L 24.285156 13.109375 L 23.773438 15.6875 L 23.785156 15.6875 C 24.007812 15.605469 24.367188 15.59375 24.757812 15.671875 " fill-opacity="1" fill-rule="nonzero"/><path fill="#b1b3b2" d="M 25.023438 13.605469 C 25.414062 13.742188 25.8125 13.679688 26.171875 13.496094 L 26.175781 13.484375 L 24.332031 13.117188 C 24.367188 13.15625 24.402344 13.199219 24.441406 13.238281 C 24.609375 13.394531 24.804688 13.527344 25.023438 13.605469 " fill-opacity="1" fill-rule="nonzero"/><path fill="#b1b3b2" d="M 25.632812 16.039062 L 25.652344 16.058594 L 25.65625 16.058594 L 25.632812 16.039062 " fill-opacity="1" fill-rule="nonzero"/><path fill="#b1b3b2" d="M 25.625 16.035156 C 25.445312 15.882812 25.132812 15.742188 24.761719 15.671875 C 24.367188 15.59375 24.007812 15.605469 23.785156 15.691406 L 25.644531 16.058594 L 25.625 16.035156 " fill-opacity="1" fill-rule="nonzero"/><path fill="#b1b3b2" d="M 25.617188 16.027344 L 25.625 16.035156 L 25.632812 16.039062 L 25.617188 16.027344 " fill-opacity="1" fill-rule="nonzero"/><path fill="#b1b3b2" d="M 25.632812 16.039062 L 25.625 16.035156 L 25.644531 16.058594 L 25.652344 16.058594 L 25.632812 16.039062 " fill-opacity="1" fill-rule="nonzero"/><path fill="#b98658" d="M 29.261719 13.554688 C 29.175781 13.515625 29.09375 13.464844 29.011719 13.421875 L 28.953125 13.386719 C 28.878906 13.34375 28.808594 13.296875 28.746094 13.253906 L 28.734375 13.242188 C 28.664062 13.195312 28.601562 13.144531 28.546875 13.097656 L 28.5 13.058594 C 28.449219 13.007812 28.402344 12.964844 28.359375 12.921875 L 28.34375 12.902344 C 28.300781 12.859375 28.261719 12.808594 28.230469 12.761719 L 28.203125 12.722656 L 28.199219 12.710938 L 24.863281 19.929688 L 24.433594 21.871094 L 23.980469 23.941406 L 23.164062 27.664062 L 24.847656 24.386719 L 25.894531 22.351562 L 30.253906 13.867188 C 29.964844 13.832031 29.617188 13.730469 29.261719 13.554688 " fill-opacity="1" fill-rule="nonzero"/><path fill="#b58050" d="M 30.253906 13.863281 L 25.894531 22.347656 L 24.847656 24.382812 L 23.164062 27.660156 L 22.914062 28.785156 L 25.09375 24.546875 L 26.195312 22.398438 L 30.582031 13.867188 C 30.484375 13.882812 30.375 13.878906 30.253906 13.863281 " fill-opacity="1" fill-rule="nonzero"/><path fill="#b98658" d="M 24.523438 17.003906 C 24.457031 16.988281 24.390625 16.976562 24.324219 16.957031 L 24.277344 16.941406 C 24.214844 16.921875 24.160156 16.90625 24.105469 16.882812 L 24.09375 16.882812 C 24.039062 16.859375 23.984375 16.832031 23.933594 16.808594 L 23.894531 16.789062 C 23.851562 16.773438 23.808594 16.746094 23.773438 16.722656 L 23.757812 16.710938 C 23.71875 16.6875 23.683594 16.660156 23.652344 16.636719 L 23.621094 16.605469 L 22.851562 20.960938 L 22.386719 23.59375 L 21.90625 26.324219 L 21.230469 30.148438 C 21.429688 30.1875 21.632812 30.21875 21.839844 30.230469 C 21.875 30.238281 21.910156 30.242188 21.945312 30.242188 C 22.019531 30.246094 22.089844 30.246094 22.164062 30.246094 C 22.234375 30.246094 22.304688 30.25 22.375 30.25 L 22.53125 29.535156 L 22.78125 28.40625 L 23.777344 23.867188 L 24.234375 21.78125 L 24.445312 20.832031 L 25.277344 17.039062 C 25.070312 17.066406 24.804688 17.058594 24.523438 17.003906 " fill-opacity="1" fill-rule="nonzero"/><g clip-path="url(#e6993968ac)"><path fill="#fdde9f" d="M 29.347656 22.957031 C 28.734375 22.542969 27.9375 22.574219 27.203125 22.53125 C 26.859375 22.511719 26.523438 22.464844 26.195312 22.40625 L 25.09375 24.550781 C 25.988281 25.214844 26.527344 26.152344 26.46875 27.164062 C 26.371094 28.835938 24.691406 30.121094 22.597656 30.238281 C 22.523438 30.246094 22.449219 30.25 22.375 30.253906 C 22.304688 30.253906 22.234375 30.25 22.164062 30.25 C 22.089844 30.25 22.019531 30.25 21.945312 30.246094 C 21.910156 30.246094 21.875 30.238281 21.839844 30.234375 C 21.632812 30.21875 21.429688 30.191406 21.230469 30.152344 C 20.894531 30.089844 20.566406 30 20.265625 29.882812 C 18.746094 29.28125 17.726562 28.039062 17.808594 26.667969 C 17.914062 24.828125 19.9375 23.449219 22.328125 23.585938 L 22.386719 23.59375 L 22.851562 20.964844 C 21.382812 19.882812 20.277344 18.316406 19.722656 16.453125 C 18.867188 13.566406 18.398438 9.925781 14.585938 9.800781 C 8.601562 9.617188 2.632812 14.375 1.078125 20.042969 C 0.140625 23.472656 0.621094 27.300781 2.46875 30.347656 C 6.546875 37.066406 15.359375 36.925781 16.28125 36.894531 C 16.535156 36.882812 16.789062 36.871094 17.042969 36.851562 C 17.542969 36.8125 18.042969 36.746094 18.535156 36.667969 C 18.65625 36.644531 18.777344 36.625 18.898438 36.601562 C 19.316406 36.523438 19.734375 36.429688 20.144531 36.320312 C 20.46875 36.230469 20.789062 36.136719 21.105469 36.03125 C 21.183594 36.003906 21.261719 35.976562 21.34375 35.945312 C 25.761719 34.394531 29.382812 30.980469 30.171875 26.023438 C 30.347656 24.917969 30.273438 23.582031 29.347656 22.957031 " fill-opacity="1" fill-rule="nonzero"/></g><path fill="#b58050" d="M 25.277344 17.039062 L 24.445312 20.832031 L 24.234375 21.785156 L 23.777344 23.871094 L 22.78125 28.40625 L 22.53125 29.535156 L 22.375 30.253906 C 22.449219 30.246094 22.523438 30.242188 22.597656 30.238281 L 22.914062 28.785156 L 23.164062 27.664062 L 23.980469 23.9375 L 24.433594 21.871094 L 24.863281 19.925781 L 25.511719 16.980469 C 25.445312 17.007812 25.367188 17.023438 25.277344 17.039062 " fill-opacity="1" fill-rule="nonzero"/><path fill="#f579aa" d="M 7.882812 19.285156 C 7.882812 20.285156 7.074219 21.097656 6.074219 21.097656 C 5.070312 21.097656 4.261719 20.285156 4.261719 19.285156 C 4.261719 18.285156 5.070312 17.472656 6.074219 17.472656 C 7.074219 17.472656 7.882812 18.285156 7.882812 19.285156 " fill-opacity="1" fill-rule="nonzero"/><path fill="#f4679f" d="M 7.359375 19.652344 C 7.089844 19.707031 6.867188 19.835938 6.671875 19.949219 C 6.394531 20.125 6.164062 20.289062 5.898438 20.246094 C 5.472656 20.171875 5.128906 20 4.90625 19.804688 C 4.542969 19.488281 4.5 19.109375 4.921875 19.007812 C 5.203125 18.9375 5.359375 18.824219 5.480469 18.714844 C 5.703125 18.511719 5.8125 18.316406 6.382812 18.414062 C 6.59375 18.453125 6.851562 18.59375 7.074219 18.765625 C 7.5 19.101562 7.792969 19.558594 7.359375 19.652344 " fill-opacity="1" fill-rule="nonzero"/><path fill="#f4679f" d="M 5.234375 19.234375 C 5.398438 19.417969 5.519531 19.679688 5.625 19.925781 C 5.777344 20.28125 5.898438 20.605469 6.074219 20.644531 C 6.363281 20.707031 6.613281 20.589844 6.789062 20.390625 C 7.078125 20.074219 7.171875 19.539062 6.917969 19.234375 C 6.746094 19.023438 6.664062 18.800781 6.605469 18.59375 C 6.496094 18.21875 6.460938 17.898438 6.074219 17.824219 C 5.929688 17.792969 5.742188 17.898438 5.570312 18.058594 C 5.234375 18.378906 4.96875 18.9375 5.234375 19.234375 " fill-opacity="1" fill-rule="nonzero"/><path fill="#fbd21c" d="M 20.710938 33.328125 C 20.710938 34.332031 19.898438 35.144531 18.898438 35.144531 C 17.898438 35.144531 17.089844 34.332031 17.089844 33.328125 C 17.089844 32.332031 17.898438 31.519531 18.898438 31.519531 C 19.898438 31.519531 20.710938 32.332031 20.710938 33.328125 " fill-opacity="1" fill-rule="nonzero"/><path fill="#fbc128" d="M 20.164062 33.699219 C 19.890625 33.753906 19.671875 33.878906 19.476562 34.003906 C 19.195312 34.167969 18.964844 34.335938 18.703125 34.292969 C 18.273438 34.21875 17.933594 34.050781 17.710938 33.855469 C 17.347656 33.535156 17.304688 33.15625 17.722656 33.054688 C 18.007812 32.984375 18.164062 32.871094 18.285156 32.757812 C 18.507812 32.558594 18.617188 32.363281 19.183594 32.464844 C 19.398438 32.496094 19.65625 32.640625 19.878906 32.808594 C 20.304688 33.148438 20.59375 33.605469 20.164062 33.699219 " fill-opacity="1" fill-rule="nonzero"/><path fill="#fbc128" d="M 18.035156 33.28125 C 18.203125 33.464844 18.324219 33.726562 18.429688 33.972656 C 18.582031 34.332031 18.699219 34.652344 18.878906 34.691406 C 19.167969 34.753906 19.417969 34.636719 19.59375 34.441406 C 19.882812 34.121094 19.976562 33.589844 19.722656 33.28125 C 19.550781 33.070312 19.46875 32.847656 19.410156 32.640625 C 19.300781 32.265625 19.265625 31.945312 18.878906 31.871094 C 18.734375 31.839844 18.546875 31.945312 18.371094 32.109375 C 18.039062 32.429688 17.773438 32.980469 18.035156 33.28125 " fill-opacity="1" fill-rule="nonzero"/><path fill="#ee2429" d="M 17.238281 16.101562 C 17.238281 17.101562 16.429688 17.914062 15.429688 17.914062 C 14.429688 17.914062 13.617188 17.101562 13.617188 16.101562 C 13.617188 15.101562 14.429688 14.289062 15.429688 14.289062 C 16.429688 14.289062 17.238281 15.101562 17.238281 16.101562 " fill-opacity="1" fill-rule="nonzero"/><path fill="#ed1c24" d="M 16.691406 16.511719 C 16.421875 16.570312 16.203125 16.691406 16.003906 16.8125 C 15.726562 16.984375 15.496094 17.148438 15.230469 17.101562 C 14.804688 17.03125 14.460938 16.863281 14.238281 16.667969 C 13.878906 16.347656 13.832031 15.96875 14.253906 15.867188 C 14.539062 15.796875 14.691406 15.683594 14.816406 15.570312 C 15.035156 15.371094 15.144531 15.175781 15.714844 15.273438 C 15.925781 15.3125 16.183594 15.453125 16.40625 15.625 C 16.835938 15.957031 17.125 16.417969 16.691406 16.511719 " fill-opacity="1" fill-rule="nonzero"/><path fill="#ed1c24" d="M 14.566406 16.09375 C 14.730469 16.28125 14.851562 16.542969 14.957031 16.789062 C 15.109375 17.140625 15.230469 17.464844 15.410156 17.503906 C 15.695312 17.566406 15.945312 17.445312 16.121094 17.253906 C 16.410156 16.933594 16.503906 16.402344 16.25 16.09375 C 16.078125 15.882812 16 15.660156 15.9375 15.457031 C 15.832031 15.078125 15.792969 14.757812 15.410156 14.683594 C 15.265625 14.65625 15.074219 14.757812 14.902344 14.921875 C 14.570312 15.242188 14.304688 15.796875 14.566406 16.09375 " fill-opacity="1" fill-rule="nonzero"/><path fill="#86d170" d="M 10.023438 29.882812 C 10.023438 30.878906 9.214844 31.691406 8.214844 31.691406 C 7.214844 31.691406 6.402344 30.878906 6.402344 29.882812 C 6.402344 28.878906 7.214844 28.066406 8.214844 28.066406 C 9.214844 28.066406 10.023438 28.878906 10.023438 29.882812 " fill-opacity="1" fill-rule="nonzero"/><path fill="#77cc5e" d="M 9.472656 30.292969 C 9.203125 30.347656 8.984375 30.472656 8.785156 30.59375 C 8.507812 30.761719 8.277344 30.925781 8.011719 30.882812 C 7.585938 30.808594 7.242188 30.640625 7.019531 30.441406 C 6.65625 30.128906 6.613281 29.746094 7.035156 29.648438 C 7.320312 29.578125 7.472656 29.460938 7.59375 29.351562 C 7.816406 29.152344 7.925781 28.957031 8.496094 29.054688 C 8.707031 29.089844 8.964844 29.234375 9.1875 29.402344 C 9.613281 29.738281 9.90625 30.199219 9.472656 30.292969 " fill-opacity="1" fill-rule="nonzero"/><path fill="#77cc5e" d="M 7.347656 29.875 C 7.511719 30.058594 7.632812 30.324219 7.738281 30.566406 C 7.890625 30.917969 8.011719 31.242188 8.1875 31.28125 C 8.476562 31.34375 8.726562 31.230469 8.902344 31.035156 C 9.191406 30.710938 9.285156 30.179688 9.03125 29.875 C 8.859375 29.664062 8.777344 29.441406 8.71875 29.234375 C 8.613281 28.859375 8.574219 28.539062 8.1875 28.460938 C 8.046875 28.433594 7.855469 28.535156 7.683594 28.699219 C 7.351562 29.019531 7.085938 29.574219 7.347656 29.875 " fill-opacity="1" fill-rule="nonzero"/><path fill="#936ebe" d="M 6.964844 25.15625 C 6.964844 26.160156 6.15625 26.972656 5.15625 26.972656 C 4.15625 26.972656 3.34375 26.160156 3.34375 25.15625 C 3.34375 24.15625 4.15625 23.347656 5.15625 23.347656 C 6.15625 23.347656 6.964844 24.15625 6.964844 25.15625 " fill-opacity="1" fill-rule="nonzero"/><path fill="#8665b9" d="M 6.367188 25.570312 C 6.097656 25.625 5.875 25.75 5.679688 25.871094 C 5.402344 26.042969 5.167969 26.207031 4.90625 26.164062 C 4.480469 26.089844 4.136719 25.917969 3.914062 25.726562 C 3.550781 25.40625 3.507812 25.027344 3.925781 24.925781 C 4.210938 24.855469 4.367188 24.742188 4.488281 24.628906 C 4.710938 24.425781 4.820312 24.234375 5.386719 24.332031 C 5.601562 24.367188 5.859375 24.507812 6.082031 24.679688 C 6.507812 25.015625 6.796875 25.476562 6.367188 25.570312 " fill-opacity="1" fill-rule="nonzero"/><path fill="#8665b9" d="M 4.238281 25.15625 C 4.40625 25.34375 4.527344 25.601562 4.632812 25.855469 C 4.785156 26.203125 4.90625 26.53125 5.082031 26.570312 C 5.371094 26.628906 5.621094 26.511719 5.796875 26.3125 C 6.085938 25.992188 6.179688 25.464844 5.925781 25.15625 C 5.753906 24.945312 5.671875 24.726562 5.613281 24.519531 C 5.503906 24.144531 5.46875 23.824219 5.082031 23.746094 C 4.9375 23.71875 4.75 23.816406 4.574219 23.984375 C 4.242188 24.300781 3.976562 24.859375 4.238281 25.15625 " fill-opacity="1" fill-rule="nonzero"/><path fill="#52c7f4" d="M 15.121094 32.910156 C 15.121094 33.914062 14.3125 34.722656 13.3125 34.722656 C 12.3125 34.722656 11.5 33.914062 11.5 32.910156 C 11.5 31.914062 12.3125 31.097656 13.3125 31.097656 C 14.3125 31.097656 15.121094 31.914062 15.121094 32.910156 " fill-opacity="1" fill-rule="nonzero"/><path fill="#50b7eb" d="M 14.574219 33.324219 C 14.304688 33.378906 14.082031 33.503906 13.886719 33.621094 C 13.609375 33.792969 13.378906 33.960938 13.113281 33.917969 C 12.6875 33.847656 12.34375 33.675781 12.121094 33.480469 C 11.757812 33.160156 11.714844 32.78125 12.136719 32.675781 C 12.421875 32.609375 12.574219 32.496094 12.699219 32.382812 C 12.917969 32.183594 13.027344 31.988281 13.597656 32.089844 C 13.808594 32.121094 14.070312 32.265625 14.289062 32.433594 C 14.71875 32.773438 15.007812 33.234375 14.574219 33.324219 " fill-opacity="1" fill-rule="nonzero"/><path fill="#50b7eb" d="M 12.449219 32.90625 C 12.613281 33.089844 12.734375 33.351562 12.839844 33.601562 C 12.992188 33.953125 13.113281 34.28125 13.292969 34.316406 C 13.578125 34.378906 13.828125 34.261719 14.003906 34.066406 C 14.292969 33.742188 14.386719 33.214844 14.132812 32.90625 C 13.960938 32.699219 13.878906 32.472656 13.820312 32.265625 C 13.710938 31.890625 13.675781 31.570312 13.292969 31.496094 C 13.148438 31.464844 12.957031 31.570312 12.785156 31.730469 C 12.453125 32.054688 12.1875 32.605469 12.449219 32.90625 " fill-opacity="1" fill-rule="nonzero"/><path fill="#ffffff" d="M 11.5 14.90625 C 11.5 15.90625 10.691406 16.71875 9.691406 16.71875 C 8.691406 16.71875 7.878906 15.90625 7.878906 14.90625 C 7.878906 13.910156 8.691406 13.097656 9.691406 13.097656 C 10.691406 13.097656 11.5 13.910156 11.5 14.90625 " fill-opacity="1" fill-rule="nonzero"/><path fill="#f5fcfc" d="M 10.953125 15.273438 C 10.683594 15.332031 10.464844 15.453125 10.265625 15.574219 C 9.988281 15.742188 9.757812 15.902344 9.492188 15.859375 C 9.066406 15.792969 8.722656 15.621094 8.5 15.421875 C 8.136719 15.105469 8.09375 14.726562 8.515625 14.625 C 8.796875 14.558594 8.953125 14.441406 9.074219 14.328125 C 9.296875 14.128906 9.40625 13.933594 9.976562 14.03125 C 10.1875 14.070312 10.445312 14.207031 10.667969 14.382812 C 11.09375 14.71875 11.386719 15.179688 10.953125 15.273438 " fill-opacity="1" fill-rule="nonzero"/><path fill="#f5fcfc" d="M 8.828125 14.851562 C 8.992188 15.039062 9.113281 15.300781 9.21875 15.546875 C 9.371094 15.902344 9.492188 16.226562 9.667969 16.261719 C 9.957031 16.328125 10.207031 16.210938 10.382812 16.011719 C 10.671875 15.691406 10.765625 15.160156 10.511719 14.851562 C 10.339844 14.644531 10.257812 14.421875 10.199219 14.214844 C 10.09375 13.835938 10.054688 13.515625 9.667969 13.441406 C 9.527344 13.414062 9.335938 13.515625 9.164062 13.679688 C 8.832031 14 8.566406 14.554688 8.828125 14.851562 " fill-opacity="1" fill-rule="nonzero"/><g clip-path="url(#45a7daeec7)"><path stroke-linecap="butt" transform="matrix(0.743304, 0, 0, 0.743304, 24.435053, 46.947447)" fill="none" stroke-linejoin="miter" d="M -0.00196343 1.999381 L 46.244285 1.999381 " stroke="#1c1f23" stroke-width="4" stroke-opacity="1" stroke-miterlimit="4"/></g><g clip-path="url(#3f41882046)"><path stroke-linecap="round" transform="matrix(0.743304, 0, 0, 0.743304, 24.435053, 46.947447)" fill="none" stroke-linejoin="round" d="M 38.245786 -4.002121 L 46.244285 1.999381 L 38.245786 8.000882 " stroke="#1c1f23" stroke-width="4" stroke-opacity="1" stroke-miterlimit="4"/></g></svg>