<svg xmlns="http://www.w3.org/2000/svg" xmlns:xlink="http://www.w3.org/1999/xlink" width="24" zoomAndPan="magnify" viewBox="0 0 18 10.5" height="14" preserveAspectRatio="xMidYMid meet" version="1.0"><defs><clipPath id="7d25798ba3"><path d="M 5.910156 0 L 13.785156 0 L 13.785156 7.875 L 5.910156 7.875 Z M 5.910156 0 " clip-rule="nonzero"/></clipPath><clipPath id="c4cf032048"><path d="M 0.410156 9 L 17.589844 9 L 17.589844 10 L 0.410156 10 Z M 0.410156 9 " clip-rule="nonzero"/></clipPath></defs><g clip-path="url(#7d25798ba3)"><path fill="#100f0d" d="M 11.558594 0 L 11 0 L 11.78125 1.363281 L 13.390625 1.363281 C 13.15625 0.574219 12.425781 0 11.558594 0 Z M 11.117188 4.71875 C 11.117188 4.585938 11.046875 4.460938 10.929688 4.394531 L 9.070312 3.320312 C 8.957031 3.253906 8.816406 3.253906 8.699219 3.320312 C 8.585938 3.386719 8.511719 3.511719 8.511719 3.644531 L 8.511719 5.792969 C 8.511719 5.925781 8.585938 6.046875 8.699219 6.113281 C 8.757812 6.148438 8.820312 6.164062 8.886719 6.164062 C 8.949219 6.164062 9.015625 6.148438 9.070312 6.113281 L 10.929688 5.039062 C 11.046875 4.972656 11.117188 4.851562 11.117188 4.71875 Z M 13.472656 5.648438 C 13.472656 6.703125 12.613281 7.5625 11.558594 7.5625 L 7.820312 7.5625 C 6.769531 7.5625 5.910156 6.703125 5.910156 5.648438 L 5.910156 2.105469 L 13.472656 2.105469 Z M 10.152344 0 L 8.386719 0 L 9.167969 1.363281 L 10.925781 1.363281 L 10.179688 0.0585938 C 10.167969 0.0390625 10.160156 0.0195312 10.152344 0 Z M 7.546875 0.0234375 C 7.554688 0.0351562 7.558594 0.046875 7.566406 0.0585938 L 8.308594 1.363281 L 5.992188 1.363281 C 6.203125 0.660156 6.808594 0.128906 7.546875 0.0234375 " fill-opacity="1" fill-rule="nonzero"/></g><g clip-path="url(#c4cf032048)"><path stroke-linecap="butt" transform="matrix(0.715909, 0, 0, 0.715909, 0.409091, 9.081752)" fill="none" stroke-linejoin="miter" d="M 0.00148752 0.502375 L 23.703871 0.502375 " stroke="#ffffff" stroke-width="1" stroke-opacity="1" stroke-miterlimit="4"/></g></svg>